<?xml version="1.0" encoding="UTF-8"?>
<svg width="116px" height="151px" viewBox="0 0 116 151" version="1.1" xmlns="http://www.w3.org/2000/svg" xmlns:xlink="http://www.w3.org/1999/xlink">
    <!-- Generator: Sketch 44.1 (41455) - http://www.bohemiancoding.com/sketch -->
    <title>Group 20</title>
    <desc>Created with Sketch.</desc>
    <defs></defs>
    <g id="v7-draft" stroke="none" stroke-width="1" fill="none" fill-rule="evenodd">
        <g id="top_desktop_Signout_v6_02-Copy" transform="translate(-540.000000, -2313.000000)">
            <g id="Group-20" transform="translate(536.000000, 2301.000000)">
                <g id="Group-5" transform="translate(0.000000, 12.000000)">
                    <g id="Group-8" transform="translate(9.000000, 6.000000)"></g>
                    <text id="Diverse-Culture-&amp;-Wo" fill="#000000" font-family="Lato-Regular, Lato" font-size="14" font-weight="normal">
                        <tspan x="7.3475" y="133">Diverse Culture &amp; </tspan>
                        <tspan x="4.4775" y="150">World-Class Talent</tspan>
                    </text>
                    <ellipse id="Oval-3-Copy-6" fill="#F7465B" cx="61.5233645" cy="50.5" rx="50.5233645" ry="50.5"></ellipse>
                    <path d="M60.4236286,25.616187 C46.7363136,25.616187 35.627768,36.7187055 35.627768,50.3985944 C35.627768,64.0784833 46.7363136,75.1810018 60.4236286,75.1810018 C74.1109436,75.1810018 85.2194891,64.0784833 85.2194891,50.3985944 C85.2194891,36.9169647 74.5076774,26.0127055 61.1179127,25.616187 C60.9195458,25.616187 60.6219955,25.616187 60.4236286,25.616187 Z M59.4317942,27.6979092 C59.4317942,27.6979092 59.4317942,27.6979092 59.4317942,27.6979092 L59.4317942,38.5030388 C56.5554743,38.4039092 53.8775214,38.1065203 51.3979353,37.6108722 C51.7946691,36.322187 52.2905863,35.1326314 52.885687,34.0422055 C54.6709889,30.3744092 57.0513915,28.1935573 59.4317942,27.6979092 Z M61.415463,27.6979092 C63.7958656,28.1935573 66.1762682,30.3744092 67.9615702,34.0422055 C68.4574874,35.1326314 68.9534046,36.322187 69.4493218,37.6108722 C66.9697358,38.1065203 64.2917828,38.4039092 61.415463,38.5030388 L61.415463,27.6979092 Z M54.3734386,28.3918166 C53.0840539,29.6805018 51.993036,31.2665759 51.100385,33.1500388 C50.5052844,34.3395944 49.9101837,35.7274092 49.5134499,37.115224 C47.3314142,36.5204462 45.3477454,35.8265388 43.6616269,34.9343722 C46.5379467,31.8613536 50.207734,29.5813722 54.3734386,28.3918166 Z M66.4738185,28.3918166 C70.6395231,29.4822425 74.4084939,31.762224 77.1856303,34.9343722 C75.4995118,35.8265388 73.5158429,36.6195759 71.3338072,37.115224 C70.83789,35.7274092 70.3419728,34.3395944 69.7468721,33.1500388 C68.7550377,31.2665759 67.6640198,29.6805018 66.4738185,28.3918166 Z M78.475015,36.4213166 C81.2521514,40.0891129 83.0374534,44.5499462 83.2358203,49.4072981 L73.317476,49.4072981 C73.2182926,45.6403722 72.8215588,42.1708351 71.9289079,38.998687 C74.4084939,38.4039092 76.5905296,37.5117425 78.475015,36.4213166 Z M42.3722421,36.5204462 C44.2567275,37.5117425 46.5379467,38.4039092 48.9183493,39.0978166 C48.1248817,42.2699647 47.6289645,45.7395018 47.5297811,49.5064277 L37.6114369,49.5064277 C37.8098038,44.5499462 39.5951057,40.0891129 42.3722421,36.5204462 Z M50.9020181,39.4943351 C53.5799711,40.0891129 56.4562909,40.3865018 59.4317942,40.4856314 L59.4317942,49.4072981 L49.5134499,49.4072981 C49.6126334,45.8386314 50.1085506,42.468224 50.9020181,39.4943351 Z M69.945239,39.4943351 C70.7387066,42.468224 71.2346238,45.8386314 71.2346238,49.4072981 L61.415463,49.4072981 L61.415463,40.4856314 C64.4901497,40.3865018 67.2672861,40.0891129 69.945239,39.4943351 Z M37.6114369,51.3898907 L47.5297811,51.3898907 C47.6289645,55.1568166 48.0256983,58.6263536 48.9183493,61.7985018 C46.4387632,62.4924092 44.2567275,63.2854462 42.3722421,64.3758722 C39.5951057,60.7080759 37.8098038,56.2472425 37.6114369,51.3898907 Z M49.5134499,51.3898907 L59.4317942,51.3898907 L59.4317942,60.3115573 C56.3571074,60.410687 53.5799711,60.7080759 50.9020181,61.3028536 C50.1085506,58.3289647 49.6126334,54.9585573 49.5134499,51.3898907 Z M61.415463,51.3898907 L71.3338072,51.3898907 C71.2346238,54.9585573 70.7387066,58.3289647 70.0444225,61.3028536 C67.3664695,60.7080759 64.4901497,60.410687 61.5146464,60.3115573 L61.5146464,51.3898907 L61.415463,51.3898907 Z M73.317476,51.3898907 L83.2358203,51.3898907 C83.0374534,56.2472425 81.3513349,60.7080759 78.475015,64.2767425 C76.5905296,63.2854462 74.3093105,62.3932796 71.9289079,61.6993722 C72.7223754,58.6263536 73.2182926,55.1568166 73.317476,51.3898907 Z M59.4317942,62.2941499 L59.4317942,73.0992796 C57.0513915,72.6036314 54.6709889,70.4227796 52.885687,66.7549833 C52.3897698,65.6645573 51.8938525,64.4750018 51.3979353,63.1863166 C53.8775214,62.6906685 56.5554743,62.3932796 59.4317942,62.2941499 Z M61.415463,62.2941499 C64.2917828,62.3932796 66.9697358,62.6906685 69.4493218,63.1863166 C69.052588,64.4750018 68.5566708,65.6645573 67.9615702,66.7549833 C66.1762682,70.4227796 63.7958656,72.6036314 61.415463,73.0992796 L61.415463,62.2941499 Z M49.5134499,63.6819647 C50.0093671,65.0697796 50.5052844,66.4575944 51.100385,67.6471499 C51.993036,69.5306129 53.1832373,71.116687 54.3734386,72.4053722 C50.207734,71.3149462 46.4387632,69.0349647 43.6616269,65.8628166 C45.3477454,64.9706499 47.3314142,64.2767425 49.5134499,63.6819647 Z M71.3338072,63.6819647 C73.5158429,64.2767425 75.4995118,64.9706499 77.1856303,65.8628166 C74.3093105,68.9358351 70.6395231,71.2158166 66.4738185,72.4053722 C67.7632033,71.116687 68.8542212,69.5306129 69.7468721,67.6471499 C70.3419728,66.4575944 70.83789,65.0697796 71.3338072,63.6819647 Z" id="Shape" fill="#FFFFFF" fill-rule="nonzero"></path>
                </g>
                <rect id="Rectangle-8" x="4" y="0" width="116" height="177"></rect>
            </g>
        </g>
    </g>
</svg>