<?xml version="1.0" encoding="UTF-8"?>
<svg width="105px" height="151px" viewBox="0 0 105 151" version="1.1" xmlns="http://www.w3.org/2000/svg" xmlns:xlink="http://www.w3.org/1999/xlink">
    <!-- Generator: Sketch 44.1 (41455) - http://www.bohemiancoding.com/sketch -->
    <title>Group 20</title>
    <desc>Created with Sketch.</desc>
    <defs></defs>
    <g id="v7-draft" stroke="none" stroke-width="1" fill="none" fill-rule="evenodd">
        <g id="top_desktop_Signout_v6_02-Copy" transform="translate(-425.000000, -2313.000000)">
            <g id="Group-20" transform="translate(419.000000, 2301.000000)">
                <g id="Group-6" transform="translate(0.000000, 12.000000)">
                    <g id="Group-9" transform="translate(6.000000, 6.000000)"></g>
                    <text id="Offsite-Company-Even" fill="#000000" font-family="Lato-Regular, Lato" font-size="14" font-weight="normal">
                        <tspan x="5.836" y="133">Offsite Company </tspan>
                        <tspan x="7.908" y="150">Events &amp; Parties</tspan>
                    </text>
                    <ellipse id="Oval-3-Copy-5" fill="#F7465B" cx="57.5233645" cy="50.5" rx="50.5233645" ry="50.5"></ellipse>
                    <path d="M57.5591491,28.9907407 C56.0650233,28.9907407 54.7576632,30.2973915 54.7576632,31.7907067 C54.7576632,32.6306964 55.1311947,33.2840218 55.598109,33.844015 L54.1039832,37.2039741 C54.0106003,37.2973063 54.0106003,37.3906385 53.9172175,37.3906385 C53.9172175,37.4839707 53.8238346,37.5773029 53.8238346,37.6706351 L50.2752858,45.6038719 C50.2752858,45.6038719 50.2752858,45.6038719 50.2752858,45.6972041 L50.2752858,45.6972041 C50.2752858,45.6972041 50.1819029,45.7905363 50.1819029,45.7905363 C50.1819029,45.8838685 50.1819029,45.8838685 50.0885201,45.9772007 L46.073057,54.9370917 C45.9796741,55.0304239 45.9796741,55.0304239 45.9796741,55.1237561 C45.8862913,55.2170883 45.8862913,55.4037527 45.7929084,55.4970848 L42.4311253,62.9636607 L42.4311253,62.9636607 C42.4311253,62.9636607 42.4311253,62.9636607 42.3377425,63.0569929 C42.3377425,63.0569929 42.2443596,63.150325 42.2443596,63.2436572 C42.1509767,63.3369894 42.1509767,63.5236538 42.0575939,63.616986 C42.0575939,63.616986 42.0575939,63.616986 42.0575939,63.616986 L38.8825765,70.6169009 C38.6958108,71.0835618 38.8825765,71.643555 39.3494908,71.8302194 C39.5362566,71.9235516 39.7230223,71.9235516 39.8164052,71.9235516 L54.5708975,71.9235516 C54.7576632,72.0168838 54.944429,72.0168838 55.1311947,71.9235516 L73.8077673,71.9235516 C74.0879159,72.0168838 74.3680644,72.0168838 74.648213,71.9235516 L75.3018931,71.9235516 C75.8621903,71.9235516 76.2357217,71.4568906 76.2357217,70.9902296 C76.2357217,70.8968974 76.2357217,70.7102331 76.1423388,70.6169009 L71.94011,61.4703455 C71.94011,61.3770133 71.94011,61.3770133 71.8467271,61.2836811 C71.7533443,61.0970167 71.6599614,61.0036845 71.6599614,60.8170201 L67.3643497,51.297136 C67.3643497,51.2038038 67.2709669,51.1104716 67.2709669,51.0171394 C67.177584,50.7371428 66.9908183,50.5504784 66.8974354,50.2704818 L59.5201892,33.844015 C59.9871036,33.2840218 60.360635,32.6306964 60.360635,31.7907067 C60.360635,30.2973915 59.0532749,28.9907407 57.5591491,28.9907407 Z M57.5591491,30.8573847 C58.1194463,30.8573847 58.4929777,31.2307135 58.4929777,31.7907067 C58.4929777,32.1640355 58.306212,32.4440321 58.1194463,32.5373642 C58.0260634,32.5373642 57.9326806,32.6306964 57.9326806,32.6306964 C57.7459148,32.7240286 57.652532,32.7240286 57.5591491,32.7240286 C57.4657663,32.7240286 57.3723834,32.7240286 57.3723834,32.7240286 C57.2790005,32.6306964 57.1856177,32.6306964 57.0922348,32.6306964 C56.8120862,32.4440321 56.6253205,32.1640355 56.6253205,31.7907067 C56.6253205,31.2307135 56.9988519,30.8573847 57.5591491,30.8573847 Z M57.3723834,34.5906726 C57.4657663,34.5906726 57.5591491,34.5906726 57.5591491,34.5906726 C57.5591491,34.5906726 57.7459148,34.5906726 57.7459148,34.5906726 L62.6018237,45.2305431 C61.3878465,44.2038889 60.0804864,43.3638992 58.9598921,42.6172416 C57.652532,41.6839196 56.5319376,40.937262 55.9716404,40.1906044 C55.4113433,39.4439469 55.3179604,39.0706181 55.6914919,38.1372961 C55.6914919,38.0439639 55.7848747,37.9506317 55.7848747,37.8572995 L57.3723834,34.5906726 Z M54.3841318,41.1239264 C54.4775146,41.2172586 54.4775146,41.3105908 54.5708975,41.403923 C55.4113433,42.4305772 56.7187034,43.3638992 58.0260634,44.2038889 C60.7341665,46.0705329 64.0025667,48.1238412 65.5900753,51.6704647 L65.5900753,51.7637969 C65.5900753,51.8571291 65.6834582,51.8571291 65.6834582,51.9504613 L67.9246469,56.8970678 C67.4577326,56.6170712 66.9908183,56.3370746 66.523904,56.057078 C64.1893324,54.6570951 61.4812294,53.5371087 59.0532749,52.5104545 C56.6253205,51.4838004 54.3841318,50.4571462 53.0767717,49.430492 C52.4230917,48.963831 51.9561773,48.4038378 51.8627945,47.9371768 C51.7694116,47.4705159 51.6760288,47.1905193 51.9561773,46.5371939 C51.9561773,46.4438617 51.9561773,46.4438617 52.0495602,46.3505295 L54.3841318,41.1239264 Z M50.5554344,49.5238242 C50.9289659,49.9904852 51.3958802,50.4571462 51.8627945,50.9238072 C53.4503031,52.2304579 55.7848747,53.1637799 58.306212,54.2837663 C60.8275493,55.4037527 63.3488866,56.4304068 65.5900753,57.7370576 C67.7378812,59.0437084 69.4187727,60.4436913 70.1658356,62.0303387 C70.1658356,62.1236709 70.2592185,62.2170031 70.3526013,62.2170031 L72.9673215,68.0969315 C71.7533443,67.0702773 70.0724527,66.1369554 68.2981784,65.3902978 C65.3099267,63.9903148 61.6679951,62.8703285 58.306212,61.8436743 C54.944429,60.8170201 51.7694116,59.7903659 49.8083715,58.6703796 C48.78116,58.1103864 48.12748,57.5503932 47.7539485,57.0837322 C47.3804171,56.6170712 47.3804171,56.3370746 47.5671828,55.8704136 L50.5554344,49.5238242 Z M46.5399713,58.4837152 C47.1002685,59.2303728 47.9407142,59.7903659 48.9679257,60.3503591 C51.2091144,61.5636777 54.4775146,62.5903319 57.8392977,63.616986 C61.2010808,64.6436402 64.7496296,65.7636266 67.6444983,67.0702773 C69.6989213,68.0035993 71.28643,69.0302535 72.4070243,70.0569077 L54.8510461,70.0569077 C51.489263,68.9369213 48.3142457,67.9102671 46.2598227,66.7902808 C45.2326112,66.2302876 44.4855483,65.6702944 44.2053997,65.2036334 C43.9252511,64.7369724 43.8318683,64.4569758 44.018634,63.9903148 C44.018634,63.8969826 44.1120169,63.8036504 44.1120169,63.7103182 L46.5399713,58.4837152 Z M42.8046568,66.5102842 C43.4583368,67.2569417 44.2987826,67.9102671 45.3259941,68.4702603 C46.3532056,69.0302535 47.6605656,69.5902467 49.0613086,70.0569077 L41.2171481,70.0569077 L42.8046568,66.5102842 Z" id="Shape" fill="#FFFFFF" fill-rule="nonzero"></path>
                </g>
                <rect id="Rectangle-8" x="0" y="0" width="116" height="177"></rect>
            </g>
        </g>
    </g>
</svg>