<?xml version="1.0" encoding="UTF-8"?>
<svg width="135px" height="152px" viewBox="0 0 135 152" version="1.1" xmlns="http://www.w3.org/2000/svg" xmlns:xlink="http://www.w3.org/1999/xlink">
    <!-- Generator: Sketch 44.1 (41455) - http://www.bohemiancoding.com/sketch -->
    <title>Group</title>
    <desc>Created with Sketch.</desc>
    <defs></defs>
    <g id="Page-1" stroke="none" stroke-width="1" fill="none" fill-rule="evenodd">
        <g id="v" transform="translate(-241.000000, -492.000000)">
            <g id="Group" transform="translate(237.000000, 489.000000)">
                <rect id="Rectangle-5-Copy-19" stroke="#F7455B" stroke-width="3" x="5.5" y="4.5" width="131.613198" height="148.258315" rx="8"></rect>
                <text id="Fully-Sponsored-Heal" fill="#000000" font-family="Lato-Regular, Lato" font-size="14" font-weight="normal">
                    <tspan x="23.329" y="99">Fully Sponsored </tspan>
                    <tspan x="28.698" y="116">Health Care &amp; </tspan>
                    <tspan x="34.6095" y="133">Benefit Plan</tspan>
                </text>
                <path d="M66.0869036,32.3012048 C65.6290355,32.3927711 65.3543147,32.7590361 65.3543147,33.2168675 L65.3543147,46.0361446 L52.5340102,46.0361446 C51.9845685,46.0361446 51.6182741,46.4024096 51.6182741,46.9518072 L51.6182741,57.939759 C51.6182741,58.4891566 51.9845685,58.8554217 52.5340102,58.8554217 L65.3543147,58.8554217 L65.3543147,71.6746988 C65.3543147,72.2240964 65.7206091,72.5903614 66.2700508,72.5903614 L77.2588832,72.5903614 C77.8083249,72.5903614 78.1746193,72.2240964 78.1746193,71.6746988 L78.1746193,58.8554217 L90.9949239,58.8554217 C91.5443655,58.8554217 91.9106599,58.4891566 91.9106599,57.939759 L91.9106599,46.9518072 C91.9106599,46.4024096 91.5443655,46.0361446 90.9949239,46.0361446 L78.1746193,46.0361446 L78.1746193,33.2168675 C78.1746193,32.6674699 77.8083249,32.3012048 77.2588832,32.3012048 L66.2700508,32.3012048 C66.2700508,32.3012048 66.1784772,32.3012048 66.0869036,32.3012048 C66.1784772,32.3012048 66.0869036,32.3012048 66.0869036,32.3012048 Z M67.1857868,34.1325301 L76.3431472,34.1325301 L76.3431472,46.9518072 C76.3431472,47.5012048 76.7094416,47.8674699 77.2588832,47.8674699 L90.0791878,47.8674699 L90.0791878,57.0240964 L77.2588832,57.0240964 C76.7094416,57.0240964 76.3431472,57.3903614 76.3431472,57.939759 L76.3431472,70.7590361 L67.1857868,70.7590361 L67.1857868,57.939759 C67.1857868,57.3903614 66.8194924,57.0240964 66.2700508,57.0240964 L53.4497462,57.0240964 L53.4497462,47.8674699 L66.2700508,47.8674699 C66.8194924,47.8674699 67.1857868,47.5012048 67.1857868,46.9518072 L67.1857868,34.1325301 Z" id="Shape" fill="#000000" fill-rule="nonzero"></path>
                <rect id="Rectangle-8" x="0" y="0" width="142" height="157"></rect>
            </g>
        </g>
    </g>
</svg>