<?xml version="1.0" encoding="UTF-8"?>
<svg width="102px" height="168px" viewBox="0 0 102 168" version="1.1" xmlns="http://www.w3.org/2000/svg" xmlns:xlink="http://www.w3.org/1999/xlink">
    <!-- Generator: Sketch 44.1 (41455) - http://www.bohemiancoding.com/sketch -->
    <title>Group 21</title>
    <desc>Created with Sketch.</desc>
    <defs></defs>
    <g id="v7-draft" stroke="none" stroke-width="1" fill="none" fill-rule="evenodd">
        <g id="top_desktop_Signout_v6_02-Copy" transform="translate(-45.000000, -2314.000000)">
            <g id="Group-21" transform="translate(32.000000, 2310.000000)">
                <g id="Group-19" transform="translate(0.000000, 4.000000)">
                    <g id="Group-15" transform="translate(12.000000, 6.000000)"></g>
                    <text id="Fully-Sponsored-Heal" fill="#000000" font-family="Lato-Regular, Lato" font-size="14" font-weight="normal">
                        <tspan x="14.329" y="133">Fully Sponsored </tspan>
                        <tspan x="19.698" y="150">Health Care &amp; </tspan>
                        <tspan x="25.6095" y="167">Benefit Plan</tspan>
                    </text>
                    <ellipse id="Oval-3" fill="#F7465B" cx="63.5233645" cy="50.5" rx="50.5233645" ry="50.5"></ellipse>
                    <path d="M57.196478,28.0555556 C56.6861001,28.1575758 56.3798734,28.5656566 56.3798734,29.0757576 L56.3798734,43.3585859 L42.0892917,43.3585859 C41.4768382,43.3585859 41.0685358,43.7666667 41.0685358,44.3787879 L41.0685358,56.6212121 C41.0685358,57.2333333 41.4768382,57.6414141 42.0892917,57.6414141 L56.3798734,57.6414141 L56.3798734,71.9242424 C56.3798734,72.5363636 56.7881757,72.9444444 57.4006292,72.9444444 L69.6496993,72.9444444 C70.2621528,72.9444444 70.6704551,72.5363636 70.6704551,71.9242424 L70.6704551,57.6414141 L84.9610368,57.6414141 C85.5734903,57.6414141 85.9817926,57.2333333 85.9817926,56.6212121 L85.9817926,44.3787879 C85.9817926,43.7666667 85.5734903,43.3585859 84.9610368,43.3585859 L70.6704551,43.3585859 L70.6704551,29.0757576 C70.6704551,28.4636364 70.2621528,28.0555556 69.6496993,28.0555556 L57.4006292,28.0555556 C57.4006292,28.0555556 57.2985536,28.0555556 57.196478,28.0555556 C57.2985536,28.0555556 57.196478,28.0555556 57.196478,28.0555556 Z M58.421385,30.0959596 L68.6289434,30.0959596 L68.6289434,44.3787879 C68.6289434,44.9909091 69.0372457,45.3989899 69.6496993,45.3989899 L83.940281,45.3989899 L83.940281,55.6010101 L69.6496993,55.6010101 C69.0372457,55.6010101 68.6289434,56.0090909 68.6289434,56.6212121 L68.6289434,70.9040404 L58.421385,70.9040404 L58.421385,56.6212121 C58.421385,56.0090909 58.0130827,55.6010101 57.4006292,55.6010101 L43.1100475,55.6010101 L43.1100475,45.3989899 L57.4006292,45.3989899 C58.0130827,45.3989899 58.421385,44.9909091 58.421385,44.3787879 L58.421385,30.0959596 Z" id="Shape" fill="#FFFFFF" fill-rule="nonzero"></path>
                </g>
                <rect id="Rectangle-8" x="5" y="0" width="116" height="177"></rect>
            </g>
        </g>
    </g>
</svg>