<?xml version="1.0" encoding="UTF-8"?>
<svg width="102px" height="151px" viewBox="0 0 102 151" version="1.1" xmlns="http://www.w3.org/2000/svg" xmlns:xlink="http://www.w3.org/1999/xlink">
    <!-- Generator: Sketch 44.1 (41455) - http://www.bohemiancoding.com/sketch -->
    <title>Group 21</title>
    <desc>Created with Sketch.</desc>
    <defs></defs>
    <g id="v7-draft" stroke="none" stroke-width="1" fill="none" fill-rule="evenodd">
        <g id="top_desktop_Signout_v6_02-Copy" transform="translate(-185.000000, -2325.000000)">
            <g id="Group-21" transform="translate(176.000000, 2313.000000)">
                <g id="Group-20" transform="translate(6.000000, 12.000000)">
                    <g id="Group-13" transform="translate(2.000000, 6.000000)"></g>
                    <g id="Group-12">
                        <text id="Commuter-Benefits" fill="#000000" font-family="Lato-Regular, Lato" font-size="14" font-weight="normal">
                            <tspan x="19.9185" y="133">Commuter </tspan>
                            <tspan x="27.09" y="150">Benefits</tspan>
                        </text>
                        <ellipse id="Oval-3-Copy-3" fill="#F7465B" cx="53.5233645" cy="50.5" rx="50.5233645" ry="50.5"></ellipse>
                        <path d="M50.9392007,25.25 C48.8159483,25.25 47.0284737,26.8520692 46.723261,28.8945319 L44.2544674,28.8945319 C39.6052318,28.8945319 35.7466251,32.5473916 35.7466251,37.0188011 L35.7466251,63.2898021 C35.7466251,66.7056263 37.924002,69.5476457 40.9500823,70.7686854 L38.1774372,72.8566985 C37.6320465,73.2655524 37.5215148,74.0389161 37.9305579,74.5840547 C38.339601,75.1291933 39.1133225,75.2396738 39.6587133,74.8308199 L44.1405231,71.4140712 C44.1780536,71.4145402 44.2168372,71.4140712 44.2544674,71.4140712 L63.7009641,71.4140712 C63.7387936,71.4140712 63.7771847,71.4145535 63.8149084,71.4140712 L68.2967182,74.8308199 C68.842109,75.2396738 69.6158306,75.1291933 70.0248736,74.5840547 C70.4339167,74.0389161 70.3233851,73.2655524 69.7779943,72.8566985 L67.0053493,70.7686854 C70.0519785,69.5317215 72.2088064,66.6433595 72.2088064,63.2898021 L72.2088064,37.0188011 C72.2088064,32.4479506 68.3256461,28.8945319 63.7009641,28.8945319 L61.2321706,28.8945319 C60.9269578,26.8520692 59.1394833,25.25 57.0162309,25.25 C55.8300857,25.25 54.7521275,25.7477727 53.9777158,26.5407717 C53.203304,25.7477727 52.1253458,25.25 50.9392007,25.25 Z M50.9392007,27.679688 C51.9604723,27.679688 52.7623097,28.4811547 52.7623097,29.5019539 C52.7623097,30.5227532 51.9604723,31.3242199 50.9392007,31.3242199 C49.917929,31.3242199 49.1160916,30.5227532 49.1160916,29.5019539 C49.1160916,28.4811547 49.917929,27.679688 50.9392007,27.679688 Z M57.0162309,27.679688 C58.0375026,27.679688 58.83934,28.4811547 58.83934,29.5019539 C58.83934,30.5227532 58.0375026,31.3242199 57.0162309,31.3242199 C55.9949592,31.3242199 55.1931218,30.5227532 55.1931218,29.5019539 C55.1931218,28.4811547 55.9949592,27.679688 57.0162309,27.679688 Z M44.2544674,31.3242199 L47.1410568,31.3242199 C47.8345505,32.7397585 49.267107,33.7539079 50.9392007,33.7539079 C52.1253458,33.7539079 53.203304,33.2561353 53.9777158,32.4631361 C54.7521275,33.2561353 55.8300857,33.7539079 57.0162309,33.7539079 C58.6883245,33.7539079 60.1208811,32.7397585 60.8143748,31.3242199 L63.7009641,31.3242199 C67.097962,31.3242199 69.7779943,33.8146501 69.7779943,37.0188011 L69.7779943,63.2898021 C69.7779943,66.3504254 67.0734084,68.9843833 63.7009641,68.9843833 L44.2544674,68.9843833 C40.8574695,68.9843833 38.1774372,66.4939531 38.1774372,63.2898021 L38.1774372,37.0188011 C38.1774372,33.9581778 40.8820232,31.3242199 44.2544674,31.3242199 Z M44.2544674,38.6132838 C42.3282336,38.6132838 40.6082493,40.0862821 40.6082493,42.0300325 L40.6082493,49.6607712 C40.6082493,51.6045216 42.3282336,53.0775199 44.2544674,53.0775199 L63.7009641,53.0775199 C65.627198,53.0775199 67.3471823,51.6045216 67.3471823,49.6607712 L67.3471823,42.0300325 C67.3471823,40.0862821 65.627198,38.6132838 63.7009641,38.6132838 L44.2544674,38.6132838 Z M44.2544674,41.0429717 L63.7009641,41.0429717 C64.4486236,41.0429717 64.9163702,41.5440949 64.9163702,42.0300325 L64.9163702,49.6607712 C64.9163702,50.1467088 64.4486236,50.647832 63.7009641,50.647832 L44.2544674,50.647832 C43.506808,50.647832 43.0390614,50.1467088 43.0390614,49.6607712 L43.0390614,42.0300325 C43.0390614,41.5440949 43.506808,41.0429717 44.2544674,41.0429717 Z M45.4698735,56.8359435 C42.7992691,56.8359435 40.6082493,59.02595 40.6082493,61.6953194 C40.6082493,64.3646888 42.7992691,66.5546953 45.4698735,66.5546953 C48.1404779,66.5546953 50.3314976,64.3646888 50.3314976,61.6953194 C50.3314976,59.02595 48.1404779,56.8359435 45.4698735,56.8359435 Z M62.4855581,56.8359435 C59.8149537,56.8359435 57.6239339,59.02595 57.6239339,61.6953194 C57.6239339,64.3646888 59.8149537,66.5546953 62.4855581,66.5546953 C65.1561625,66.5546953 67.3471823,64.3646888 67.3471823,61.6953194 C67.3471823,59.02595 65.1561625,56.8359435 62.4855581,56.8359435 Z M45.4698735,59.2656314 C46.8267698,59.2656314 47.9006856,60.3390506 47.9006856,61.6953194 C47.9006856,63.0515882 46.8267698,64.1250074 45.4698735,64.1250074 C44.1129772,64.1250074 43.0390614,63.0515882 43.0390614,61.6953194 C43.0390614,60.3390506 44.1129772,59.2656314 45.4698735,59.2656314 Z M62.4855581,59.2656314 C63.8424544,59.2656314 64.9163702,60.3390506 64.9163702,61.6953194 C64.9163702,63.0515882 63.8424544,64.1250074 62.4855581,64.1250074 C61.1286618,64.1250074 60.054746,63.0515882 60.054746,61.6953194 C60.054746,60.3390506 61.1286618,59.2656314 62.4855581,59.2656314 Z" id="Shape" fill="#FFFFFF" fill-rule="nonzero"></path>
                    </g>
                </g>
                <rect id="Rectangle-8" x="0" y="0" width="116" height="177"></rect>
            </g>
        </g>
    </g>
</svg>