<?xml version="1.0" encoding="UTF-8"?>
<svg width="102px" height="134px" viewBox="0 0 102 134" version="1.1" xmlns="http://www.w3.org/2000/svg" xmlns:xlink="http://www.w3.org/1999/xlink">
    <!-- Generator: Sketch 44.1 (41455) - http://www.bohemiancoding.com/sketch -->
    <title>Group 20</title>
    <desc>Created with Sketch.</desc>
    <defs></defs>
    <g id="v7-draft" stroke="none" stroke-width="1" fill="none" fill-rule="evenodd">
        <g id="top_desktop_Signout_v6_02-Copy" transform="translate(-311.000000, -2322.000000)">
            <g id="Group-20" transform="translate(303.000000, 2301.000000)">
                <g id="Group-10" transform="translate(7.000000, 21.000000)">
                    <g id="Group-11" transform="translate(0.000000, 6.000000)"></g>
                    <text id="401k-Plan" fill="#000000" font-family="Lato-Regular, Lato" font-size="14" font-weight="normal">
                        <tspan x="20.2525" y="133">401k Plan</tspan>
                    </text>
                    <ellipse id="Oval-3-Copy-4" fill="#F7465B" cx="51.5233645" cy="50.5" rx="50.5233645" ry="50.5"></ellipse>
                    <path d="M44.7248137,27.1203704 C40.3694922,27.1203704 36.7577621,30.7301409 36.7577621,35.0830995 C36.7577621,36.3571361 37.0764442,37.525003 37.6075809,38.4805305 L39.5196733,37.525003 C39.2009913,36.781815 38.9885366,35.9324572 38.9885366,34.9769297 C38.9885366,31.6856684 41.5379931,29.1375951 44.8310411,29.1375951 C48.0178618,29.1375951 50.6735456,31.7918381 50.6735456,34.9769297 L52.7980928,34.9769297 C52.6918654,30.6239712 49.0801353,27.1203704 44.7248137,27.1203704 Z M64.5893292,31.6856684 C64.5893292,31.6856684 64.4831018,31.6856684 64.4831018,31.6856684 C64.4831018,31.6856684 64.4831018,31.6856684 64.3768745,31.6856684 C61.7211906,32.3226867 58.6405973,34.0214022 56.6222775,37.6311728 C54.7101851,37.2064939 52.9043201,36.8879847 50.779773,36.8879847 C44.7248137,36.8879847 40.0508101,38.7990397 36.3328527,41.6656222 C34.4207603,43.1519983 32.9335773,45.169223 32.0837585,47.6111266 C31.7650764,47.5049568 31.340167,47.2926174 30.8090302,46.9741082 C30.0654387,46.5494293 29.3218472,45.7000716 29.3218472,44.3198652 C29.3218472,43.1519983 29.852984,42.1964708 30.7028028,41.8779616 C31.2339396,41.6656222 31.5526217,41.0286038 31.340167,40.4977552 C31.1277123,40.0730764 30.7028028,39.7545672 30.2778934,39.7545672 C30.1716661,39.7545672 29.9592113,39.7545672 29.852984,39.8607369 C28.1533463,40.603925 27.1973001,42.4088102 27.1973001,44.3198652 C27.1973001,46.5494293 28.4720284,48.0358054 29.6405293,48.8851632 C30.3841208,49.4160118 31.0214849,49.6283513 31.4463943,49.734521 C31.1277123,51.3270668 30.9152575,53.0257823 31.0214849,54.9368373 C31.2339396,59.7144748 34.4207603,63.1119058 36.8639894,65.0229608 C36.8639894,65.0229608 36.8639894,65.0229608 36.8639894,65.0229608 C37.0764442,65.2353003 37.1826715,65.34147 37.1826715,65.34147 C37.1826715,65.34147 37.2888989,65.34147 37.1826715,65.5538094 C36.8639894,66.5093369 36.2266253,67.995713 36.2266253,67.995713 C36.2266253,67.995713 36.2266253,67.995713 36.2266253,67.995713 C35.6954885,69.4820891 36.43908,71.1808047 37.926263,71.7116533 C37.926263,71.7116533 37.926263,71.7116533 37.926263,71.7116533 L41.3255384,72.9856899 C42.8127213,73.5165385 44.512359,72.7733505 45.0434958,71.2869744 C45.0434958,71.2869744 45.4684052,70.1191074 45.8933147,69.0574102 C45.999542,68.9512405 45.999542,68.8450708 45.999542,68.8450708 C45.999542,68.8450708 45.999542,68.8450708 46.1057694,68.8450708 C46.7431335,68.9512405 48.3365438,69.3759194 50.779773,69.3759194 C53.3292295,69.3759194 54.8164125,69.16358 55.4537766,69.0574102 C55.560004,69.0574102 55.6662313,69.0574102 55.6662313,69.0574102 C55.6662313,69.0574102 55.6662313,69.0574102 55.6662313,69.16358 C55.6662313,69.16358 55.6662313,69.16358 55.6662313,69.16358 C55.9849134,70.2252772 56.4098228,71.0746349 56.4098228,71.1808047 C56.4098228,71.1808047 56.4098228,71.1808047 56.4098228,71.1808047 C56.9409596,72.6671808 58.6405973,73.4103688 60.1277803,72.7733505 L63.5270556,71.4993138 C63.5270556,71.4993138 63.5270556,71.4993138 63.5270556,71.4993138 C65.0142386,70.9684652 65.7578301,69.2697497 65.2266933,67.7833736 L64.6955566,66.4031672 C64.6955566,66.2969975 64.5893292,66.2969975 64.5893292,66.1908278 C64.5893292,66.1908278 64.5893292,66.1908278 64.5893292,66.1908278 C64.5893292,66.1908278 64.4831018,66.2969975 64.8017839,66.084658 C67.3512404,64.7044517 69.3695602,62.4748875 70.6442885,59.9268142 C70.7505158,59.7144748 70.8567432,59.5021353 70.9629705,59.3959656 C71.0691979,59.2897959 71.0691979,59.2897959 71.3878799,59.2897959 L73.0875176,59.2897959 C74.5747006,59.2897959 75.8494289,58.0157592 75.8494289,56.5293831 L75.8494289,51.3270668 C75.8494289,49.8406907 74.5747006,48.566654 73.0875176,48.566654 L71.3878799,48.566654 C71.0691979,48.566654 71.0691979,48.566654 71.0691979,48.566654 C70.5380611,45.4877321 68.5197413,41.6656222 63.9519651,39.7545672 C63.9519651,37.525003 64.4831018,35.8262875 65.5453754,32.959705 C65.7578301,32.4288564 65.5453754,31.7918381 65.0142386,31.5794987 C64.9080113,31.7918381 64.6955566,31.6856684 64.5893292,31.6856684 Z M62.8896915,34.7645903 C62.2523274,36.781815 61.827418,38.5867003 61.827418,40.603925 C61.827418,41.0286038 62.1461,41.4532827 62.5710094,41.5594524 C67.0325584,43.1519983 68.6259687,46.5494293 69.0508781,49.2036724 C69.2633328,50.2653696 70.3256064,50.9023879 71.4941073,50.9023879 L73.193745,50.9023879 C73.6186544,50.9023879 73.8311091,51.2208971 73.8311091,51.5394062 L73.8311091,56.7417226 C73.8311091,57.1664015 73.512427,57.3787409 73.193745,57.3787409 L71.4941073,57.3787409 C70.7505158,57.3787409 70.0069243,57.6972501 69.5820149,58.121929 C69.1571055,58.5466078 68.9446508,58.9712867 68.8384234,59.2897959 C67.7761499,61.51936 66.1827395,63.3242453 63.9519651,64.4921122 C63.1021462,64.9167911 62.6772368,65.7661489 62.6772368,66.4031672 C62.6772368,66.9340158 62.8896915,67.252525 62.8896915,67.3586947 L62.8896915,67.3586947 L62.9959189,67.5710341 L63.4208283,68.8450708 C63.5270556,69.2697497 63.4208283,69.6944286 62.9959189,69.8005983 L59.5966435,71.0746349 C59.1717341,71.1808047 58.7468247,70.9684652 58.6405973,70.6499561 C58.6405973,70.6499561 58.6405973,70.6499561 58.6405973,70.6499561 C58.6405973,70.6499561 58.2156879,69.6944286 57.8970058,68.7389011 C57.7907785,68.3142222 57.4720964,67.7833736 57.047187,67.4648644 C56.6222775,67.1463553 55.9849134,67.1463553 55.560004,67.252525 C54.6039578,67.3586947 53.4354569,67.5710341 50.9922277,67.5710341 C48.7614532,67.5710341 47.5929523,67.252525 46.6369061,67.0401855 C46.2119967,66.9340158 45.5746326,66.9340158 45.0434958,67.252525 C44.512359,67.5710341 44.2999043,68.1018827 44.0874496,68.6327313 C43.7687675,69.5882588 43.2376308,70.7561258 43.2376308,70.7561258 C43.1314034,71.1808047 42.6002666,71.3931441 42.2815846,71.1808047 L38.8823092,69.906768 C38.4573998,69.8005983 38.2449451,69.2697497 38.4573998,68.9512405 C38.4573998,68.9512405 39.0947639,67.4648644 39.413446,66.4031672 C39.6259007,65.6599792 39.5196733,64.9167911 39.2009913,64.3859425 C38.8823092,63.8550939 38.4573998,63.6427545 38.3511724,63.5365847 C36.2266253,61.8378692 33.4647141,58.7589473 33.3584867,54.9368373 C33.146032,49.5221815 34.951897,45.8062413 37.8200356,43.5766772 C41.219311,40.9224341 45.3621779,39.3298883 50.8860004,39.3298883 C53.0105475,39.3298883 55.0288672,39.5422277 56.9409596,40.0730764 C57.4720964,40.1792461 58.0032332,39.9669066 58.2156879,39.436058 C59.2779614,36.6756453 61.0838265,35.5077783 62.8896915,34.7645903 Z M63.8457377,48.8851632 C62.6772368,48.8851632 61.827418,49.8406907 61.827418,50.9023879 C61.827418,52.0702548 62.6772368,52.9196126 63.8457377,52.9196126 C65.0142386,52.9196126 65.8640575,51.9640851 65.8640575,50.9023879 C65.8640575,49.734521 64.9080113,48.8851632 63.8457377,48.8851632 Z" id="Shape" fill="#FFFFFF" fill-rule="nonzero"></path>
                </g>
                <rect id="Rectangle-8" x="0" y="0" width="116" height="177"></rect>
            </g>
        </g>
    </g>
</svg>