<?xml version="1.0" encoding="UTF-8"?>
<svg width="102px" height="151px" viewBox="0 0 102 151" version="1.1" xmlns="http://www.w3.org/2000/svg" xmlns:xlink="http://www.w3.org/1999/xlink">
    <!-- Generator: Sketch 44.1 (41455) - http://www.bohemiancoding.com/sketch -->
    <title>Group 17</title>
    <desc>Created with Sketch.</desc>
    <defs></defs>
    <g id="v7-draft" stroke="none" stroke-width="1" fill="none" fill-rule="evenodd">
        <g id="top_desktop_Signout_v6_02-Copy" transform="translate(-928.000000, -2318.000000)">
            <g id="Group-17" transform="translate(921.000000, 2306.000000)">
                <g id="Group-16" transform="translate(6.000000, 12.000000)">
                    <g id="Group-4" transform="translate(0.000000, 6.000000)">
                        <g id="icons8-diploma_2" transform="translate(28.068536, 25.250000)"></g>
                    </g>
                    <text id="Continuous-Education" fill="#000000" font-family="Lato-Regular, Lato" font-size="14" font-weight="normal">
                        <tspan x="16.1675" y="133">Continuous </tspan>
                        <tspan x="20.9415" y="150">Education</tspan>
                    </text>
                    <ellipse id="Oval-3-Copy-8" fill="#F7465B" cx="51.5233645" cy="50.5" rx="50.5233645" ry="50.5"></ellipse>
                    <path d="M36.8719869,25.429078 C32.585156,25.429078 29.0685358,28.944072 29.0685358,33.2289204 L29.0685358,36.57171 C29.0685974,37.1870751 29.5676648,37.6859117 30.1833146,37.6859732 L35.7572082,37.6859732 L35.7572082,71.1138692 C35.7572697,71.7292343 36.2563371,72.2280709 36.8719869,72.2281324 L52.4788891,72.2281324 L52.4788891,69.999606 L37.9867656,69.999606 L37.9867656,37.6859732 L59.1675615,37.6859732 C59.7832113,37.6859117 60.2822786,37.1870751 60.2823402,36.57171 L60.2823402,33.2289204 C60.2823402,30.1596317 62.7855257,27.6576044 65.8562338,27.6576044 C65.8920784,27.6576044 65.9250569,27.6569256 65.9607443,27.6576044 C68.9822518,27.7150751 71.4301275,30.19546 71.4301275,33.2289204 L71.4301275,69.999606 L65.8562338,69.999606 L65.8562338,72.2281324 L72.5449062,72.2281324 C73.160556,72.2280709 73.6596234,71.7292343 73.6596849,71.1138692 L73.6596849,33.2289204 C73.6596849,29.0021801 70.2380088,25.5226231 66.030418,25.429078 C65.9725733,25.4277919 65.9143684,25.429078 65.8562338,25.429078 L36.8719869,25.429078 Z M36.8719869,27.6576044 L60.4565244,27.6576044 C58.9888892,29.0785478 58.0527827,31.0414309 58.0527827,33.2289204 L58.0527827,35.4574468 L31.2980933,35.4574468 L31.2980933,33.2289204 C31.2980933,30.1596317 33.8012782,27.6576044 36.8719869,27.6576044 Z M43.5606593,41.0287628 L43.5606593,43.2572892 L65.8562338,43.2572892 L65.8562338,41.0287628 L43.5606593,41.0287628 Z M43.5606593,47.714342 L43.5606593,49.9428684 L65.8562338,49.9428684 L65.8562338,47.714342 L43.5606593,47.714342 Z M59.1675615,54.3999212 C58.3073157,54.3999212 57.5963767,54.87674 57.0773514,55.5490051 C56.3015289,55.3790109 55.4660335,55.4167777 54.7781202,55.9668538 C54.0941076,56.5138111 53.9158021,57.3605709 53.9420362,58.1605595 C53.2187577,58.5551513 52.620816,59.1548934 52.4788891,60.0060579 C52.3380725,60.8505691 52.7164005,61.5997496 53.2452995,62.1997636 C52.9297926,62.992193 52.8995899,63.8755887 53.3149732,64.5675729 C53.390602,64.6935637 53.4998469,64.7767468 53.5936678,64.8809594 L53.5936678,74.4566588 C53.5904279,74.8786846 53.8259857,75.2663285 54.2021561,75.458013 C54.5783265,75.6496974 55.030556,75.612528 55.3703464,75.3619976 L59.1675615,72.5066982 L62.9647765,75.3619976 C63.304567,75.612528 63.7567965,75.6496974 64.1329669,75.458013 C64.5091373,75.2663285 64.7446951,74.8786846 64.7414551,74.4566588 L64.7414551,64.8809594 C64.835276,64.7767468 64.944521,64.6935637 65.0201498,64.5675729 C65.5028133,63.7635061 65.4003395,62.9386259 65.0898235,62.1997636 C65.6187224,61.5997496 65.9970505,60.8505691 65.8562338,60.0060579 C65.7143069,59.1548934 65.1163652,58.5551513 64.3930868,58.1605595 C64.4193175,57.3605709 64.2410153,56.5138111 63.5570027,55.9668538 C62.8690895,55.4167777 62.033594,55.3790109 61.2577716,55.5490051 C60.7509207,54.9070469 60.0432046,54.3999212 59.1675615,54.3999212 Z M61.3971189,55.7579295 C61.4469941,55.794923 61.536056,55.8619794 61.5016294,55.8275709 L61.4667926,55.8623916 C61.4453064,55.825524 61.4203766,55.7938076 61.3971189,55.7579295 Z M59.1675615,56.6284476 C59.5232294,56.6284476 59.56158,56.6956934 59.6552772,56.9766548 C59.7102876,57.1478044 59.8059054,57.3031115 59.9339719,57.4293243 C59.9897108,57.4850374 60.0582541,57.5610781 60.3520139,57.7078901 C60.6457737,57.854702 60.8885011,57.847173 60.9442401,57.847173 C61.15075,57.8565227 61.355794,57.8082994 61.5364663,57.7078901 C61.700244,57.6096678 62.0024638,57.5790968 62.1635293,57.7078901 C62.3529046,57.8593196 62.3504019,57.9135886 62.233203,58.2650217 C62.1876733,58.3876223 62.1640889,58.5172764 62.1635293,58.6480496 C62.1635293,58.8020698 62.2426452,58.8232753 62.3028766,58.9614362 C62.3415332,59.4640654 62.7129605,59.8781582 63.2086344,59.9712372 C63.3821809,60.0001523 63.5977523,60.2156196 63.6266764,60.3890859 C63.6589046,60.582356 63.5465907,60.8131756 63.3828185,60.9113968 C63.0588513,61.1144696 62.8616136,61.4693333 62.860266,61.8515563 L62.860266,62.1997636 C62.8577329,62.4369079 62.9309566,62.6686757 63.069287,62.8613574 C63.1005008,62.9029528 63.1461622,63.3484609 63.1041239,63.418489 C63.0058561,63.5821909 62.7749308,63.6944463 62.5815713,63.662234 C62.1717758,63.5890714 61.7553351,63.7501997 61.5016294,64.0800827 C61.501448,64.0916889 61.501448,64.1032973 61.5016294,64.1149035 C61.4612187,64.1461474 61.4778066,64.1415566 61.4319558,64.1845449 C61.4190578,64.1966347 61.4100727,64.1715972 61.3971189,64.1845449 C61.176822,64.3930118 61.0510268,64.6822069 61.0487506,64.9854216 C61.0487506,65.2825588 61.0507572,65.2865412 60.8048927,65.3684496 C60.7568758,65.3883871 60.710313,65.4116577 60.6655454,65.438091 C60.6588601,65.4345766 60.6864475,65.438091 60.6307086,65.438091 C60.5563863,65.438091 60.3370926,65.3535407 60.1778297,65.1943459 C59.9634583,64.9869307 59.6748579,64.8740523 59.3765825,64.8809594 L59.1675615,64.8809594 L58.9585405,64.8809594 C58.660265,64.8740523 58.3716646,64.9869307 58.1572933,65.1943459 C57.9741373,65.3774172 57.776069,65.4503579 57.5302302,65.3684496 C57.3938281,65.2936624 57.2863724,65.1420848 57.2863724,64.9854216 C57.2863724,64.7718541 57.1805576,64.4861269 57.0425145,64.2890071 C56.9182713,64.1115997 56.8026398,64.0253412 56.728983,63.9756206 C56.4739614,63.7191668 56.1103062,63.6023317 55.7535516,63.662234 C55.5601921,63.6944474 55.3292657,63.5821854 55.2309991,63.418489 C55.0989948,63.1985836 55.0568517,63.1137614 55.2309991,62.8961781 C55.3890434,62.6984528 55.4750459,62.4528449 55.4748569,62.1997636 L55.4748569,61.8515563 C55.4735094,61.4693333 55.2762716,61.1144696 54.9523044,60.9113968 C54.7885267,60.8131756 54.6762194,60.582356 54.7084466,60.3890859 C54.7373706,60.2156196 54.9529421,60.0001479 55.1264886,59.9712372 C55.6221625,59.8781582 55.9935898,59.4640654 56.0322463,58.9614362 C56.0924778,58.8232753 56.1715936,58.8020698 56.1715936,58.6480496 C56.171034,58.5172764 56.1474496,58.3876223 56.10192,58.2650217 C55.9847211,57.9135886 55.9822184,57.8593196 56.1715936,57.7078901 C56.3326591,57.5790968 56.634879,57.6096678 56.7986567,57.7078901 C57.1435766,57.906911 57.5685155,57.906911 57.9134354,57.7078901 C57.925047,57.7080714 57.9366607,57.7080714 57.9482722,57.7078901 C57.9601397,57.6965411 57.9717548,57.6849313 57.9831091,57.6730693 C58.0067323,57.6622772 58.0299711,57.6506632 58.0527827,57.6382486 C58.3465913,57.5171328 58.5747208,57.2764408 58.6798458,56.9766548 C58.7382903,56.8014024 58.994151,56.6284476 59.1675615,56.6284476 Z M55.8232253,66.7264578 C56.0750661,67.0485802 56.3790205,67.3038445 56.7638198,67.4576931 C56.7751741,67.469555 56.7867892,67.4811648 56.7986567,67.4925138 C57.6453289,67.7746073 58.4560896,67.5255294 59.1327246,67.1094858 C59.1413084,67.1042488 59.1590223,67.1148343 59.1675615,67.1094858 L59.3765825,67.1094858 C59.7719622,67.3400514 60.1240182,67.6666174 60.6307086,67.6666174 C60.8238272,67.6666174 61.2059232,67.5835602 61.5364663,67.4576931 C61.5531802,67.4394359 61.5822447,67.4319904 61.6061399,67.4228723 C61.6295169,67.4126211 61.6533174,67.4341153 61.6758136,67.4228723 L61.6758136,67.3880516 C62.0204586,67.2431684 62.295547,67.0273312 62.5118977,66.7612786 L62.5118977,72.2281324 L59.8294613,70.2085303 C59.4359493,69.9183373 58.8991737,69.9183373 58.5056616,70.2085303 L55.8232253,72.2281324 L55.8232253,66.7264578 Z" id="Shape" fill="#FFFFFF" fill-rule="nonzero"></path>
                </g>
                <rect id="Rectangle-8" x="0" y="0" width="116" height="177"></rect>
            </g>
        </g>
    </g>
</svg>