<?xml version="1.0" encoding="UTF-8"?>
<svg width="102px" height="153px" viewBox="0 0 102 153" version="1.1" xmlns="http://www.w3.org/2000/svg" xmlns:xlink="http://www.w3.org/1999/xlink">
    <!-- Generator: Sketch 44.1 (41455) - http://www.bohemiancoding.com/sketch -->
    <title>Group 19</title>
    <desc>Created with Sketch.</desc>
    <defs></defs>
    <g id="v7-draft" stroke="none" stroke-width="1" fill="none" fill-rule="evenodd">
        <g id="top_desktop_Signout_v6_02-Copy" transform="translate(-675.000000, -2325.000000)">
            <g id="Group-19" transform="translate(668.000000, 2313.000000)">
                <g id="Group-18" transform="translate(7.000000, 12.000000)">
                    <text id="Gym-Membership" fill="#000000" font-family="Lato-Regular, Lato" font-size="14" font-weight="normal">
                        <tspan x="36.6535" y="133">Gym </tspan>
                        <tspan x="12.472" y="150">Membership</tspan>
                    </text>
                    <ellipse id="Oval-3-Copy-9" fill="#F7465B" cx="50.5233645" cy="50.5" rx="50.5233645" ry="50.5"></ellipse>
                    <path d="M36.6013707,31.7962963 C34.6929322,31.7962963 33.1208723,33.3803013 33.1208723,35.3032407 L33.1208723,36.4722222 L29.6403738,36.4722222 C27.7319356,36.4722222 26.1598754,38.0562272 26.1598754,39.9791667 L26.1598754,45.8240741 L23.8395431,45.8240741 C22.5714086,45.8240741 21.5192108,46.8842666 21.5192108,48.162037 L21.5192108,52.837963 C21.5192108,54.1157334 22.5714086,55.1759259 23.8395431,55.1759259 L26.1598754,55.1759259 L26.1598754,61.0208333 C26.1598754,62.9437728 27.7319356,64.5277778 29.6403738,64.5277778 L33.1208723,64.5277778 L33.1208723,65.6967593 C33.1208723,67.6196987 34.6929322,69.2037037 36.6013707,69.2037037 L40.0818692,69.2037037 C41.9903077,69.2037037 43.5623676,67.6196987 43.5623676,65.6967593 L43.5623676,55.1759259 L57.4843614,55.1759259 L57.4843614,65.6967593 C57.4843614,67.6196987 59.0564213,69.2037037 60.9648598,69.2037037 L64.4453583,69.2037037 C66.3537968,69.2037037 67.9258567,67.6196987 67.9258567,65.6967593 L67.9258567,64.5277778 L71.4063551,64.5277778 C73.3147936,64.5277778 74.8868536,62.9437728 74.8868536,61.0208333 L74.8868536,55.1759259 L77.2071859,55.1759259 C78.4753206,55.1759259 79.5275182,54.1157334 79.5275182,52.837963 L79.5275182,48.162037 C79.5275182,46.8842666 78.4753206,45.8240741 77.2071859,45.8240741 L74.8868536,45.8240741 L74.8868536,39.9791667 C74.8868536,38.0562272 73.3147936,36.4722222 71.4063551,36.4722222 L67.9258567,36.4722222 L67.9258567,35.3032407 C67.9258567,33.3803013 66.3537968,31.7962963 64.4453583,31.7962963 L60.9648598,31.7962963 C59.0564213,31.7962963 57.4843614,33.3803013 57.4843614,35.3032407 L57.4843614,45.8240741 L43.5623676,45.8240741 L43.5623676,35.3032407 C43.5623676,33.3803013 41.9903077,31.7962963 40.0818692,31.7962963 L36.6013707,31.7962963 Z M36.6013707,34.1342593 L40.0818692,34.1342593 C40.7373978,34.1342593 41.2420353,34.6427311 41.2420353,35.3032407 L41.2420353,45.8240741 L41.2420353,46.9930556 L41.2420353,55.1759259 L41.2420353,65.6967593 C41.2420353,66.3572689 40.7373978,66.8657407 40.0818692,66.8657407 L36.6013707,66.8657407 C35.945842,66.8657407 35.4412046,66.3572689 35.4412046,65.6967593 L35.4412046,63.5551489 C35.4619124,63.428909 35.4619124,63.3000999 35.4412046,63.1738599 L35.4412046,37.8375564 C35.4619124,37.7113164 35.4619124,37.5825073 35.4412046,37.4562673 L35.4412046,35.3032407 C35.4412046,34.6427311 35.945842,34.1342593 36.6013707,34.1342593 Z M60.9648598,34.1342593 L64.4453583,34.1342593 C65.1008869,34.1342593 65.6055244,34.6427311 65.6055244,35.3032407 L65.6055244,37.4448511 C65.5848165,37.571091 65.5848165,37.6999001 65.6055244,37.8261401 L65.6055244,63.1624436 C65.5848165,63.2886836 65.5848165,63.4174927 65.6055244,63.5437327 L65.6055244,65.6967593 C65.6055244,66.3572689 65.1008869,66.8657407 64.4453583,66.8657407 L60.9648598,66.8657407 C60.3093311,66.8657407 59.8046937,66.3572689 59.8046937,65.6967593 L59.8046937,35.3032407 C59.8046937,34.6427311 60.3093311,34.1342593 60.9648598,34.1342593 Z M29.6403738,38.8101852 L33.1208723,38.8101852 L33.1208723,62.1898148 L29.6403738,62.1898148 C28.9848449,62.1898148 28.4802077,61.6813429 28.4802077,61.0208333 L28.4802077,54.2032971 C28.5009155,54.0770571 28.5009155,53.9482481 28.4802077,53.8220081 L28.4802077,47.1894082 C28.5009155,47.0631682 28.5009155,46.9343592 28.4802077,46.8081192 L28.4802077,39.9791667 C28.4802077,39.3186571 28.9848449,38.8101852 29.6403738,38.8101852 Z M67.9258567,38.8101852 L71.4063551,38.8101852 C72.0618838,38.8101852 72.5665213,39.3186571 72.5665213,39.9791667 L72.5665213,46.7967029 C72.5458134,46.9229429 72.5458134,47.0517519 72.5665213,47.1779919 L72.5665213,53.8105918 C72.5458134,53.9368318 72.5458134,54.0656408 72.5665213,54.1918808 L72.5665213,61.0208333 C72.5665213,61.6813429 72.0618838,62.1898148 71.4063551,62.1898148 L67.9258567,62.1898148 L67.9258567,38.8101852 Z M23.8395431,48.162037 L26.1598754,48.162037 L26.1598754,52.837963 L23.8395431,52.837963 L23.8395431,48.162037 Z M43.5623676,48.162037 L57.4843614,48.162037 L57.4843614,52.837963 L43.5623676,52.837963 L43.5623676,48.162037 Z M74.8868536,48.162037 L77.2071859,48.162037 L77.2071859,52.837963 L74.8868536,52.837963 L74.8868536,48.162037 Z" id="Shape" fill="#FFFFFF" fill-rule="nonzero"></path>
                </g>
                <rect id="Rectangle-8" x="0" y="0" width="116" height="177"></rect>
            </g>
        </g>
    </g>
</svg>