<?xml version="1.0" encoding="UTF-8"?>
<svg width="102px" height="170px" viewBox="0 0 102 170" version="1.1" xmlns="http://www.w3.org/2000/svg" xmlns:xlink="http://www.w3.org/1999/xlink">
    <!-- Generator: Sketch 44.1 (41455) - http://www.bohemiancoding.com/sketch -->
    <title>Group 18</title>
    <desc>Created with Sketch.</desc>
    <defs></defs>
    <g id="v7-draft" stroke="none" stroke-width="1" fill="none" fill-rule="evenodd">
        <g id="top_desktop_Signout_v6_02-Copy" transform="translate(-787.000000, -2314.000000)">
            <g id="Group-18" transform="translate(779.000000, 2310.000000)">
                <g id="Group-17" transform="translate(3.000000, 4.000000)">
                    <text id="On-Site-Food-&amp;-Snack" fill="#000000" font-family="Lato-Regular, Lato" font-size="14" font-weight="normal">
                        <tspan x="7.746" y="133">On-Site Food &amp; </tspan>
                        <tspan x="8.5895" y="150">Snacks Offered </tspan>
                        <tspan x="39.848" y="167">Daily</tspan>
                    </text>
                    <ellipse id="Oval-3-Copy-7" fill="#F7465B" cx="55.5233645" cy="50.5" rx="50.5233645" ry="50.5"></ellipse>
                    <path d="M71.1584666,28.939547 C70.17085,28.939547 69.09345,29.1190163 68.01605,29.3882201 C65.1429834,30.1060971 62.2699168,31.7213202 60.2049001,33.6954819 C57.8705335,36.028582 57.1522668,38.9000898 56.7931335,41.4126591 C56.6135669,42.6689438 56.5237835,43.7457592 56.3442169,44.6431054 C56.1646502,45.5404516 55.9850835,46.0788594 55.8055169,46.2583286 C55.0872502,46.9762055 52.1244003,49.4887749 48.9819836,52.1808135 C45.839567,54.8728521 42.4278004,57.8340945 40.4525671,59.8082561 C36.8612338,63.3976409 35.1553505,65.6410064 34.3473005,67.3459642 C33.9881672,68.1535758 33.8983839,68.9611873 33.9881672,69.5893297 C34.0779505,70.217472 34.5268672,70.7558797 34.8860005,71.1148182 C35.2451338,71.4737567 35.6940505,71.8326952 36.4123172,72.0121644 C37.1305838,72.1916336 37.8488505,72.0121644 38.6569005,71.6532259 C40.3627838,70.935349 42.6073671,69.2303912 46.1987003,65.6410064 C48.1739336,63.6668448 51.1367836,60.2569292 53.8302836,57.1162176 C56.5237835,53.9755059 59.0377168,51.0142634 59.7559835,50.2963865 C59.9355501,50.1169172 60.4742501,49.937448 61.2823001,49.7579788 C62.1801334,49.5785095 63.2575334,49.4887749 64.5145001,49.3093057 C66.93865,48.9503672 69.9015,48.2324902 72.2358666,45.8993901 C74.3008832,43.8354939 75.8271999,40.963986 76.5454665,38.0924782 C77.2637332,35.2209704 77.2637332,32.3494626 75.4680666,30.5547702 C74.5702332,29.657424 73.4030499,29.2087509 72.0563,29.0292816 C71.8767333,29.0292816 71.5176,28.939547 71.1584666,28.939547 Z M71.1584666,30.823974 C71.4278166,30.823974 71.6971666,30.823974 71.9665166,30.823974 C72.9541333,30.9137086 73.8519666,31.2726471 74.3906666,31.8110548 C75.4680666,32.8878703 75.6476332,35.1312358 75.0191499,37.6438051 C74.3906666,40.1563745 72.8643499,42.848413 71.1584666,44.5533708 C69.1832333,46.5275325 66.7590834,47.1556748 64.4247167,47.5146133 C63.2575334,47.6940825 62.1801334,47.7838171 61.1925168,47.9632864 C60.2049001,48.1427556 59.3070668,48.3222248 58.6785835,49.0401018 C57.7807502,49.937448 55.3566002,52.8089558 52.6631002,55.9496675 C49.9696003,59.0903792 47.0067503,62.5002947 45.1213004,64.3847217 C41.6197504,67.8843719 39.3751671,69.4995951 38.1182005,70.0380028 C37.4897171,70.3072066 37.1305838,70.3072066 36.9510172,70.217472 C36.7714505,70.1277374 36.5918838,70.0380028 36.3225338,69.8585335 C36.0531838,69.5893297 35.9634005,69.4995951 35.9634005,69.2303912 C35.9634005,69.050922 35.8736172,68.6919835 36.1429672,68.0638411 C36.6816672,66.8075565 38.2977671,64.6539256 41.7993171,61.0645408 C43.684767,59.1801138 47.0965337,56.2188714 50.2389503,53.5268328 C53.3813669,50.8347942 56.1646502,48.5016941 57.1522668,47.5146133 C57.7807502,46.8864709 58.0501002,45.8993901 58.2296668,45.0020439 C58.4092335,44.1046977 58.4990168,42.9381477 58.6785835,41.7715976 C59.0377168,39.4384975 59.6662001,37.0156628 61.5516501,35.1312358 C63.2575334,33.426278 65.9510334,31.9007895 68.4649667,31.2726471 C69.4525833,30.9137086 70.3504166,30.823974 71.1584666,30.823974 Z" id="Shape" fill="#FFFFFF" fill-rule="nonzero"></path>
                </g>
                <rect id="Rectangle-8" x="0" y="0" width="116" height="177"></rect>
            </g>
        </g>
    </g>
</svg>