<?xml version="1.0" encoding="UTF-8"?>
<svg width="75px" height="75px" viewBox="0 0 75 75" version="1.1" xmlns="http://www.w3.org/2000/svg" xmlns:xlink="http://www.w3.org/1999/xlink">
    <!-- Generator: Sketch 44.1 (41455) - http://www.bohemiancoding.com/sketch -->
    <title>noun_1033173_cc</title>
    <desc>Created with Sketch.</desc>
    <defs></defs>
    <g id="v7-draft" stroke="none" stroke-width="1" fill="none" fill-rule="evenodd">
        <g id="top_desktop_Signout_v6_02-Copy" transform="translate(-498.000000, -721.000000)" fill-rule="nonzero" fill="#F7465B">
            <g id="noun_1033173_cc" transform="translate(498.000000, 721.000000)">
                <path d="M71.7857143,50.6632653 C71.9387755,50.3571429 71.9387755,49.9744898 71.9387755,49.5918367 L71.9387755,48.6734694 C71.9387755,46.8367347 70.4081633,45.3061224 68.5714286,45.3061224 L66.8877551,45.3061224 L66.8877551,34.9744898 C66.8877551,34.3622449 66.3520408,33.8265306 65.7397959,33.8265306 L64.5918367,33.8265306 L64.5918367,33.5969388 C64.5918367,33.3673469 64.6683673,33.0612245 64.744898,32.8316327 L65.5102041,30.3826531 L72.0153061,30.3826531 C72.627551,30.3826531 73.1632653,29.8469388 73.1632653,29.2346939 L73.1632653,9.26020408 C73.1632653,8.64795918 72.627551,8.1122449 72.0153061,8.1122449 L68.4183673,8.1122449 C68.1122449,6.65816327 66.8112245,5.58673469 65.2806122,5.58673469 L64.5918367,5.58673469 C64.2091837,5.58673469 63.9030612,5.66326531 63.5969388,5.73979592 C63.2908163,4.20918367 61.9132653,3.06122449 60.3061224,3.06122449 L59.4642857,3.06122449 C59.0816327,3.06122449 58.6989796,3.1377551 58.3928571,3.21428571 C58.1632653,1.60714286 56.7857143,0.306122449 55.1020408,0.306122449 L54.0306122,0.306122449 C52.3469388,0.306122449 50.9693878,1.53061224 50.7397959,3.21428571 C50.4336735,3.06122449 50.0510204,3.06122449 49.6683673,3.06122449 L48.75,3.06122449 C46.9132653,3.06122449 45.3826531,4.59183673 45.3826531,6.42857143 L45.3826531,8.1122449 L34.9744898,8.1122449 C34.3622449,8.1122449 33.8265306,8.64795918 33.8265306,9.26020408 L33.8265306,10.4081633 L33.5969388,10.4081633 C33.3673469,10.4081633 33.0612245,10.3316327 32.8316327,10.255102 L30.3826531,9.48979592 L30.3826531,2.98469388 C30.3826531,2.37244898 29.8469388,1.83673469 29.2346939,1.83673469 L9.26020408,1.83673469 C8.64795918,1.83673469 8.1122449,2.37244898 8.1122449,2.98469388 L8.1122449,6.58163265 C6.65816327,6.8877551 5.58673469,8.18877551 5.58673469,9.71938776 L5.58673469,10.4081633 C5.58673469,10.7908163 5.66326531,11.0969388 5.73979592,11.4030612 C4.20918367,11.7091837 3.06122449,13.0867347 3.06122449,14.6938776 L3.06122449,15.5357143 C3.06122449,15.9183673 3.1377551,16.3010204 3.21428571,16.6071429 C1.60714286,16.8367347 0.306122449,18.2142857 0.306122449,19.8979592 L0.306122449,20.9693878 C0.306122449,22.6530612 1.53061224,24.0306122 3.21428571,24.2602041 C3.06122449,24.5663265 3.06122449,24.9489796 3.06122449,25.3316327 L3.06122449,26.25 C3.06122449,28.0867347 4.59183673,29.6173469 6.42857143,29.6173469 L8.1122449,29.6173469 L8.1122449,39.9489796 C8.1122449,40.5612245 8.64795918,41.0969388 9.26020408,41.0969388 L10.4081633,41.0969388 L10.4081633,41.3265306 C10.4081633,41.5561224 10.3316327,41.8622449 10.255102,42.0918367 L9.48979592,44.5408163 L2.98469388,44.5408163 C2.37244898,44.5408163 1.83673469,45.0765306 1.83673469,45.6887755 L1.83673469,65.7397959 C1.83673469,66.3520408 2.37244898,66.8877551 2.98469388,66.8877551 L6.58163265,66.8877551 C6.8877551,68.3418367 8.18877551,69.4132653 9.71938776,69.4132653 L10.4081633,69.4132653 C10.7908163,69.4132653 11.0969388,69.3367347 11.4030612,69.2602041 C11.7091837,70.7908163 13.0867347,71.9387755 14.6938776,71.9387755 L15.5357143,71.9387755 C15.9183673,71.9387755 16.3010204,71.8622449 16.6071429,71.7857143 C16.8367347,73.3928571 18.2142857,74.6938776 19.8979592,74.6938776 L20.9693878,74.6938776 C22.6530612,74.6938776 24.0306122,73.4693878 24.2602041,71.7857143 C24.5663265,71.9387755 24.9489796,71.9387755 25.3316327,71.9387755 L26.25,71.9387755 C28.0867347,71.9387755 29.6173469,70.4081633 29.6173469,68.5714286 L29.6173469,66.8877551 L39.9489796,66.8877551 C40.5612245,66.8877551 41.0969388,66.3520408 41.0969388,65.7397959 L41.0969388,64.5918367 L41.3265306,64.5918367 C41.5561224,64.5918367 41.8622449,64.6683673 42.0918367,64.744898 L44.5408163,65.5102041 L44.5408163,72.0153061 C44.5408163,72.627551 45.0765306,73.1632653 45.6887755,73.1632653 L65.7397959,73.1632653 C66.3520408,73.1632653 66.8877551,72.627551 66.8877551,72.0153061 L66.8877551,68.4183673 C68.3418367,68.1122449 69.4132653,66.8112245 69.4132653,65.2806122 L69.4132653,64.5918367 C69.4132653,64.2091837 69.3367347,63.9030612 69.2602041,63.5969388 C70.7908163,63.2908163 71.9387755,61.9132653 71.9387755,60.3061224 L71.9387755,59.4642857 C71.9387755,59.0816327 71.8622449,58.6989796 71.7857143,58.3928571 C73.3928571,58.1632653 74.6938776,56.7857143 74.6938776,55.1020408 L74.6938776,54.0306122 C74.6938776,52.2704082 73.3928571,50.8928571 71.7857143,50.6632653 Z M64.5918367,43.0102041 L64.5918367,43.0102041 C64.0561224,41.4030612 62.6020408,40.3316327 60.9183673,40.3316327 L55.1020408,40.3316327 C53.7244898,40.3316327 52.5,40.7142857 51.3520408,41.5561224 L46.8367347,44.7704082 L46.8367347,36.122449 L64.5918367,36.122449 C64.5918367,36.122449 64.5918367,43.0102041 64.5918367,43.0102041 Z M40.0255102,44.6173469 L28.622449,44.6173469 L28.622449,44.6173469 C28.3163265,44.1581633 28.1632653,43.6989796 28.1632653,43.1632653 L28.1632653,41.1734694 L29.2346939,41.1734694 C29.8469388,41.1734694 30.3826531,40.6377551 30.3826531,40.0255102 L30.3826531,28.622449 L30.3826531,28.622449 C30.8418367,28.3163265 31.3010204,28.1632653 31.8367347,28.1632653 L33.8265306,28.1632653 L33.8265306,29.2346939 C33.8265306,29.8469388 34.3622449,30.3826531 34.9744898,30.3826531 L46.3010204,30.3826531 L46.3010204,30.3826531 C46.6071429,30.8418367 46.7602041,31.3010204 46.7602041,31.8367347 L46.7602041,33.8265306 L45.6887755,33.8265306 C45.0765306,33.8265306 44.5408163,34.3622449 44.5408163,34.9744898 L44.5408163,46.3010204 L44.5408163,46.3010204 C44.0816327,46.6071429 43.622449,46.7602041 43.0867347,46.7602041 L41.0969388,46.7602041 L41.0969388,45.6887755 C41.1734694,45.0765306 40.6377551,44.6173469 40.0255102,44.6173469 Z M70.8673469,28.0867347 L66.2755102,28.0867347 L67.8061224,23.2653061 C68.2653061,21.8877551 68.494898,20.4336735 68.494898,18.9795918 L68.494898,10.4081633 L70.8673469,10.4081633 L70.8673469,28.0867347 Z M47.6020408,17.2959184 L47.6020408,6.35204082 C47.6020408,5.73979592 48.0612245,5.28061224 48.6734694,5.28061224 L49.5918367,5.28061224 C50.2040816,5.28061224 50.6632653,5.73979592 50.6632653,6.35204082 L50.6632653,13.2397959 C50.6632653,13.8520408 51.1989796,14.3877551 51.8112245,14.3877551 C52.4234694,14.3877551 52.9591837,13.8520408 52.9591837,13.2397959 L52.9591837,3.67346939 C52.9591837,3.06122449 53.4183673,2.60204082 54.0306122,2.60204082 L55.1020408,2.60204082 C55.7142857,2.60204082 56.1734694,3.06122449 56.1734694,3.67346939 L56.1734694,13.3163265 C56.1734694,13.9285714 56.7091837,14.4642857 57.3214286,14.4642857 C57.9336735,14.4642857 58.4693878,13.9285714 58.4693878,13.3163265 L58.4693878,6.42857143 C58.4693878,5.81632653 58.9285714,5.35714286 59.5408163,5.35714286 L60.3826531,5.35714286 C60.994898,5.35714286 61.4540816,5.81632653 61.4540816,6.42857143 L61.4540816,8.41836735 C61.4540816,8.49489796 61.4540816,8.57142857 61.4540816,8.64795918 C61.4540816,8.7244898 61.4540816,8.80102041 61.4540816,8.87755102 L61.4540816,13.4693878 C61.4540816,14.0816327 61.9897959,14.6173469 62.6020408,14.6173469 C63.2142857,14.6173469 63.75,14.0816327 63.75,13.4693878 L63.75,8.87755102 C63.75,8.34183673 64.2091837,7.95918367 64.6683673,7.95918367 L65.3571429,7.95918367 C65.8928571,7.95918367 66.2755102,8.41836735 66.2755102,8.87755102 L66.2755102,19.1326531 C66.2755102,20.3571429 66.0459184,21.5816327 65.7397959,22.7295918 L62.5255102,32.1428571 C62.372449,32.6020408 62.2959184,33.1377551 62.2959184,33.5969388 L62.2959184,33.8265306 L49.1326531,33.8265306 L49.1326531,31.8367347 C49.1326531,30.8418367 48.8265306,29.8469388 48.2142857,29.0816327 L43.3928571,22.2704082 C42.8571429,21.5816327 42.627551,20.7397959 42.627551,19.8979592 L42.627551,14.0816327 C42.627551,13.3928571 43.0867347,12.7806122 43.6989796,12.5510204 L45.3061224,12.0153061 L45.3061224,17.2959184 C45.3061224,17.9081633 45.8418367,18.4438776 46.4540816,18.4438776 C47.0663265,18.4438776 47.6020408,17.9081633 47.6020408,17.2959184 Z M36.122449,10.4081633 L42.9336735,10.4081633 L42.9336735,10.4081633 C41.3265306,10.9438776 40.255102,12.3979592 40.255102,14.0816327 L40.255102,19.8979592 C40.255102,21.2755102 40.6377551,22.5 41.4795918,23.6479592 L44.6938776,28.1632653 L36.122449,28.1632653 L36.122449,10.4081633 Z M28.0867347,4.13265306 L28.0867347,8.7244898 L23.2653061,7.19387755 C21.8877551,6.73469388 20.4336735,6.50510204 18.9795918,6.50510204 L10.4081633,6.50510204 L10.4081633,4.13265306 L28.0867347,4.13265306 Z M5.28061224,26.3265306 L5.28061224,25.4081633 C5.28061224,24.7959184 5.73979592,24.3367347 6.35204082,24.3367347 L13.2397959,24.3367347 C13.8520408,24.3367347 14.3877551,23.8010204 14.3877551,23.1887755 C14.3877551,22.5765306 13.8520408,22.0408163 13.2397959,22.0408163 L3.67346939,22.0408163 C3.06122449,22.0408163 2.60204082,21.5816327 2.60204082,20.9693878 L2.60204082,19.8979592 C2.60204082,19.2857143 3.06122449,18.8265306 3.67346939,18.8265306 L13.3163265,18.8265306 C13.9285714,18.8265306 14.4642857,18.2908163 14.4642857,17.6785714 C14.4642857,17.0663265 13.9285714,16.5306122 13.3163265,16.5306122 L6.42857143,16.5306122 C5.81632653,16.5306122 5.35714286,16.0714286 5.35714286,15.4591837 L5.35714286,14.6173469 C5.35714286,14.005102 5.81632653,13.5459184 6.42857143,13.5459184 L8.41836735,13.5459184 C8.49489796,13.5459184 8.57142857,13.5459184 8.64795918,13.5459184 C8.7244898,13.5459184 8.80102041,13.5459184 8.87755102,13.5459184 L13.4693878,13.5459184 C14.0816327,13.5459184 14.6173469,13.0102041 14.6173469,12.3979592 C14.6173469,11.7857143 14.0816327,11.25 13.4693878,11.25 L8.87755102,11.25 C8.34183673,11.25 7.95918367,10.7908163 7.95918367,10.3316327 L7.95918367,9.64285714 C7.95918367,9.10714286 8.41836735,8.7244898 8.87755102,8.7244898 L19.1326531,8.7244898 C20.3571429,8.7244898 21.5816327,8.95408163 22.7295918,9.26020408 L32.1428571,12.4744898 C32.6020408,12.627551 33.1377551,12.7040816 33.5969388,12.7040816 L33.8265306,12.7040816 L33.8265306,25.8673469 L31.8367347,25.8673469 C30.8418367,25.8673469 29.8469388,26.1734694 29.0816327,26.7857143 L22.2704082,31.6071429 C21.5816327,32.1428571 20.7397959,32.372449 19.8979592,32.372449 L14.0816327,32.372449 C13.3928571,32.372449 12.7806122,31.9132653 12.5510204,31.3010204 L12.0153061,29.6938776 L17.2959184,29.6938776 C17.9081633,29.6938776 18.4438776,29.1581633 18.4438776,28.5459184 C18.4438776,27.9336735 17.9081633,27.3979592 17.2959184,27.3979592 L6.35204082,27.3979592 C5.81632653,27.3979592 5.28061224,26.8622449 5.28061224,26.3265306 Z M10.4081633,31.9897959 L10.4081633,31.9897959 C10.9438776,33.5969388 12.3979592,34.6683673 14.0816327,34.6683673 L19.8979592,34.6683673 C21.2755102,34.6683673 22.5,34.2857143 23.6479592,33.4438776 L28.1632653,30.2295918 L28.1632653,38.8010204 L10.4081633,38.8010204 L10.4081633,31.9897959 Z M7.19387755,51.7346939 C6.73469388,53.1122449 6.50510204,54.5663265 6.50510204,56.0204082 L6.50510204,64.6683673 L4.13265306,64.6683673 L4.13265306,46.9132653 L8.7244898,46.9132653 L7.19387755,51.7346939 Z M27.3979592,57.7040816 L27.3979592,68.6479592 C27.3979592,69.2602041 26.9387755,69.7193878 26.3265306,69.7193878 L25.4081633,69.7193878 C24.7959184,69.7193878 24.3367347,69.2602041 24.3367347,68.6479592 L24.3367347,61.7602041 C24.3367347,61.1479592 23.8010204,60.6122449 23.1887755,60.6122449 C22.5765306,60.6122449 22.0408163,61.1479592 22.0408163,61.7602041 L22.0408163,71.4030612 C22.0408163,72.0153061 21.5816327,72.4744898 20.9693878,72.4744898 L19.8979592,72.4744898 C19.2857143,72.4744898 18.8265306,72.0153061 18.8265306,71.4030612 L18.8265306,61.6836735 C18.8265306,61.0714286 18.2908163,60.5357143 17.6785714,60.5357143 C17.0663265,60.5357143 16.5306122,61.0714286 16.5306122,61.6836735 L16.5306122,68.5714286 C16.5306122,69.1836735 16.0714286,69.6428571 15.4591837,69.6428571 L14.6173469,69.6428571 C14.005102,69.6428571 13.5459184,69.1836735 13.5459184,68.5714286 L13.5459184,66.5816327 C13.5459184,66.505102 13.5459184,66.4285714 13.5459184,66.3520408 C13.5459184,66.2755102 13.5459184,66.1989796 13.5459184,66.122449 L13.5459184,61.5306122 C13.5459184,60.9183673 13.0102041,60.3826531 12.3979592,60.3826531 C11.7857143,60.3826531 11.25,60.9183673 11.25,61.5306122 L11.25,66.122449 C11.25,66.6581633 10.7908163,67.0408163 10.3316327,67.0408163 L9.64285714,67.0408163 C9.10714286,67.0408163 8.7244898,66.5816327 8.7244898,66.122449 L8.7244898,56.0204082 C8.7244898,54.7959184 8.95408163,53.5714286 9.26020408,52.4234694 L12.4744898,42.8571429 C12.627551,42.3979592 12.7040816,41.8622449 12.7040816,41.4030612 L12.7040816,41.1734694 L25.8673469,41.1734694 L25.8673469,43.1632653 C25.8673469,44.1581633 26.1734694,45.1530612 26.7857143,45.9183673 L31.6071429,52.7295918 C32.1428571,53.4183673 32.372449,54.2602041 32.372449,55.1020408 L32.372449,60.9183673 C32.372449,61.6071429 31.9132653,62.2193878 31.3010204,62.4489796 L29.6938776,62.9846939 L29.6938776,57.7040816 C29.6938776,57.0918367 29.1581633,56.5561224 28.5459184,56.5561224 C27.9336735,56.5561224 27.3979592,57.0918367 27.3979592,57.7040816 Z M38.877551,64.5918367 L32.0663265,64.5918367 L32.0663265,64.5918367 C33.6734694,64.0561224 34.744898,62.6020408 34.744898,60.9183673 L34.744898,55.1020408 C34.744898,53.7244898 34.3622449,52.5 33.5204082,51.3520408 L30.3061224,46.8367347 L38.877551,46.8367347 C38.877551,46.8367347 38.877551,64.5918367 38.877551,64.5918367 Z M46.9132653,70.8673469 L46.9132653,66.2755102 L51.7346939,67.8061224 C53.1122449,68.2653061 54.5663265,68.494898 56.0204082,68.494898 L64.6683673,68.494898 L64.6683673,70.8673469 L46.9132653,70.8673469 Z M72.3979592,55.1020408 C72.3979592,55.7142857 71.9387755,56.1734694 71.3265306,56.1734694 L61.6836735,56.1734694 C61.0714286,56.1734694 60.5357143,56.7091837 60.5357143,57.3214286 C60.5357143,57.9336735 61.0714286,58.4693878 61.6836735,58.4693878 L68.5714286,58.4693878 C69.1836735,58.4693878 69.6428571,58.9285714 69.6428571,59.5408163 L69.6428571,60.3826531 C69.6428571,60.994898 69.1836735,61.4540816 68.5714286,61.4540816 L66.5816327,61.4540816 C66.505102,61.4540816 66.4285714,61.4540816 66.3520408,61.4540816 C66.2755102,61.4540816 66.1989796,61.4540816 66.122449,61.4540816 L61.5306122,61.4540816 C60.9183673,61.4540816 60.3826531,61.9897959 60.3826531,62.6020408 C60.3826531,63.2142857 60.9183673,63.75 61.5306122,63.75 L66.122449,63.75 C66.6581633,63.75 67.0408163,64.2091837 67.0408163,64.6683673 L67.0408163,65.3571429 C67.0408163,65.8928571 66.5816327,66.2755102 66.122449,66.2755102 L56.0204082,66.2755102 C54.7959184,66.2755102 53.5714286,66.0459184 52.4234694,65.7397959 L42.8571429,62.5255102 C42.3979592,62.372449 41.8622449,62.2959184 41.4030612,62.2959184 L41.1734694,62.2959184 L41.1734694,49.1326531 L43.1632653,49.1326531 C44.1581633,49.1326531 45.1530612,48.8265306 45.9183673,48.2142857 L52.7295918,43.3928571 C53.4183673,42.8571429 54.2602041,42.627551 55.1020408,42.627551 L60.9183673,42.627551 C61.6071429,42.627551 62.2193878,43.0867347 62.4489796,43.6989796 L62.9846939,45.3061224 L57.7040816,45.3061224 C57.0918367,45.3061224 56.5561224,45.8418367 56.5561224,46.4540816 C56.5561224,47.0663265 57.0918367,47.6020408 57.7040816,47.6020408 L68.6479592,47.6020408 C69.2602041,47.6020408 69.7193878,48.0612245 69.7193878,48.6734694 L69.7193878,49.5918367 C69.7193878,50.2040816 69.2602041,50.6632653 68.6479592,50.6632653 L61.7602041,50.6632653 C61.1479592,50.6632653 60.6122449,51.1989796 60.6122449,51.8112245 C60.6122449,52.4234694 61.1479592,52.9591837 61.7602041,52.9591837 L71.4030612,52.9591837 C72.0153061,52.9591837 72.4744898,53.4183673 72.4744898,54.0306122 L72.3979592,55.1020408 L72.3979592,55.1020408 Z" id="Shape"></path>
            </g>
        </g>
    </g>
</svg>