<?xml version="1.0" encoding="UTF-8"?>
<svg width="74px" height="60px" viewBox="0 0 74 60" version="1.1" xmlns="http://www.w3.org/2000/svg" xmlns:xlink="http://www.w3.org/1999/xlink">
    <!-- Generator: Sketch 44.1 (41455) - http://www.bohemiancoding.com/sketch -->
    <title>noun_61993_cc</title>
    <desc>Created with Sketch.</desc>
    <defs></defs>
    <g id="v7-draft" stroke="none" stroke-width="1" fill="none" fill-rule="evenodd">
        <g id="top_desktop_Signout_v6_02-Copy" transform="translate(-770.000000, -729.000000)" stroke="#F7465B" stroke-width="0.8" fill="#F7465B" fill-rule="nonzero">
            <g id="noun_61993_cc" transform="translate(771.000000, 729.000000)">
                <path d="M71.2173913,6.94736842 L52.3565217,6.94736842 L51.1043478,6.94736842 C50.7130435,3.47368421 47.7391304,0.710526316 44.2173913,0.710526316 L27.7826087,0.710526316 C24.2608696,0.710526316 21.2869565,3.39473684 20.8956522,6.94736842 L19.7217391,6.94736842 L0.782608696,6.94736842 C0.313043478,6.94736842 0,7.26315789 0,7.73684211 L0,58.4210526 C0,58.8947368 0.313043478,59.2105263 0.782608696,59.2105263 L71.2173913,59.2105263 C71.6869565,59.2105263 72,58.8947368 72,58.4210526 L72,7.73684211 C72,7.34210526 71.6869565,6.94736842 71.2173913,6.94736842 Z M49.226087,8.52631579 L51.573913,8.52631579 L51.573913,11.6842105 L49.226087,11.6842105 L49.226087,8.52631579 Z M27.7826087,2.36842105 L44.2173913,2.36842105 C46.8782609,2.36842105 49.1478261,4.34210526 49.5391304,7.02631579 L48.4434783,7.02631579 L47.1130435,7.02631579 C47.1130435,6 46.4869565,3.94736842 42.2608696,3.94736842 L29.8173913,3.94736842 C25.5913043,3.94736842 24.9652174,6.07894737 24.9652174,7.02631579 L23.7130435,7.02631579 L22.5391304,7.02631579 C22.8521739,4.34210526 25.0434783,2.36842105 27.7826087,2.36842105 Z M45.4695652,6.94736842 L26.5304348,6.94736842 C26.6086957,5.60526316 28.6434783,5.44736842 29.8173913,5.44736842 L42.2608696,5.44736842 C43.4347826,5.44736842 45.3913043,5.68421053 45.4695652,6.94736842 Z M22.8521739,8.52631579 L22.8521739,11.6842105 L20.5043478,11.6842105 L20.5043478,8.52631579 L22.8521739,8.52631579 Z M70.4347826,57.6315789 L1.56521739,57.6315789 L1.56521739,8.52631579 L18.9391304,8.52631579 L18.9391304,12.4736842 C18.9391304,12.9473684 19.2521739,13.2631579 19.7217391,13.2631579 L23.6347826,13.2631579 C24.1043478,13.2631579 24.4173913,12.9473684 24.4173913,12.4736842 L24.4173913,8.52631579 L47.5826087,8.52631579 L47.5826087,12.4736842 C47.5826087,12.9473684 47.8956522,13.2631579 48.3652174,13.2631579 L52.2782609,13.2631579 C52.7478261,13.2631579 53.0608696,12.9473684 53.0608696,12.4736842 L53.0608696,8.52631579 L70.4347826,8.52631579 L70.4347826,57.6315789 Z" id="Shape"></path>
            </g>
        </g>
    </g>
</svg>