<?xml version="1.0" encoding="UTF-8"?>
<svg width="38px" height="38px" viewBox="0 0 38 38" version="1.1" xmlns="http://www.w3.org/2000/svg" xmlns:xlink="http://www.w3.org/1999/xlink">
    <!-- Generator: Sketch 44.1 (41455) - http://www.bohemiancoding.com/sketch -->
    <title>Group 27</title>
    <desc>Created with Sketch.</desc>
    <defs></defs>
    <g id="v7-draft" stroke="none" stroke-width="1" fill="none" fill-rule="evenodd">
        <g id="top_desktop_Signout_v6_02-Copy" transform="translate(-871.000000, -2564.000000)">
            <g id="Group-27" transform="translate(871.000000, 2564.000000)">
                <ellipse id="Oval-2" fill="#F7455B" cx="18.6532663" cy="18.6779661" rx="18.6532663" ry="18.6779661"></ellipse>
                <g id="icons8-facebook_filled" transform="translate(15.000000, 8.000000)" fill-rule="nonzero" fill="#FFFFFF">
                    <path d="M8.99917898,3.48724005 L7.31183292,3.48724005 C6.10538049,3.48724005 5.62448686,3.78016822 5.62448686,4.6496534 L5.62448686,6.39327343 L8.99917898,6.39327343 L8.4367303,9.88051348 L5.62448686,9.88051348 L5.62448686,21.504647 L1.68734606,21.504647 L1.68734606,9.88051348 L0,9.88051348 L0,6.39327343 L1.68734606,6.39327343 L1.68734606,4.6496534 C1.68734606,1.93134978 2.57657743,-9.9475983e-14 5.62448686,-9.9475983e-14 C7.25671295,-9.9475983e-14 8.99917898,0.581206675 8.99917898,0.581206675 L8.99917898,3.48724005 Z" id="Shape"></path>
                </g>
            </g>
        </g>
    </g>
</svg>