<?xml version="1.0" encoding="UTF-8"?>
<svg width="108px" height="108px" viewBox="0 0 108 108" version="1.1" xmlns="http://www.w3.org/2000/svg" xmlns:xlink="http://www.w3.org/1999/xlink">
    <!-- Generator: Sketch 44.1 (41455) - http://www.bohemiancoding.com/sketch -->
    <title>Group 22</title>
    <desc>Created with Sketch.</desc>
    <defs></defs>
    <g id="v7-draft" stroke="none" stroke-width="1" fill="none" fill-rule="evenodd">
        <g id="top_desktop_Signout_v6_02-Copy" transform="translate(-199.000000, -701.000000)">
            <g id="Group-22" transform="translate(197.000000, 699.000000)">
                <g id="Group-21" transform="translate(2.000000, 2.000000)">
                    <circle id="Oval-3" fill="#F7465B" cx="54" cy="54" r="54"></circle>
                    <g id="noun_266059_cc" transform="translate(36.000000, 20.000000)" stroke="#FFFFFF" stroke-width="3">
                        <path d="M32.087363,30.27375 L20.5464041,30.27375 L28.6775342,2.415 C28.8523973,1.8975 28.8523973,0.77625 27.7157877,0.1725 C27.4534932,7.10542736e-15 27.1911986,7.10542736e-15 26.8414726,7.10542736e-15 C25.879726,7.10542736e-15 25.2677055,0.77625 25.2677055,0.8625 L0.524589041,34.3275 C0.524589041,34.41375 -0.0874315068,35.44875 0.262294521,37.00125 C0.699452055,38.64 2.5355137,38.8125 2.62294521,38.8125 L14.9507877,38.8125 L6.81965753,66.67125 C6.64479452,67.18875 6.64479452,68.22375 7.6939726,68.74125 C7.95626712,68.91375 8.30599315,69 8.65571918,69 C9.61746575,69 10.1420548,68.22375 10.2294863,68.22375 L34.2731507,34.5 C34.2731507,34.41375 35.2348973,33.20625 34.5354452,31.82625 C33.8359932,30.10125 32.1747945,30.27375 32.087363,30.27375 Z" id="Shape"></path>
                    </g>
                </g>
                <rect id="Rectangle-2" x="0" y="0" width="112" height="112"></rect>
            </g>
        </g>
    </g>
</svg>