<?xml version="1.0" encoding="UTF-8"?>
<svg width="108px" height="108px" viewBox="0 0 108 108" version="1.1" xmlns="http://www.w3.org/2000/svg" xmlns:xlink="http://www.w3.org/1999/xlink">
    <!-- Generator: Sketch 44.1 (41455) - http://www.bohemiancoding.com/sketch -->
    <title>Group 22</title>
    <desc>Created with Sketch.</desc>
    <defs></defs>
    <g id="v7-draft" stroke="none" stroke-width="1" fill="none" fill-rule="evenodd">
        <g id="top_desktop_Signout_v6_02-Copy" transform="translate(-481.000000, -705.000000)">
            <g id="Group-22" transform="translate(479.000000, 703.000000)">
                <g id="Group-3" transform="translate(2.000000, 2.000000)">
                    <circle id="Oval-3-Copy" fill="#F7465B" cx="54" cy="54" r="54"></circle>
                    <g id="noun_1033173_cc" transform="translate(19.000000, 19.000000)" fill-rule="nonzero" fill="#FFFFFF">
                        <path d="M67,47.2857143 C67.1428571,47 67.1428571,46.6428571 67.1428571,46.2857143 L67.1428571,45.4285714 C67.1428571,43.7142857 65.7142857,42.2857143 64,42.2857143 L62.4285714,42.2857143 L62.4285714,32.6428571 C62.4285714,32.0714286 61.9285714,31.5714286 61.3571429,31.5714286 L60.2857143,31.5714286 L60.2857143,31.3571429 C60.2857143,31.1428571 60.3571429,30.8571429 60.4285714,30.6428571 L61.1428571,28.3571429 L67.2142857,28.3571429 C67.7857143,28.3571429 68.2857143,27.8571429 68.2857143,27.2857143 L68.2857143,8.64285714 C68.2857143,8.07142857 67.7857143,7.57142857 67.2142857,7.57142857 L63.8571429,7.57142857 C63.5714286,6.21428571 62.3571429,5.21428571 60.9285714,5.21428571 L60.2857143,5.21428571 C59.9285714,5.21428571 59.6428571,5.28571429 59.3571429,5.35714286 C59.0714286,3.92857143 57.7857143,2.85714286 56.2857143,2.85714286 L55.5,2.85714286 C55.1428571,2.85714286 54.7857143,2.92857143 54.5,3 C54.2857143,1.5 53,0.285714286 51.4285714,0.285714286 L50.4285714,0.285714286 C48.8571429,0.285714286 47.5714286,1.42857143 47.3571429,3 C47.0714286,2.85714286 46.7142857,2.85714286 46.3571429,2.85714286 L45.5,2.85714286 C43.7857143,2.85714286 42.3571429,4.28571429 42.3571429,6 L42.3571429,7.57142857 L32.6428571,7.57142857 C32.0714286,7.57142857 31.5714286,8.07142857 31.5714286,8.64285714 L31.5714286,9.71428571 L31.3571429,9.71428571 C31.1428571,9.71428571 30.8571429,9.64285714 30.6428571,9.57142857 L28.3571429,8.85714286 L28.3571429,2.78571429 C28.3571429,2.21428571 27.8571429,1.71428571 27.2857143,1.71428571 L8.64285714,1.71428571 C8.07142857,1.71428571 7.57142857,2.21428571 7.57142857,2.78571429 L7.57142857,6.14285714 C6.21428571,6.42857143 5.21428571,7.64285714 5.21428571,9.07142857 L5.21428571,9.71428571 C5.21428571,10.0714286 5.28571429,10.3571429 5.35714286,10.6428571 C3.92857143,10.9285714 2.85714286,12.2142857 2.85714286,13.7142857 L2.85714286,14.5 C2.85714286,14.8571429 2.92857143,15.2142857 3,15.5 C1.5,15.7142857 0.285714286,17 0.285714286,18.5714286 L0.285714286,19.5714286 C0.285714286,21.1428571 1.42857143,22.4285714 3,22.6428571 C2.85714286,22.9285714 2.85714286,23.2857143 2.85714286,23.6428571 L2.85714286,24.5 C2.85714286,26.2142857 4.28571429,27.6428571 6,27.6428571 L7.57142857,27.6428571 L7.57142857,37.2857143 C7.57142857,37.8571429 8.07142857,38.3571429 8.64285714,38.3571429 L9.71428571,38.3571429 L9.71428571,38.5714286 C9.71428571,38.7857143 9.64285714,39.0714286 9.57142857,39.2857143 L8.85714286,41.5714286 L2.78571429,41.5714286 C2.21428571,41.5714286 1.71428571,42.0714286 1.71428571,42.6428571 L1.71428571,61.3571429 C1.71428571,61.9285714 2.21428571,62.4285714 2.78571429,62.4285714 L6.14285714,62.4285714 C6.42857143,63.7857143 7.64285714,64.7857143 9.07142857,64.7857143 L9.71428571,64.7857143 C10.0714286,64.7857143 10.3571429,64.7142857 10.6428571,64.6428571 C10.9285714,66.0714286 12.2142857,67.1428571 13.7142857,67.1428571 L14.5,67.1428571 C14.8571429,67.1428571 15.2142857,67.0714286 15.5,67 C15.7142857,68.5 17,69.7142857 18.5714286,69.7142857 L19.5714286,69.7142857 C21.1428571,69.7142857 22.4285714,68.5714286 22.6428571,67 C22.9285714,67.1428571 23.2857143,67.1428571 23.6428571,67.1428571 L24.5,67.1428571 C26.2142857,67.1428571 27.6428571,65.7142857 27.6428571,64 L27.6428571,62.4285714 L37.2857143,62.4285714 C37.8571429,62.4285714 38.3571429,61.9285714 38.3571429,61.3571429 L38.3571429,60.2857143 L38.5714286,60.2857143 C38.7857143,60.2857143 39.0714286,60.3571429 39.2857143,60.4285714 L41.5714286,61.1428571 L41.5714286,67.2142857 C41.5714286,67.7857143 42.0714286,68.2857143 42.6428571,68.2857143 L61.3571429,68.2857143 C61.9285714,68.2857143 62.4285714,67.7857143 62.4285714,67.2142857 L62.4285714,63.8571429 C63.7857143,63.5714286 64.7857143,62.3571429 64.7857143,60.9285714 L64.7857143,60.2857143 C64.7857143,59.9285714 64.7142857,59.6428571 64.6428571,59.3571429 C66.0714286,59.0714286 67.1428571,57.7857143 67.1428571,56.2857143 L67.1428571,55.5 C67.1428571,55.1428571 67.0714286,54.7857143 67,54.5 C68.5,54.2857143 69.7142857,53 69.7142857,51.4285714 L69.7142857,50.4285714 C69.7142857,48.7857143 68.5,47.5 67,47.2857143 Z M60.2857143,40.1428571 L60.2857143,40.1428571 C59.7857143,38.6428571 58.4285714,37.6428571 56.8571429,37.6428571 L51.4285714,37.6428571 C50.1428571,37.6428571 49,38 47.9285714,38.7857143 L43.7142857,41.7857143 L43.7142857,33.7142857 L60.2857143,33.7142857 C60.2857143,33.7142857 60.2857143,40.1428571 60.2857143,40.1428571 Z M37.3571429,41.6428571 L26.7142857,41.6428571 L26.7142857,41.6428571 C26.4285714,41.2142857 26.2857143,40.7857143 26.2857143,40.2857143 L26.2857143,38.4285714 L27.2857143,38.4285714 C27.8571429,38.4285714 28.3571429,37.9285714 28.3571429,37.3571429 L28.3571429,26.7142857 L28.3571429,26.7142857 C28.7857143,26.4285714 29.2142857,26.2857143 29.7142857,26.2857143 L31.5714286,26.2857143 L31.5714286,27.2857143 C31.5714286,27.8571429 32.0714286,28.3571429 32.6428571,28.3571429 L43.2142857,28.3571429 L43.2142857,28.3571429 C43.5,28.7857143 43.6428571,29.2142857 43.6428571,29.7142857 L43.6428571,31.5714286 L42.6428571,31.5714286 C42.0714286,31.5714286 41.5714286,32.0714286 41.5714286,32.6428571 L41.5714286,43.2142857 L41.5714286,43.2142857 C41.1428571,43.5 40.7142857,43.6428571 40.2142857,43.6428571 L38.3571429,43.6428571 L38.3571429,42.6428571 C38.4285714,42.0714286 37.9285714,41.6428571 37.3571429,41.6428571 Z M66.1428571,26.2142857 L61.8571429,26.2142857 L63.2857143,21.7142857 C63.7142857,20.4285714 63.9285714,19.0714286 63.9285714,17.7142857 L63.9285714,9.71428571 L66.1428571,9.71428571 L66.1428571,26.2142857 Z M44.4285714,16.1428571 L44.4285714,5.92857143 C44.4285714,5.35714286 44.8571429,4.92857143 45.4285714,4.92857143 L46.2857143,4.92857143 C46.8571429,4.92857143 47.2857143,5.35714286 47.2857143,5.92857143 L47.2857143,12.3571429 C47.2857143,12.9285714 47.7857143,13.4285714 48.3571429,13.4285714 C48.9285714,13.4285714 49.4285714,12.9285714 49.4285714,12.3571429 L49.4285714,3.42857143 C49.4285714,2.85714286 49.8571429,2.42857143 50.4285714,2.42857143 L51.4285714,2.42857143 C52,2.42857143 52.4285714,2.85714286 52.4285714,3.42857143 L52.4285714,12.4285714 C52.4285714,13 52.9285714,13.5 53.5,13.5 C54.0714286,13.5 54.5714286,13 54.5714286,12.4285714 L54.5714286,6 C54.5714286,5.42857143 55,5 55.5714286,5 L56.3571429,5 C56.9285714,5 57.3571429,5.42857143 57.3571429,6 L57.3571429,7.85714286 C57.3571429,7.92857143 57.3571429,8 57.3571429,8.07142857 C57.3571429,8.14285714 57.3571429,8.21428571 57.3571429,8.28571429 L57.3571429,12.5714286 C57.3571429,13.1428571 57.8571429,13.6428571 58.4285714,13.6428571 C59,13.6428571 59.5,13.1428571 59.5,12.5714286 L59.5,8.28571429 C59.5,7.78571429 59.9285714,7.42857143 60.3571429,7.42857143 L61,7.42857143 C61.5,7.42857143 61.8571429,7.85714286 61.8571429,8.28571429 L61.8571429,17.8571429 C61.8571429,19 61.6428571,20.1428571 61.3571429,21.2142857 L58.3571429,30 C58.2142857,30.4285714 58.1428571,30.9285714 58.1428571,31.3571429 L58.1428571,31.5714286 L45.8571429,31.5714286 L45.8571429,29.7142857 C45.8571429,28.7857143 45.5714286,27.8571429 45,27.1428571 L40.5,20.7857143 C40,20.1428571 39.7857143,19.3571429 39.7857143,18.5714286 L39.7857143,13.1428571 C39.7857143,12.5 40.2142857,11.9285714 40.7857143,11.7142857 L42.2857143,11.2142857 L42.2857143,16.1428571 C42.2857143,16.7142857 42.7857143,17.2142857 43.3571429,17.2142857 C43.9285714,17.2142857 44.4285714,16.7142857 44.4285714,16.1428571 Z M33.7142857,9.71428571 L40.0714286,9.71428571 L40.0714286,9.71428571 C38.5714286,10.2142857 37.5714286,11.5714286 37.5714286,13.1428571 L37.5714286,18.5714286 C37.5714286,19.8571429 37.9285714,21 38.7142857,22.0714286 L41.7142857,26.2857143 L33.7142857,26.2857143 L33.7142857,9.71428571 Z M26.2142857,3.85714286 L26.2142857,8.14285714 L21.7142857,6.71428571 C20.4285714,6.28571429 19.0714286,6.07142857 17.7142857,6.07142857 L9.71428571,6.07142857 L9.71428571,3.85714286 L26.2142857,3.85714286 Z M4.92857143,24.5714286 L4.92857143,23.7142857 C4.92857143,23.1428571 5.35714286,22.7142857 5.92857143,22.7142857 L12.3571429,22.7142857 C12.9285714,22.7142857 13.4285714,22.2142857 13.4285714,21.6428571 C13.4285714,21.0714286 12.9285714,20.5714286 12.3571429,20.5714286 L3.42857143,20.5714286 C2.85714286,20.5714286 2.42857143,20.1428571 2.42857143,19.5714286 L2.42857143,18.5714286 C2.42857143,18 2.85714286,17.5714286 3.42857143,17.5714286 L12.4285714,17.5714286 C13,17.5714286 13.5,17.0714286 13.5,16.5 C13.5,15.9285714 13,15.4285714 12.4285714,15.4285714 L6,15.4285714 C5.42857143,15.4285714 5,15 5,14.4285714 L5,13.6428571 C5,13.0714286 5.42857143,12.6428571 6,12.6428571 L7.85714286,12.6428571 C7.92857143,12.6428571 8,12.6428571 8.07142857,12.6428571 C8.14285714,12.6428571 8.21428571,12.6428571 8.28571429,12.6428571 L12.5714286,12.6428571 C13.1428571,12.6428571 13.6428571,12.1428571 13.6428571,11.5714286 C13.6428571,11 13.1428571,10.5 12.5714286,10.5 L8.28571429,10.5 C7.78571429,10.5 7.42857143,10.0714286 7.42857143,9.64285714 L7.42857143,9 C7.42857143,8.5 7.85714286,8.14285714 8.28571429,8.14285714 L17.8571429,8.14285714 C19,8.14285714 20.1428571,8.35714286 21.2142857,8.64285714 L30,11.6428571 C30.4285714,11.7857143 30.9285714,11.8571429 31.3571429,11.8571429 L31.5714286,11.8571429 L31.5714286,24.1428571 L29.7142857,24.1428571 C28.7857143,24.1428571 27.8571429,24.4285714 27.1428571,25 L20.7857143,29.5 C20.1428571,30 19.3571429,30.2142857 18.5714286,30.2142857 L13.1428571,30.2142857 C12.5,30.2142857 11.9285714,29.7857143 11.7142857,29.2142857 L11.2142857,27.7142857 L16.1428571,27.7142857 C16.7142857,27.7142857 17.2142857,27.2142857 17.2142857,26.6428571 C17.2142857,26.0714286 16.7142857,25.5714286 16.1428571,25.5714286 L5.92857143,25.5714286 C5.42857143,25.5714286 4.92857143,25.0714286 4.92857143,24.5714286 Z M9.71428571,29.8571429 L9.71428571,29.8571429 C10.2142857,31.3571429 11.5714286,32.3571429 13.1428571,32.3571429 L18.5714286,32.3571429 C19.8571429,32.3571429 21,32 22.0714286,31.2142857 L26.2857143,28.2142857 L26.2857143,36.2142857 L9.71428571,36.2142857 L9.71428571,29.8571429 Z M6.71428571,48.2857143 C6.28571429,49.5714286 6.07142857,50.9285714 6.07142857,52.2857143 L6.07142857,60.3571429 L3.85714286,60.3571429 L3.85714286,43.7857143 L8.14285714,43.7857143 L6.71428571,48.2857143 Z M25.5714286,53.8571429 L25.5714286,64.0714286 C25.5714286,64.6428571 25.1428571,65.0714286 24.5714286,65.0714286 L23.7142857,65.0714286 C23.1428571,65.0714286 22.7142857,64.6428571 22.7142857,64.0714286 L22.7142857,57.6428571 C22.7142857,57.0714286 22.2142857,56.5714286 21.6428571,56.5714286 C21.0714286,56.5714286 20.5714286,57.0714286 20.5714286,57.6428571 L20.5714286,66.6428571 C20.5714286,67.2142857 20.1428571,67.6428571 19.5714286,67.6428571 L18.5714286,67.6428571 C18,67.6428571 17.5714286,67.2142857 17.5714286,66.6428571 L17.5714286,57.5714286 C17.5714286,57 17.0714286,56.5 16.5,56.5 C15.9285714,56.5 15.4285714,57 15.4285714,57.5714286 L15.4285714,64 C15.4285714,64.5714286 15,65 14.4285714,65 L13.6428571,65 C13.0714286,65 12.6428571,64.5714286 12.6428571,64 L12.6428571,62.1428571 C12.6428571,62.0714286 12.6428571,62 12.6428571,61.9285714 C12.6428571,61.8571429 12.6428571,61.7857143 12.6428571,61.7142857 L12.6428571,57.4285714 C12.6428571,56.8571429 12.1428571,56.3571429 11.5714286,56.3571429 C11,56.3571429 10.5,56.8571429 10.5,57.4285714 L10.5,61.7142857 C10.5,62.2142857 10.0714286,62.5714286 9.64285714,62.5714286 L9,62.5714286 C8.5,62.5714286 8.14285714,62.1428571 8.14285714,61.7142857 L8.14285714,52.2857143 C8.14285714,51.1428571 8.35714286,50 8.64285714,48.9285714 L11.6428571,40 C11.7857143,39.5714286 11.8571429,39.0714286 11.8571429,38.6428571 L11.8571429,38.4285714 L24.1428571,38.4285714 L24.1428571,40.2857143 C24.1428571,41.2142857 24.4285714,42.1428571 25,42.8571429 L29.5,49.2142857 C30,49.8571429 30.2142857,50.6428571 30.2142857,51.4285714 L30.2142857,56.8571429 C30.2142857,57.5 29.7857143,58.0714286 29.2142857,58.2857143 L27.7142857,58.7857143 L27.7142857,53.8571429 C27.7142857,53.2857143 27.2142857,52.7857143 26.6428571,52.7857143 C26.0714286,52.7857143 25.5714286,53.2857143 25.5714286,53.8571429 Z M36.2857143,60.2857143 L29.9285714,60.2857143 L29.9285714,60.2857143 C31.4285714,59.7857143 32.4285714,58.4285714 32.4285714,56.8571429 L32.4285714,51.4285714 C32.4285714,50.1428571 32.0714286,49 31.2857143,47.9285714 L28.2857143,43.7142857 L36.2857143,43.7142857 C36.2857143,43.7142857 36.2857143,60.2857143 36.2857143,60.2857143 Z M43.7857143,66.1428571 L43.7857143,61.8571429 L48.2857143,63.2857143 C49.5714286,63.7142857 50.9285714,63.9285714 52.2857143,63.9285714 L60.3571429,63.9285714 L60.3571429,66.1428571 L43.7857143,66.1428571 Z M67.5714286,51.4285714 C67.5714286,52 67.1428571,52.4285714 66.5714286,52.4285714 L57.5714286,52.4285714 C57,52.4285714 56.5,52.9285714 56.5,53.5 C56.5,54.0714286 57,54.5714286 57.5714286,54.5714286 L64,54.5714286 C64.5714286,54.5714286 65,55 65,55.5714286 L65,56.3571429 C65,56.9285714 64.5714286,57.3571429 64,57.3571429 L62.1428571,57.3571429 C62.0714286,57.3571429 62,57.3571429 61.9285714,57.3571429 C61.8571429,57.3571429 61.7857143,57.3571429 61.7142857,57.3571429 L57.4285714,57.3571429 C56.8571429,57.3571429 56.3571429,57.8571429 56.3571429,58.4285714 C56.3571429,59 56.8571429,59.5 57.4285714,59.5 L61.7142857,59.5 C62.2142857,59.5 62.5714286,59.9285714 62.5714286,60.3571429 L62.5714286,61 C62.5714286,61.5 62.1428571,61.8571429 61.7142857,61.8571429 L52.2857143,61.8571429 C51.1428571,61.8571429 50,61.6428571 48.9285714,61.3571429 L40,58.3571429 C39.5714286,58.2142857 39.0714286,58.1428571 38.6428571,58.1428571 L38.4285714,58.1428571 L38.4285714,45.8571429 L40.2857143,45.8571429 C41.2142857,45.8571429 42.1428571,45.5714286 42.8571429,45 L49.2142857,40.5 C49.8571429,40 50.6428571,39.7857143 51.4285714,39.7857143 L56.8571429,39.7857143 C57.5,39.7857143 58.0714286,40.2142857 58.2857143,40.7857143 L58.7857143,42.2857143 L53.8571429,42.2857143 C53.2857143,42.2857143 52.7857143,42.7857143 52.7857143,43.3571429 C52.7857143,43.9285714 53.2857143,44.4285714 53.8571429,44.4285714 L64.0714286,44.4285714 C64.6428571,44.4285714 65.0714286,44.8571429 65.0714286,45.4285714 L65.0714286,46.2857143 C65.0714286,46.8571429 64.6428571,47.2857143 64.0714286,47.2857143 L57.6428571,47.2857143 C57.0714286,47.2857143 56.5714286,47.7857143 56.5714286,48.3571429 C56.5714286,48.9285714 57.0714286,49.4285714 57.6428571,49.4285714 L66.6428571,49.4285714 C67.2142857,49.4285714 67.6428571,49.8571429 67.6428571,50.4285714 L67.5714286,51.4285714 L67.5714286,51.4285714 Z" id="Shape"></path>
                    </g>
                </g>
                <rect id="Rectangle-2" x="0" y="0" width="112" height="112"></rect>
            </g>
        </g>
    </g>
</svg>