<?xml version="1.0" encoding="UTF-8"?>
<svg width="108px" height="108px" viewBox="0 0 108 108" version="1.1" xmlns="http://www.w3.org/2000/svg" xmlns:xlink="http://www.w3.org/1999/xlink">
    <!-- Generator: Sketch 44.1 (41455) - http://www.bohemiancoding.com/sketch -->
    <title>Group 22</title>
    <desc>Created with Sketch.</desc>
    <defs></defs>
    <g id="v7-draft" stroke="none" stroke-width="1" fill="none" fill-rule="evenodd">
        <g id="top_desktop_Signout_v6_02-Copy" transform="translate(-758.000000, -701.000000)">
            <g id="Group-22" transform="translate(756.000000, 699.000000)">
                <g id="Group" transform="translate(2.000000, 2.000000)">
                    <circle id="Oval-3-Copy-2" fill="#F7465B" cx="54" cy="54" r="54"></circle>
                    <g id="noun_61993_cc" transform="translate(20.000000, 24.000000)" stroke="#FFFFFF" stroke-width="0.8" fill="#FFFFFF" fill-rule="nonzero">
                        <path d="M67.2608696,6.6 L49.4478261,6.6 L48.2652174,6.6 C47.8956522,3.3 45.0869565,0.675 41.7608696,0.675 L26.2391304,0.675 C22.9130435,0.675 20.1043478,3.225 19.7347826,6.6 L18.626087,6.6 L0.739130435,6.6 C0.295652174,6.6 0,6.9 0,7.35 L0,55.5 C0,55.95 0.295652174,56.25 0.739130435,56.25 L67.2608696,56.25 C67.7043478,56.25 68,55.95 68,55.5 L68,7.35 C68,6.975 67.7043478,6.6 67.2608696,6.6 Z M46.4913043,8.1 L48.7086957,8.1 L48.7086957,11.1 L46.4913043,11.1 L46.4913043,8.1 Z M26.2391304,2.25 L41.7608696,2.25 C44.273913,2.25 46.4173913,4.125 46.7869565,6.675 L45.7521739,6.675 L44.4956522,6.675 C44.4956522,5.7 43.9043478,3.75 39.9130435,3.75 L28.1608696,3.75 C24.1695652,3.75 23.5782609,5.775 23.5782609,6.675 L22.3956522,6.675 L21.2869565,6.675 C21.5826087,4.125 23.6521739,2.25 26.2391304,2.25 Z M42.9434783,6.6 L25.0565217,6.6 C25.1304348,5.325 27.0521739,5.175 28.1608696,5.175 L39.9130435,5.175 C41.0217391,5.175 42.8695652,5.4 42.9434783,6.6 Z M21.5826087,8.1 L21.5826087,11.1 L19.3652174,11.1 L19.3652174,8.1 L21.5826087,8.1 Z M66.5217391,54.75 L1.47826087,54.75 L1.47826087,8.1 L17.8869565,8.1 L17.8869565,11.85 C17.8869565,12.3 18.1826087,12.6 18.626087,12.6 L22.3217391,12.6 C22.7652174,12.6 23.0608696,12.3 23.0608696,11.85 L23.0608696,8.1 L44.9391304,8.1 L44.9391304,11.85 C44.9391304,12.3 45.2347826,12.6 45.6782609,12.6 L49.373913,12.6 C49.8173913,12.6 50.1130435,12.3 50.1130435,11.85 L50.1130435,8.1 L66.5217391,8.1 L66.5217391,54.75 Z" id="Shape"></path>
                    </g>
                </g>
                <rect id="Rectangle-2" x="0" y="0" width="112" height="112"></rect>
            </g>
        </g>
    </g>
</svg>