<?xml version="1.0" encoding="UTF-8"?>
<svg width="38px" height="38px" viewBox="0 0 38 38" version="1.1" xmlns="http://www.w3.org/2000/svg" xmlns:xlink="http://www.w3.org/1999/xlink">
    <!-- Generator: Sketch 44.1 (41455) - http://www.bohemiancoding.com/sketch -->
    <title>Group 25</title>
    <desc>Created with Sketch.</desc>
    <defs></defs>
    <g id="v7-draft" stroke="none" stroke-width="1" fill="none" fill-rule="evenodd">
        <g id="top_desktop_Signout_v6_02-Copy" transform="translate(-972.000000, -2564.000000)">
            <g id="Group-25" transform="translate(972.000000, 2564.000000)">
                <g id="Group-24" fill="#F7455B">
                    <ellipse id="Oval-2-Copy-2" cx="18.6532663" cy="18.6779661" rx="18.6532663" ry="18.6779661"></ellipse>
                </g>
                <g id="Group-23" transform="translate(9.000000, 9.000000)" fill-rule="nonzero" fill="#FFFFFF">
                    <path d="M5.34820434,0 C2.39928675,0 0,2.40886957 0,5.36956522 L0,13.6304348 C0,16.5911304 2.39928675,19 5.34820434,19 L13.576211,19 C16.5251286,19 18.9244154,16.5911304 18.9244154,13.6304348 L18.9244154,5.36956522 C18.9244154,2.40886957 16.5251286,0 13.576211,0 L5.34820434,0 Z M14.810412,3.30434783 C15.2650094,3.30434783 15.6332127,3.67402174 15.6332127,4.13043478 C15.6332127,4.58684783 15.2650094,4.95652174 14.810412,4.95652174 C14.3558147,4.95652174 13.9876114,4.58684783 13.9876114,4.13043478 C13.9876114,3.67402174 14.3558147,3.30434783 14.810412,3.30434783 Z M9.46220768,4.54347826 C12.1844437,4.54347826 14.3990117,6.7668913 14.3990117,9.5 C14.3990117,12.2331087 12.1844437,14.4565217 9.46220768,14.4565217 C6.73997167,14.4565217 4.52540367,12.2331087 4.52540367,9.5 C4.52540367,6.7668913 6.73997167,4.54347826 9.46220768,4.54347826 Z M9.46220768,5.36956522 C7.19374624,5.36956522 5.34820434,7.22247826 5.34820434,9.5 C5.34820434,11.7775217 7.19374624,13.6304348 9.46220768,13.6304348 C11.7306691,13.6304348 13.576211,11.7775217 13.576211,9.5 C13.576211,7.22247826 11.7306691,5.36956522 9.46220768,5.36956522 Z" id="Shape"></path>
                </g>
            </g>
        </g>
    </g>
</svg>