<?xml version="1.0" encoding="UTF-8"?>
<svg width="129px" height="145px" viewBox="0 0 129 145" version="1.1" xmlns="http://www.w3.org/2000/svg" xmlns:xlink="http://www.w3.org/1999/xlink">
    <!-- Generator: Sketch 44.1 (41455) - http://www.bohemiancoding.com/sketch -->
    <title>Group 14</title>
    <desc>Created with Sketch.</desc>
    <defs></defs>
    <g id="v7-draft" stroke="none" stroke-width="1" fill="none" fill-rule="evenodd">
        <g id="top_desktop_Signout_v6_02" transform="translate(-468.000000, -2565.000000)" fill-rule="nonzero">
            <g id="Group-14" transform="translate(444.000000, 2548.000000)">
                <g id="Group-10" transform="translate(25.000000, 18.000000)">
                    <g id="noun_286674_cc" transform="translate(0.149590, 0.000000)" stroke="#000000" fill="#000000">
                        <path d="M96.950635,0.0866776044 C96.1168634,0.0866776044 95.5610156,0.640019223 95.5610156,1.47003165 C95.5610156,2.30004408 96.1168634,2.8533857 96.950635,2.8533857 C97.7844066,2.8533857 98.3402544,2.16170867 98.3402544,1.47003165 C98.3402544,0.778354628 97.6454447,0.0866776044 96.950635,0.0866776044 Z M96.950635,5.75842919 C96.1168634,5.75842919 95.5610156,6.45010622 95.5610156,7.14178324 C95.5610156,7.97179567 96.1168634,8.52513729 96.950635,8.52513729 C97.7844066,8.52513729 98.3402544,7.97179567 98.3402544,7.14178324 C98.3402544,6.45010622 97.6454447,5.75842919 96.950635,5.75842919 Z M102.509113,5.75842919 C101.675341,5.75842919 101.119493,6.45010622 101.119493,7.14178324 C101.119493,7.97179567 101.814303,8.52513729 102.509113,8.52513729 C103.203922,8.52513729 103.898732,7.97179567 103.898732,7.14178324 C103.898732,6.45010622 103.342884,5.75842919 102.509113,5.75842919 Z M96.950635,11.2918454 C96.1168634,11.2918454 95.5610156,11.9835224 95.5610156,12.6751994 C95.5610156,13.5052119 96.1168634,14.0585535 96.950635,14.0585535 C97.7844066,14.0585535 98.3402544,13.5052119 98.3402544,12.6751994 C98.3402544,11.9835224 97.6454447,11.2918454 96.950635,11.2918454 Z M102.509113,11.2918454 C101.675341,11.2918454 101.119493,11.9835224 101.119493,12.6751994 C101.119493,13.5052119 101.814303,14.0585535 102.509113,14.0585535 C103.203922,14.0585535 103.898732,13.5052119 103.898732,12.6751994 C103.898732,11.9835224 103.342884,11.2918454 102.509113,11.2918454 Z M108.206552,11.2918454 C107.37278,11.2918454 106.816933,11.9835224 106.816933,12.6751994 C106.816933,13.5052119 107.37278,14.0585535 108.206552,14.0585535 C109.040324,14.0585535 109.596171,13.5052119 109.596171,12.6751994 C109.596171,11.9835224 108.901362,11.2918454 108.206552,11.2918454 Z M125.020947,11.2918454 C124.187175,11.2918454 123.631327,11.845187 123.631327,12.6751994 C123.631327,13.5052119 124.187175,14.0585535 125.020947,14.0585535 C125.854718,14.0585535 126.410566,13.5052119 126.410566,12.6751994 C126.410566,11.845187 125.715756,11.2918454 125.020947,11.2918454 Z M113.76503,16.963597 C112.931258,16.963597 112.37541,17.5169386 112.37541,18.346951 C112.37541,19.1769634 112.931258,19.7303051 113.76503,19.7303051 C114.598801,19.7303051 115.154649,19.038628 115.154649,18.346951 C115.154649,17.5169386 114.459839,16.963597 113.76503,16.963597 Z M119.323507,16.963597 C118.489736,16.963597 117.933888,17.5169386 117.933888,18.346951 C117.933888,19.1769634 118.628698,19.7303051 119.323507,19.7303051 C120.018317,19.7303051 120.713127,19.038628 120.713127,18.346951 C120.713127,17.5169386 120.157279,16.963597 119.323507,16.963597 Z M96.950635,16.963597 C96.1168634,16.963597 95.5610156,17.5169386 95.5610156,18.346951 C95.5610156,19.1769634 96.1168634,19.7303051 96.950635,19.7303051 C97.7844066,19.7303051 98.3402544,19.1769634 98.3402544,18.346951 C98.3402544,17.5169386 97.6454447,16.963597 96.950635,16.963597 Z M102.509113,16.963597 C101.675341,16.963597 101.119493,17.5169386 101.119493,18.346951 C101.119493,19.1769634 101.814303,19.7303051 102.509113,19.7303051 C103.203922,19.7303051 103.898732,19.1769634 103.898732,18.346951 C103.898732,17.5169386 103.342884,16.963597 102.509113,16.963597 Z M108.206552,16.963597 C107.37278,16.963597 106.816933,17.5169386 106.816933,18.346951 C106.816933,19.1769634 107.37278,19.7303051 108.206552,19.7303051 C109.040324,19.7303051 109.596171,19.1769634 109.596171,18.346951 C109.596171,17.5169386 108.901362,16.963597 108.206552,16.963597 Z M113.76503,22.4970132 C112.931258,22.4970132 112.37541,23.1886902 112.37541,23.8803672 C112.37541,24.5720442 112.931258,25.2637212 113.76503,25.2637212 C114.598801,25.2637212 115.154649,24.7103796 115.154649,23.8803672 C115.154649,23.0503548 114.459839,22.4970132 113.76503,22.4970132 Z M119.323507,22.4970132 C118.489736,22.4970132 117.933888,23.1886902 117.933888,23.8803672 C117.933888,24.5720442 118.628698,25.2637212 119.323507,25.2637212 C120.018317,25.2637212 120.713127,24.7103796 120.713127,23.8803672 C120.713127,23.0503548 120.157279,22.4970132 119.323507,22.4970132 Z M125.020947,22.4970132 C124.187175,22.4970132 123.631327,23.1886902 123.631327,23.8803672 C123.631327,24.5720442 124.187175,25.2637212 125.020947,25.2637212 C125.854718,25.2637212 126.410566,24.7103796 126.410566,23.8803672 C126.410566,23.0503548 125.715756,22.4970132 125.020947,22.4970132 Z M91.2531955,22.4970132 C90.4194239,22.4970132 89.8635761,23.1886902 89.8635761,23.8803672 C89.8635761,24.5720442 90.4194239,25.2637212 91.2531955,25.2637212 C92.0869671,25.2637212 92.6428149,24.7103796 92.6428149,23.8803672 C92.6428149,23.0503548 92.0869671,22.4970132 91.2531955,22.4970132 Z M96.950635,22.4970132 C96.1168634,22.4970132 95.5610156,23.1886902 95.5610156,23.8803672 C95.5610156,24.5720442 96.1168634,25.2637212 96.950635,25.2637212 C97.7844066,25.2637212 98.3402544,24.7103796 98.3402544,23.8803672 C98.3402544,23.0503548 97.6454447,22.4970132 96.950635,22.4970132 Z M102.509113,22.4970132 C101.675341,22.4970132 101.119493,23.1886902 101.119493,23.8803672 C101.119493,24.5720442 101.814303,25.2637212 102.509113,25.2637212 C103.203922,25.2637212 103.898732,24.7103796 103.898732,23.8803672 C103.898732,23.0503548 103.342884,22.4970132 102.509113,22.4970132 Z M108.206552,22.4970132 C107.37278,22.4970132 106.816933,23.1886902 106.816933,23.8803672 C106.816933,24.5720442 107.37278,25.2637212 108.206552,25.2637212 C109.040324,25.2637212 109.596171,24.7103796 109.596171,23.8803672 C109.596171,23.0503548 108.901362,22.4970132 108.206552,22.4970132 Z M85.6947179,28.1687647 C84.8609463,28.1687647 84.3050985,28.8604418 84.3050985,29.5521188 C84.3050985,30.3821312 84.9999082,30.9354728 85.6947179,30.9354728 C86.3895276,30.9354728 87.0843373,30.3821312 87.0843373,29.5521188 C87.0843373,28.7221064 86.5284896,28.1687647 85.6947179,28.1687647 Z M91.2531955,28.1687647 C90.4194239,28.1687647 89.8635761,28.8604418 89.8635761,29.5521188 C89.8635761,30.3821312 90.4194239,30.9354728 91.2531955,30.9354728 C92.0869671,30.9354728 92.6428149,30.3821312 92.6428149,29.5521188 C92.6428149,28.7221064 92.0869671,28.1687647 91.2531955,28.1687647 Z M96.950635,28.1687647 C96.1168634,28.1687647 95.5610156,28.8604418 95.5610156,29.5521188 C95.5610156,30.3821312 96.1168634,30.9354728 96.950635,30.9354728 C97.7844066,30.9354728 98.3402544,30.3821312 98.3402544,29.5521188 C98.3402544,28.7221064 97.6454447,28.1687647 96.950635,28.1687647 Z M102.509113,28.1687647 C101.675341,28.1687647 101.119493,28.8604418 101.119493,29.5521188 C101.119493,30.3821312 101.814303,30.9354728 102.509113,30.9354728 C103.203922,30.9354728 103.898732,30.3821312 103.898732,29.5521188 C103.898732,28.7221064 103.342884,28.1687647 102.509113,28.1687647 Z M108.206552,28.1687647 C107.37278,28.1687647 106.816933,28.8604418 106.816933,29.5521188 C106.816933,30.3821312 107.37278,30.9354728 108.206552,30.9354728 C109.040324,30.9354728 109.596171,30.3821312 109.596171,29.5521188 C109.596171,28.7221064 108.901362,28.1687647 108.206552,28.1687647 Z M85.6947179,33.7021809 C84.8609463,33.7021809 84.3050985,34.2555226 84.3050985,35.085535 C84.3050985,35.9155474 84.9999082,36.468889 85.6947179,36.468889 C86.3895276,36.468889 87.0843373,35.9155474 87.0843373,35.085535 C87.0843373,34.2555226 86.5284896,33.7021809 85.6947179,33.7021809 Z M91.2531955,33.7021809 C90.4194239,33.7021809 89.8635761,34.2555226 89.8635761,35.085535 C89.8635761,35.9155474 90.4194239,36.468889 91.2531955,36.468889 C92.0869671,36.468889 92.6428149,35.9155474 92.6428149,35.085535 C92.6428149,34.2555226 92.0869671,33.7021809 91.2531955,33.7021809 Z M108.206552,33.7021809 C107.37278,33.7021809 106.816933,34.2555226 106.816933,35.085535 C106.816933,35.9155474 107.37278,36.468889 108.206552,36.468889 C109.040324,36.468889 109.596171,35.9155474 109.596171,35.085535 C109.596171,34.2555226 108.901362,33.7021809 108.206552,33.7021809 Z M85.6947179,39.3739325 C84.8609463,39.3739325 84.3050985,39.9272741 84.3050985,40.7572866 C84.3050985,41.587299 84.9999082,42.1406406 85.6947179,42.1406406 C86.3895276,42.1406406 87.0843373,41.4489636 87.0843373,40.7572866 C87.0843373,39.9272741 86.5284896,39.3739325 85.6947179,39.3739325 Z M91.2531955,39.3739325 C90.4194239,39.3739325 89.8635761,39.9272741 89.8635761,40.7572866 C89.8635761,41.587299 90.4194239,42.1406406 91.2531955,42.1406406 C92.0869671,42.1406406 92.6428149,41.4489636 92.6428149,40.7572866 C92.6428149,39.9272741 92.0869671,39.3739325 91.2531955,39.3739325 Z M85.6947179,44.9073487 C84.8609463,44.9073487 84.3050985,45.4606903 84.3050985,46.2907028 C84.3050985,47.1207152 84.9999082,47.6740568 85.6947179,47.6740568 C86.3895276,47.6740568 87.0843373,47.1207152 87.0843373,46.2907028 C87.0843373,45.4606903 86.5284896,44.9073487 85.6947179,44.9073487 Z M91.2531955,44.9073487 C90.4194239,44.9073487 89.8635761,45.4606903 89.8635761,46.2907028 C89.8635761,47.1207152 90.4194239,47.6740568 91.2531955,47.6740568 C92.0869671,47.6740568 92.6428149,47.1207152 92.6428149,46.2907028 C92.6428149,45.4606903 92.0869671,44.9073487 91.2531955,44.9073487 Z M85.6947179,50.4407649 C84.8609463,50.4407649 84.3050985,50.9941065 84.3050985,51.8241189 C84.3050985,52.6541314 84.9999082,53.207473 85.6947179,53.207473 C86.3895276,53.207473 87.0843373,52.515796 87.0843373,51.8241189 C87.0843373,51.1324419 86.5284896,50.4407649 85.6947179,50.4407649 Z M91.2531955,50.4407649 C90.4194239,50.4407649 89.8635761,50.9941065 89.8635761,51.8241189 C89.8635761,52.6541314 90.4194239,53.207473 91.2531955,53.207473 C92.0869671,53.207473 92.6428149,52.515796 92.6428149,51.8241189 C92.6428149,51.1324419 92.0869671,50.4407649 91.2531955,50.4407649 Z M96.950635,50.4407649 C96.1168634,50.4407649 95.5610156,50.9941065 95.5610156,51.8241189 C95.5610156,52.6541314 96.1168634,53.207473 96.950635,53.207473 C97.7844066,53.207473 98.3402544,52.515796 98.3402544,51.8241189 C98.3402544,51.1324419 97.6454447,50.4407649 96.950635,50.4407649 Z M85.6947179,56.1125165 C84.8609463,56.1125165 84.3050985,56.6658581 84.3050985,57.4958705 C84.3050985,58.325883 84.9999082,58.8792246 85.6947179,58.8792246 C86.3895276,58.8792246 87.0843373,58.1875476 87.0843373,57.4958705 C87.0843373,56.8041935 86.5284896,56.1125165 85.6947179,56.1125165 Z M91.2531955,56.1125165 C90.4194239,56.1125165 89.8635761,56.6658581 89.8635761,57.4958705 C89.8635761,58.325883 90.4194239,58.8792246 91.2531955,58.8792246 C92.0869671,58.8792246 92.6428149,58.1875476 92.6428149,57.4958705 C92.6428149,56.8041935 92.0869671,56.1125165 91.2531955,56.1125165 Z M96.950635,56.1125165 C96.1168634,56.1125165 95.5610156,56.6658581 95.5610156,57.4958705 C95.5610156,58.325883 96.1168634,58.8792246 96.950635,58.8792246 C97.7844066,58.8792246 98.3402544,58.1875476 98.3402544,57.4958705 C98.3402544,56.8041935 97.6454447,56.1125165 96.950635,56.1125165 Z M85.6947179,61.6459327 C84.8609463,61.6459327 84.3050985,62.3376097 84.3050985,63.0292867 C84.3050985,63.7209637 84.9999082,64.4126408 85.6947179,64.4126408 C86.3895276,64.4126408 87.0843373,63.8592991 87.0843373,63.0292867 C87.0843373,62.1992743 86.5284896,61.6459327 85.6947179,61.6459327 Z M91.2531955,61.6459327 C90.4194239,61.6459327 89.8635761,62.3376097 89.8635761,63.0292867 C89.8635761,63.7209637 90.4194239,64.4126408 91.2531955,64.4126408 C92.0869671,64.4126408 92.6428149,63.8592991 92.6428149,63.0292867 C92.6428149,62.1992743 92.0869671,61.6459327 91.2531955,61.6459327 Z M96.950635,61.6459327 C96.1168634,61.6459327 95.5610156,62.3376097 95.5610156,63.0292867 C95.5610156,63.7209637 96.1168634,64.4126408 96.950635,64.4126408 C97.7844066,64.4126408 98.3402544,63.8592991 98.3402544,63.0292867 C98.3402544,62.1992743 97.6454447,61.6459327 96.950635,61.6459327 Z M85.6947179,67.3176843 C84.8609463,67.3176843 84.3050985,67.8710259 84.3050985,68.7010383 C84.3050985,69.5310507 84.9999082,70.0843924 85.6947179,70.0843924 C86.3895276,70.0843924 87.0843373,69.3927153 87.0843373,68.7010383 C87.0843373,68.0093613 86.5284896,67.3176843 85.6947179,67.3176843 Z M91.2531955,67.3176843 C90.4194239,67.3176843 89.8635761,67.8710259 89.8635761,68.7010383 C89.8635761,69.5310507 90.4194239,70.0843924 91.2531955,70.0843924 C92.0869671,70.0843924 92.6428149,69.3927153 92.6428149,68.7010383 C92.6428149,68.0093613 92.0869671,67.3176843 91.2531955,67.3176843 Z M74.4388009,72.8511004 C73.6050292,72.8511004 73.0491815,73.4044421 73.0491815,74.2344545 C73.0491815,75.0644669 73.7439912,75.6178085 74.4388009,75.6178085 C75.1336106,75.6178085 75.8284203,74.9261315 75.8284203,74.2344545 C75.8284203,73.5427775 75.2725725,72.8511004 74.4388009,72.8511004 Z M80.1362404,72.8511004 C79.3024687,72.8511004 78.746621,73.4044421 78.746621,74.2344545 C78.746621,75.0644669 79.3024687,75.6178085 80.1362404,75.6178085 C80.970012,75.6178085 81.5258598,74.9261315 81.5258598,74.2344545 C81.5258598,73.5427775 80.8310501,72.8511004 80.1362404,72.8511004 Z M85.6947179,72.8511004 C84.8609463,72.8511004 84.3050985,73.4044421 84.3050985,74.2344545 C84.3050985,75.0644669 84.9999082,75.6178085 85.6947179,75.6178085 C86.3895276,75.6178085 87.0843373,74.9261315 87.0843373,74.2344545 C87.0843373,73.5427775 86.5284896,72.8511004 85.6947179,72.8511004 Z M91.2531955,72.8511004 C90.4194239,72.8511004 89.8635761,73.4044421 89.8635761,74.2344545 C89.8635761,75.0644669 90.4194239,75.6178085 91.2531955,75.6178085 C92.0869671,75.6178085 92.6428149,74.9261315 92.6428149,74.2344545 C92.6428149,73.5427775 92.0869671,72.8511004 91.2531955,72.8511004 Z M63.1828838,78.3845166 C62.3491122,78.3845166 61.7932644,79.0761937 61.7932644,79.7678707 C61.7932644,80.5978831 62.4880741,81.1512247 63.1828838,81.1512247 C63.8776935,81.1512247 64.5725032,80.5978831 64.5725032,79.7678707 C64.5725032,79.0761937 64.0166554,78.3845166 63.1828838,78.3845166 Z M74.4388009,78.3845166 C73.6050292,78.3845166 73.0491815,79.0761937 73.0491815,79.7678707 C73.0491815,80.5978831 73.7439912,81.1512247 74.4388009,81.1512247 C75.1336106,81.1512247 75.8284203,80.5978831 75.8284203,79.7678707 C75.8284203,79.0761937 75.2725725,78.3845166 74.4388009,78.3845166 Z M80.1362404,78.3845166 C79.3024687,78.3845166 78.746621,79.0761937 78.746621,79.7678707 C78.746621,80.5978831 79.3024687,81.1512247 80.1362404,81.1512247 C80.970012,81.1512247 81.5258598,80.5978831 81.5258598,79.7678707 C81.5258598,79.0761937 80.8310501,78.3845166 80.1362404,78.3845166 Z M85.6947179,78.3845166 C84.8609463,78.3845166 84.3050985,79.0761937 84.3050985,79.7678707 C84.3050985,80.5978831 84.9999082,81.1512247 85.6947179,81.1512247 C86.3895276,81.1512247 87.0843373,80.5978831 87.0843373,79.7678707 C87.0843373,79.0761937 86.5284896,78.3845166 85.6947179,78.3845166 Z M91.2531955,78.3845166 C90.4194239,78.3845166 89.8635761,79.0761937 89.8635761,79.7678707 C89.8635761,80.5978831 90.4194239,81.1512247 91.2531955,81.1512247 C92.0869671,81.1512247 92.6428149,80.5978831 92.6428149,79.7678707 C92.6428149,79.0761937 92.0869671,78.3845166 91.2531955,78.3845166 Z M63.1828838,84.0562682 C62.3491122,84.0562682 61.7932644,84.7479452 61.7932644,85.4396223 C61.7932644,86.1312993 62.4880741,86.8229763 63.1828838,86.8229763 C63.8776935,86.8229763 64.5725032,86.2696347 64.5725032,85.4396223 C64.5725032,84.6096098 64.0166554,84.0562682 63.1828838,84.0562682 Z M68.8803233,84.0562682 C68.0465517,84.0562682 67.4907039,84.7479452 67.4907039,85.4396223 C67.4907039,86.1312993 68.0465517,86.8229763 68.8803233,86.8229763 C69.7140949,86.8229763 70.2699427,86.2696347 70.2699427,85.4396223 C70.2699427,84.6096098 69.575133,84.0562682 68.8803233,84.0562682 Z M74.4388009,84.0562682 C73.6050292,84.0562682 73.0491815,84.7479452 73.0491815,85.4396223 C73.0491815,86.1312993 73.7439912,86.8229763 74.4388009,86.8229763 C75.1336106,86.8229763 75.8284203,86.2696347 75.8284203,85.4396223 C75.8284203,84.6096098 75.2725725,84.0562682 74.4388009,84.0562682 Z M80.1362404,84.0562682 C79.3024687,84.0562682 78.746621,84.7479452 78.746621,85.4396223 C78.746621,86.1312993 79.3024687,86.8229763 80.1362404,86.8229763 C80.970012,86.8229763 81.5258598,86.2696347 81.5258598,85.4396223 C81.5258598,84.6096098 80.8310501,84.0562682 80.1362404,84.0562682 Z M85.6947179,84.0562682 C84.8609463,84.0562682 84.3050985,84.7479452 84.3050985,85.4396223 C84.3050985,86.1312993 84.9999082,86.8229763 85.6947179,86.8229763 C86.3895276,86.8229763 87.0843373,86.2696347 87.0843373,85.4396223 C87.0843373,84.6096098 86.5284896,84.0562682 85.6947179,84.0562682 Z M57.6244062,89.5896844 C56.7906346,89.5896844 56.2347868,90.143026 56.2347868,90.9730385 C56.2347868,91.8030509 56.9295965,92.3563925 57.6244062,92.3563925 C58.3192159,92.3563925 59.0140256,91.8030509 59.0140256,90.9730385 C59.0140256,90.2813614 58.3192159,89.5896844 57.6244062,89.5896844 Z M63.1828838,89.5896844 C62.3491122,89.5896844 61.7932644,90.143026 61.7932644,90.9730385 C61.7932644,91.8030509 62.4880741,92.3563925 63.1828838,92.3563925 C63.8776935,92.3563925 64.5725032,91.8030509 64.5725032,90.9730385 C64.5725032,90.2813614 64.0166554,89.5896844 63.1828838,89.5896844 Z M68.8803233,89.5896844 C68.0465517,89.5896844 67.4907039,90.143026 67.4907039,90.9730385 C67.4907039,91.8030509 68.0465517,92.3563925 68.8803233,92.3563925 C69.7140949,92.3563925 70.2699427,91.8030509 70.2699427,90.9730385 C70.2699427,90.2813614 69.575133,89.5896844 68.8803233,89.5896844 Z M74.4388009,89.5896844 C73.6050292,89.5896844 73.0491815,90.143026 73.0491815,90.9730385 C73.0491815,91.8030509 73.7439912,92.3563925 74.4388009,92.3563925 C75.1336106,92.3563925 75.8284203,91.8030509 75.8284203,90.9730385 C75.8284203,90.2813614 75.2725725,89.5896844 74.4388009,89.5896844 Z M80.1362404,89.5896844 C79.3024687,89.5896844 78.746621,90.143026 78.746621,90.9730385 C78.746621,91.8030509 79.3024687,92.3563925 80.1362404,92.3563925 C80.970012,92.3563925 81.5258598,91.8030509 81.5258598,90.9730385 C81.5258598,90.2813614 80.8310501,89.5896844 80.1362404,89.5896844 Z M85.6947179,89.5896844 C84.8609463,89.5896844 84.3050985,90.143026 84.3050985,90.9730385 C84.3050985,91.8030509 84.9999082,92.3563925 85.6947179,92.3563925 C86.3895276,92.3563925 87.0843373,91.8030509 87.0843373,90.9730385 C87.0843373,90.2813614 86.5284896,89.5896844 85.6947179,89.5896844 Z M46.3684892,95.261436 C45.5347175,95.261436 44.9788698,95.8147776 44.9788698,96.64479 C44.9788698,97.4748025 45.5347175,98.0281441 46.3684892,98.0281441 C47.2022608,98.0281441 47.7581085,97.4748025 47.7581085,96.64479 C47.7581085,95.8147776 47.2022608,95.261436 46.3684892,95.261436 Z M35.1125721,95.261436 C34.2788004,95.261436 33.7229527,95.8147776 33.7229527,96.64479 C33.7229527,97.4748025 34.2788004,98.0281441 35.1125721,98.0281441 C35.9463437,98.0281441 36.5021915,97.4748025 36.5021915,96.64479 C36.5021915,95.8147776 35.9463437,95.261436 35.1125721,95.261436 Z M40.6710496,95.261436 C39.837278,95.261436 39.2814303,95.8147776 39.2814303,96.64479 C39.2814303,97.4748025 39.837278,98.0281441 40.6710496,98.0281441 C41.5048213,98.0281441 42.060669,97.4748025 42.060669,96.64479 C42.199631,95.8147776 41.5048213,95.261436 40.6710496,95.261436 Z M52.0659287,95.261436 C51.232157,95.261436 50.6763093,95.8147776 50.6763093,96.64479 C50.6763093,97.4748025 51.232157,98.0281441 52.0659287,98.0281441 C52.8997003,98.0281441 53.455548,97.3364671 53.455548,96.64479 C53.455548,95.8147776 52.7607384,95.261436 52.0659287,95.261436 Z M57.6244062,95.261436 C56.7906346,95.261436 56.2347868,95.8147776 56.2347868,96.64479 C56.2347868,97.4748025 56.9295965,98.0281441 57.6244062,98.0281441 C58.3192159,98.0281441 59.0140256,97.3364671 59.0140256,96.64479 C59.0140256,95.8147776 58.3192159,95.261436 57.6244062,95.261436 Z M63.1828838,95.261436 C62.3491122,95.261436 61.7932644,95.8147776 61.7932644,96.64479 C61.7932644,97.4748025 62.4880741,98.0281441 63.1828838,98.0281441 C63.8776935,98.0281441 64.5725032,97.3364671 64.5725032,96.64479 C64.5725032,95.8147776 64.0166554,95.261436 63.1828838,95.261436 Z M68.8803233,95.261436 C68.0465517,95.261436 67.4907039,95.8147776 67.4907039,96.64479 C67.4907039,97.4748025 68.0465517,98.0281441 68.8803233,98.0281441 C69.7140949,98.0281441 70.2699427,97.3364671 70.2699427,96.64479 C70.2699427,95.8147776 69.575133,95.261436 68.8803233,95.261436 Z M74.4388009,95.261436 C73.6050292,95.261436 73.0491815,95.8147776 73.0491815,96.64479 C73.0491815,97.4748025 73.7439912,98.0281441 74.4388009,98.0281441 C75.1336106,98.0281441 75.8284203,97.3364671 75.8284203,96.64479 C75.8284203,95.8147776 75.2725725,95.261436 74.4388009,95.261436 Z M80.1362404,95.261436 C79.3024687,95.261436 78.746621,95.8147776 78.746621,96.64479 C78.746621,97.4748025 79.3024687,98.0281441 80.1362404,98.0281441 C80.970012,98.0281441 81.5258598,97.3364671 81.5258598,96.64479 C81.5258598,95.8147776 80.8310501,95.261436 80.1362404,95.261436 Z M85.6947179,95.261436 C84.8609463,95.261436 84.3050985,95.8147776 84.3050985,96.64479 C84.3050985,97.4748025 84.9999082,98.0281441 85.6947179,98.0281441 C86.3895276,98.0281441 87.0843373,97.3364671 87.0843373,96.64479 C87.0843373,95.8147776 86.5284896,95.261436 85.6947179,95.261436 Z M46.3684892,100.794852 C45.5347175,100.794852 44.9788698,101.348194 44.9788698,102.178206 C44.9788698,103.008219 45.5347175,103.56156 46.3684892,103.56156 C47.2022608,103.56156 47.7581085,102.869883 47.7581085,102.178206 C47.7581085,101.348194 47.2022608,100.794852 46.3684892,100.794852 Z M7.04226038,100.794852 C6.20848874,100.794852 5.65264099,101.348194 5.65264099,102.178206 C5.65264099,103.008219 6.20848874,103.56156 7.04226038,103.56156 C7.87603201,103.56156 8.43187977,102.869883 8.43187977,102.178206 C8.43187977,101.486529 7.87603201,100.794852 7.04226038,100.794852 Z M23.995617,100.794852 C23.1618453,100.794852 22.6059976,101.348194 22.6059976,102.178206 C22.6059976,103.008219 23.3008073,103.56156 23.995617,103.56156 C24.6904266,103.56156 25.3852363,102.869883 25.3852363,102.178206 C25.3852363,101.486529 24.6904266,100.794852 23.995617,100.794852 Z M29.5540945,100.794852 C28.7203229,100.794852 28.1644751,101.348194 28.1644751,102.178206 C28.1644751,103.008219 28.7203229,103.56156 29.5540945,103.56156 C30.3878662,103.56156 30.9437139,102.869883 30.9437139,102.178206 C30.9437139,101.486529 30.2489042,100.794852 29.5540945,100.794852 Z M35.1125721,100.794852 C34.2788004,100.794852 33.7229527,101.348194 33.7229527,102.178206 C33.7229527,103.008219 34.2788004,103.56156 35.1125721,103.56156 C35.9463437,103.56156 36.5021915,102.869883 36.5021915,102.178206 C36.5021915,101.486529 35.9463437,100.794852 35.1125721,100.794852 Z M40.6710496,100.794852 C39.837278,100.794852 39.2814303,101.348194 39.2814303,102.178206 C39.2814303,103.008219 39.837278,103.56156 40.6710496,103.56156 C41.5048213,103.56156 42.060669,102.869883 42.060669,102.178206 C42.060669,101.486529 41.5048213,100.794852 40.6710496,100.794852 Z M52.0659287,100.794852 C51.232157,100.794852 50.6763093,101.348194 50.6763093,102.178206 C50.6763093,103.008219 51.232157,103.56156 52.0659287,103.56156 C52.8997003,103.56156 53.455548,102.869883 53.455548,102.178206 C53.455548,101.486529 52.7607384,100.794852 52.0659287,100.794852 Z M57.6244062,100.794852 C56.7906346,100.794852 56.2347868,101.348194 56.2347868,102.178206 C56.2347868,103.008219 56.9295965,103.56156 57.6244062,103.56156 C58.3192159,103.56156 59.0140256,102.869883 59.0140256,102.178206 C59.0140256,101.486529 58.3192159,100.794852 57.6244062,100.794852 Z M63.1828838,100.794852 C62.3491122,100.794852 61.7932644,101.348194 61.7932644,102.178206 C61.7932644,103.008219 62.4880741,103.56156 63.1828838,103.56156 C63.8776935,103.56156 64.5725032,102.869883 64.5725032,102.178206 C64.5725032,101.486529 64.0166554,100.794852 63.1828838,100.794852 Z M68.8803233,100.794852 C68.0465517,100.794852 67.4907039,101.348194 67.4907039,102.178206 C67.4907039,103.008219 68.0465517,103.56156 68.8803233,103.56156 C69.7140949,103.56156 70.2699427,102.869883 70.2699427,102.178206 C70.2699427,101.486529 69.575133,100.794852 68.8803233,100.794852 Z M74.4388009,100.794852 C73.6050292,100.794852 73.0491815,101.348194 73.0491815,102.178206 C73.0491815,103.008219 73.7439912,103.56156 74.4388009,103.56156 C75.1336106,103.56156 75.8284203,102.869883 75.8284203,102.178206 C75.8284203,101.486529 75.2725725,100.794852 74.4388009,100.794852 Z M46.3684892,106.328268 C45.5347175,106.328268 44.9788698,106.88161 44.9788698,107.711622 C44.9788698,108.541635 45.5347175,109.094976 46.3684892,109.094976 C47.2022608,109.094976 47.7581085,108.403299 47.7581085,107.711622 C47.7581085,107.019945 47.2022608,106.328268 46.3684892,106.328268 Z M7.04226038,106.466604 C6.20848874,106.466604 5.65264099,107.158281 5.65264099,107.849958 C5.65264099,108.67997 6.20848874,109.233312 7.04226038,109.233312 C7.87603201,109.233312 8.43187977,108.67997 8.43187977,107.849958 C8.43187977,107.019945 7.87603201,106.466604 7.04226038,106.466604 Z M18.2981774,106.466604 C17.4644058,106.466604 16.9085581,107.158281 16.9085581,107.849958 C16.9085581,108.67997 17.4644058,109.233312 18.2981774,109.233312 C19.1319491,109.233312 19.6877968,108.67997 19.6877968,107.849958 C19.6877968,107.019945 19.1319491,106.466604 18.2981774,106.466604 Z M23.995617,106.466604 C23.1618453,106.466604 22.6059976,107.158281 22.6059976,107.849958 C22.6059976,108.67997 23.3008073,109.233312 23.995617,109.233312 C24.6904266,109.233312 25.3852363,108.67997 25.3852363,107.849958 C25.3852363,107.019945 24.6904266,106.466604 23.995617,106.466604 Z M40.6710496,106.466604 C39.837278,106.466604 39.2814303,107.158281 39.2814303,107.849958 C39.2814303,108.67997 39.837278,109.233312 40.6710496,109.233312 C41.5048213,109.233312 42.060669,108.67997 42.060669,107.849958 C42.199631,107.019945 41.5048213,106.466604 40.6710496,106.466604 Z M52.0659287,106.466604 C51.232157,106.466604 50.6763093,107.158281 50.6763093,107.849958 C50.6763093,108.67997 51.232157,109.233312 52.0659287,109.233312 C52.8997003,109.233312 53.455548,108.67997 53.455548,107.849958 C53.455548,107.019945 52.7607384,106.466604 52.0659287,106.466604 Z M57.6244062,106.466604 C56.7906346,106.466604 56.2347868,107.158281 56.2347868,107.849958 C56.2347868,108.67997 56.9295965,109.233312 57.6244062,109.233312 C58.3192159,109.233312 59.0140256,108.67997 59.0140256,107.849958 C59.0140256,107.019945 58.3192159,106.466604 57.6244062,106.466604 Z M12.7396999,112.00002 C11.9059282,112.00002 11.3500805,112.553362 11.3500805,113.383374 C11.3500805,114.213386 11.9059282,114.766728 12.7396999,114.766728 C13.5734715,114.766728 14.1293193,114.075051 14.1293193,113.383374 C14.1293193,112.691697 13.4345096,112.00002 12.7396999,112.00002 Z M18.2981774,112.00002 C17.4644058,112.00002 16.9085581,112.553362 16.9085581,113.383374 C16.9085581,114.213386 17.4644058,114.766728 18.2981774,114.766728 C19.1319491,114.766728 19.6877968,114.075051 19.6877968,113.383374 C19.6877968,112.691697 19.1319491,112.00002 18.2981774,112.00002 Z M23.995617,112.00002 C23.1618453,112.00002 22.6059976,112.553362 22.6059976,113.383374 C22.6059976,114.213386 23.3008073,114.766728 23.995617,114.766728 C24.6904266,114.766728 25.3852363,114.075051 25.3852363,113.383374 C25.3852363,112.691697 24.6904266,112.00002 23.995617,112.00002 Z M35.1125721,112.00002 C34.2788004,112.00002 33.7229527,112.553362 33.7229527,113.383374 C33.7229527,114.213386 34.2788004,114.766728 35.1125721,114.766728 C35.9463437,114.766728 36.5021915,114.075051 36.5021915,113.383374 C36.5021915,112.691697 35.9463437,112.00002 35.1125721,112.00002 Z M40.6710496,112.00002 C39.837278,112.00002 39.2814303,112.553362 39.2814303,113.383374 C39.2814303,114.213386 39.837278,114.766728 40.6710496,114.766728 C41.5048213,114.766728 42.060669,114.075051 42.060669,113.383374 C42.060669,112.691697 41.5048213,112.00002 40.6710496,112.00002 Z M52.0659287,112.00002 C51.232157,112.00002 50.6763093,112.553362 50.6763093,113.383374 C50.6763093,114.213386 51.232157,114.766728 52.0659287,114.766728 C52.8997003,114.766728 53.455548,114.075051 53.455548,113.383374 C53.455548,112.691697 52.7607384,112.00002 52.0659287,112.00002 Z M1.48378281,117.533436 C0.650011179,117.533436 0.0941634224,118.086778 0.0941634224,118.91679 C0.0941634224,119.746803 0.650011179,120.300144 1.48378281,120.300144 C2.31755445,120.300144 2.87340221,119.608467 2.87340221,118.91679 C2.87340221,118.225113 2.17859251,117.533436 1.48378281,117.533436 Z M12.7396999,117.533436 C11.9059282,117.533436 11.3500805,118.086778 11.3500805,118.91679 C11.3500805,119.746803 11.9059282,120.300144 12.7396999,120.300144 C13.5734715,120.300144 14.1293193,119.608467 14.1293193,118.91679 C14.1293193,118.225113 13.4345096,117.533436 12.7396999,117.533436 Z M18.2981774,117.533436 C17.4644058,117.533436 16.9085581,118.086778 16.9085581,118.91679 C16.9085581,119.746803 17.4644058,120.300144 18.2981774,120.300144 C19.1319491,120.300144 19.6877968,119.608467 19.6877968,118.91679 C19.6877968,118.225113 19.1319491,117.533436 18.2981774,117.533436 Z M23.995617,117.533436 C23.1618453,117.533436 22.6059976,118.086778 22.6059976,118.91679 C22.6059976,119.746803 23.3008073,120.300144 23.995617,120.300144 C24.6904266,120.300144 25.3852363,119.608467 25.3852363,118.91679 C25.3852363,118.225113 24.6904266,117.533436 23.995617,117.533436 Z M29.5540945,117.533436 C28.7203229,117.533436 28.1644751,118.086778 28.1644751,118.91679 C28.1644751,119.746803 28.7203229,120.300144 29.5540945,120.300144 C30.3878662,120.300144 30.9437139,119.608467 30.9437139,118.91679 C30.9437139,118.225113 30.2489042,117.533436 29.5540945,117.533436 Z M35.1125721,117.533436 C34.2788004,117.533436 33.7229527,118.086778 33.7229527,118.91679 C33.7229527,119.746803 34.2788004,120.300144 35.1125721,120.300144 C35.9463437,120.300144 36.5021915,119.608467 36.5021915,118.91679 C36.5021915,118.225113 35.9463437,117.533436 35.1125721,117.533436 Z M12.7396999,123.205188 C11.9059282,123.205188 11.3500805,123.896865 11.3500805,124.588542 C11.3500805,125.418554 11.9059282,125.971896 12.7396999,125.971896 C13.5734715,125.971896 14.1293193,125.418554 14.1293193,124.588542 C14.1293193,123.758529 13.4345096,123.205188 12.7396999,123.205188 Z M18.2981774,123.205188 C17.4644058,123.205188 16.9085581,123.896865 16.9085581,124.588542 C16.9085581,125.418554 17.4644058,125.971896 18.2981774,125.971896 C19.1319491,125.971896 19.6877968,125.418554 19.6877968,124.588542 C19.6877968,123.758529 19.1319491,123.205188 18.2981774,123.205188 Z M23.995617,123.205188 C23.1618453,123.205188 22.6059976,123.896865 22.6059976,124.588542 C22.6059976,125.418554 23.3008073,125.971896 23.995617,125.971896 C24.6904266,125.971896 25.3852363,125.418554 25.3852363,124.588542 C25.3852363,123.758529 24.6904266,123.205188 23.995617,123.205188 Z M12.7396999,128.738604 C11.9059282,128.738604 11.3500805,129.430281 11.3500805,130.121958 C11.3500805,130.95197 11.9059282,131.505312 12.7396999,131.505312 C13.5734715,131.505312 14.1293193,130.95197 14.1293193,130.121958 C14.1293193,129.430281 13.4345096,128.738604 12.7396999,128.738604 Z M18.2981774,128.738604 C17.4644058,128.738604 16.9085581,129.430281 16.9085581,130.121958 C16.9085581,130.95197 17.4644058,131.505312 18.2981774,131.505312 C19.1319491,131.505312 19.6877968,130.95197 19.6877968,130.121958 C19.6877968,129.430281 19.1319491,128.738604 18.2981774,128.738604 Z M18.2981774,134.27202 C17.4644058,134.27202 16.9085581,134.825362 16.9085581,135.655374 C16.9085581,136.485387 17.4644058,137.038728 18.2981774,137.038728 C19.1319491,137.038728 19.6877968,136.347051 19.6877968,135.655374 C19.6877968,134.963697 19.1319491,134.27202 18.2981774,134.27202 Z M18.2981774,139.943772 C17.4644058,139.943772 16.9085581,140.635449 16.9085581,141.327126 C16.9085581,142.157138 17.4644058,142.71048 18.2981774,142.71048 C19.1319491,142.71048 19.6877968,142.157138 19.6877968,141.327126 C19.6877968,140.635449 19.1319491,139.943772 18.2981774,139.943772 Z" id="Shape"></path>
                    </g>
                    <ellipse id="Oval-Copy-2" fill="#F7455B" cx="85.8165984" cy="79.7069565" rx="2.12058638" ry="2.12695652"></ellipse>
                </g>
            </g>
        </g>
    </g>
</svg>