<?xml version="1.0" encoding="UTF-8"?>
<svg width="2721px" height="779px" viewBox="0 0 2721 779" version="1.1" xmlns="http://www.w3.org/2000/svg" xmlns:xlink="http://www.w3.org/1999/xlink">
    <!-- Generator: Sketch 44.1 (41455) - http://www.bohemiancoding.com/sketch -->
    <title>Group 2</title>
    <desc>Created with Sketch.</desc>
    <defs></defs>
    <g id="Application-icon" stroke="none" stroke-width="1" fill="none" fill-rule="evenodd">
        <g id="Artboard" transform="translate(-463.000000, -406.000000)">
            <g id="Group-2">
                <g id="Group" transform="translate(463.000000, 406.000000)">
                    <g id="logo">
                        <polygon id="Fill-1" fill="#AF283F" points="366.352089 220.962374 108.334515 348.316428 108.334515 651.816699 366.352089 524.466222 624.369663 651.816699 624.369663 348.316428"></polygon>
                        <polygon id="Fill-2" fill="#F8455B" points="473.858459 72.0682865 366.353517 220.963447 624.113988 348.188706 366.353517 475.417542 108.589476 348.188706 366.353517 220.963447 258.841434 72.0682865 0.820288611 199.418763 108.332372 348.317502 108.332372 651.567336 366.353517 778.917813 624.371091 651.567336 624.371091 348.317502 731.879604 199.418763"></polygon>
                        <g id="bubble" transform="translate(149.977000, 0.751161)">
                            <path d="M136.01277,347.976341 C136.01277,323.58026 155.741887,303.817252 180.091725,303.817252 C204.445133,303.817252 224.170679,323.58026 224.170679,347.976341 C224.170679,372.379577 204.445133,392.142585 180.091725,392.142585 C155.741887,392.142585 136.01277,372.379577 136.01277,347.976341 Z" id="Fill-3" fill="#60C9F9"></path>
                            <path d="M232.811854,248.177443 C232.811854,208.322282 266.492403,176.008834 308.064599,176.008834 C349.636795,176.008834 383.320915,208.322282 383.320915,248.177443 C383.320915,288.036182 349.636795,320.34963 308.064599,320.34963 C266.492403,320.34963 232.811854,288.036182 232.811854,248.177443" id="Fill-5" fill="#60C9F9"></path>
                            <path d="M30.8060472,96.046287 C30.8060472,43.0682597 75.8777066,0.121998293 131.46561,0.121998293 C187.046372,0.121998293 232.114461,43.0682597 232.114461,96.046287 C232.114461,149.035047 187.046372,191.970576 131.46561,191.970576 C75.8777066,191.970576 30.8060472,149.035047 30.8060472,96.046287" id="Fill-7" fill="#60C9F9"></path>
                            <path d="M162.215538,651.880172 L132.116582,637.172401 L132.116582,570.434684 C132.116582,563.633547 130.713226,558.106058 127.913655,553.855795 C125.106943,549.601954 120.386238,545.852564 113.74797,542.611202 C107.552492,539.580922 102.978193,538.643574 100.025075,539.784848 C97.0755272,540.9297 95.4543472,544.460853 95.1579641,550.378307 L95.1579641,619.11236 L66.8301655,605.270384 L66.8301655,538.529089 C66.8301655,531.73153 65.3946714,526.186153 62.5165413,521.896535 C59.6384113,517.606918 54.878427,513.843217 48.2401593,510.598277 C41.6018916,507.353337 36.8776161,506.487543 34.0780454,508.000894 C31.271333,509.514245 29.8715477,513.671489 29.8715477,520.472626 L29.8715477,587.210343 L0.436775997,572.82814 L0.436775997,502.981433 C0.436775997,489.679684 4.72183314,481.980554 13.2919474,479.884044 C21.8584908,477.791111 33.6031183,480.384917 48.5294007,487.679771 C55.9139825,491.289632 62.3379973,495.42541 67.805016,500.09426 C73.2720348,504.759532 77.9284635,509.66093 81.7671605,514.78772 C85.6058576,513.560582 90.1908687,513.213548 95.5079105,513.743042 C100.824952,514.272537 107.031143,516.268872 114.126484,519.73205 C128.895647,526.95535 140.608137,535.817221 149.25324,546.321238 C157.894772,556.828833 162.215538,568.731716 162.215538,582.037043 L162.215538,651.880172 Z" id="Fill-9" fill="#FFFFFF"></path>
                        </g>
                    </g>
                    <g id="mercari_plus_2" transform="translate(776.000000, 191.000000)" fill-rule="nonzero" fill="#F7455B">
                        <g id="g10" transform="translate(973.000000, 209.500000) scale(-1, 1) rotate(-180.000000) translate(-973.000000, -209.500000) ">
                            <g id="g14" transform="translate(0.000000, -0.000000)">
                                <g id="g16-Clipped" transform="translate(0.000000, -0.000000)">
                                    <g id="g16" transform="translate(0.057315, -0.000022)">
                                        <g id="g26" transform="translate(0.531881, 5.329657)">
                                            <path d="M303.041834,287.560295 C268.963922,287.560295 237.756331,273.900626 214.650821,251.718698 C192.117087,273.900626 160.920932,286.867289 126.25409,287.560295 C35.57025,289.375857 0.543188194,229.714317 0.543188194,168.059667 C0.394526162,166.759565 0.308759605,36.6805679 0.308759605,36.6805679 C0.308759605,16.7723876 17.0618271,0.266238052 37.8573582,0.266238052 C58.0868301,0.266238052 74.828462,16.7723876 74.828462,36.6805679 L74.828462,163.540808 C74.828462,191.415697 97.9511257,214.176085 126.25409,214.176085 C154.562771,214.176085 177.668281,191.415697 177.668281,163.540808 L177.668281,36.6805679 C177.668281,16.7723876 193.85529,0.266238052 214.650821,0.266238052 C235.45207,0.266238052 252.193702,16.7723876 252.193702,36.6805679 L252.193702,163.540808 C252.193702,191.415697 274.727435,214.176085 303.041834,214.176085 C331.356234,214.176085 354.456026,191.415697 354.456026,163.540808 L354.456026,36.6805679 C354.456026,16.7723876 371.220529,0.266238052 392.01606,0.266238052 C412.239815,0.266238052 428.987164,16.7723876 428.987164,36.6805679 L428.987164,163.540808 C428.987164,231.80479 372.369801,287.560295 303.041834,287.560295" id="path28"></path>
                                        </g>
                                        <g id="g30" transform="translate(471.425565, 0.205909)">
                                            <path d="M71.5294722,126.001141 C86.504313,71.9180152 162.556378,51.9869255 213.827626,84.4436741 C229.379961,95.8238681 250.112597,91.270645 260.484633,75.3315006 C270.85095,59.9593614 267.403135,38.8942614 252.422576,29.2150829 C168.88595,-26.0077811 54.2503699,2.45129493 14.4889941,86.717422 C-31.590518,179.52299 38.6923165,292.25392 145.843335,292.25392 C195.971028,292.25392 240.901269,266.62987 268.546689,224.505397 C285.26545,197.168877 296.203545,164.150851 283.52153,141.946013 C271.434163,124.872859 251.845081,126.001141 230.529233,126.001141 L71.5294722,126.001141 Z M217.864372,178.383252 C211.523364,208.566253 181.562247,230.192631 145.843335,230.192631 C109.546928,230.192631 79.5858108,208.566253 72.6787441,178.383252 L217.864372,178.383252 Z" id="path32"></path>
                                        </g>
                                        <g id="g34" transform="translate(1010.759435, 1.285510)">
                                            <path d="M147.3528,0 C66.3034041,0 0.205977584,65.3201372 0.205977584,145.422499 C0.205977584,225.519134 66.3034041,290.844998 147.3528,290.844998 C180.109907,290.844998 211.145965,280.615997 237.013159,260.736453 C253.097247,248.239431 256.556498,225.519134 243.90879,209.047348 C231.272517,193.142568 207.703868,190.296088 191.608344,202.226105 C178.954918,212.449379 163.442606,217.56388 147.3528,217.56388 C107.11685,217.56388 74.3483071,185.181587 74.3483071,145.422499 C74.3483071,105.657684 107.11685,73.2811184 147.3528,73.2811184 C163.442606,73.2811184 178.954918,78.3956193 191.608344,88.0461613 C207.703868,100.548911 231.272517,97.7024306 243.337013,81.230645 C255.973286,65.3201372 253.097247,42.0385627 236.441382,30.1028182 C210.579906,10.2232744 180.109907,0 147.3528,0" id="path36"></path>
                                        </g>
                                        <g id="g38" transform="translate(1293.562678, 3.736963)">
                                            <path d="M289.144331,250.266746 L289.144331,37.9204584 C289.144331,19.4727459 273.311824,4.38697282 254.08868,4.38697282 C240.520411,4.38697282 228.650319,12.2104982 222.989727,23.9515137 C200.375944,8.86001334 173.233688,0.480937435 143.827195,0.480937435 C64.104321,0.480937435 0.219671645,64.7357923 0.219671645,143.532324 C0.219671645,221.761851 64.104321,286.028161 143.827195,286.028161 C172.661911,286.028161 199.809885,277.643357 222.423667,263.113135 C227.518201,275.409701 239.948634,283.788777 254.08868,283.788777 C273.311824,283.788777 289.144331,268.703004 289.144331,250.266746 M216.780228,143.532324 C216.780228,182.088674 184.549156,213.944053 144.965031,213.944053 C105.386624,213.944053 73.1612694,182.088674 73.1612694,143.532324 C73.1612694,104.414697 105.386624,72.5593177 144.965031,72.5593177 C184.549156,72.5593177 216.780228,104.414697 216.780228,143.532324" id="path40"></path>
                                        </g>
                                        <g id="g42" transform="translate(1639.498028, 3.831888)">
                                            <path d="M180.167111,239.547634 C174.346421,219.965911 153.367921,208.453988 133.567282,214.794137 C101.519178,222.846755 75.8806955,200.974102 75.8806955,172.182842 L75.8806955,37.4475301 C75.8806955,16.7203424 58.9904016,0.0309184303 38.0176195,0.0309184303 C17.6280501,0.0309184303 0.726320611,16.7203424 0.726320611,37.4475301 L0.726320611,252.789208 C0.726320611,272.370931 16.4559071,287.909163 36.2736996,287.909163 C46.7600906,287.909163 56.0800564,283.310121 62.4896771,275.818781 C91.6217176,293.098119 126.568731,294.249311 155.123276,285.606778 C174.929633,279.856544 185.999237,259.123629 180.167111,239.547634" id="path44"></path>
                                        </g>
                                        <g id="g46" transform="translate(1856.470909, 4.658332)">
                                            <path d="M44.6055612,0 C23.2439708,0 6.49662111,16.5405135 6.49662111,37.0786995 L6.49662111,251.578461 C6.49662111,272.11092 23.2439708,288.65716 44.6055612,288.65716 C65.3782213,288.65716 82.125571,272.11092 82.125571,251.578461 L82.125571,37.0786995 C82.125571,16.5405135 65.3782213,0 44.6055612,0 M87.9862857,369.607167 C87.9862857,345.535221 67.9340647,325.346402 44.0109131,325.346402 C20.1106326,325.346402 0.0526938037,345.535221 0.0526938037,369.607167 C0.0526938037,394.458028 20.1106326,413.867931 44.0109131,413.867931 C67.9340647,413.867931 87.9862857,394.458028 87.9862857,369.607167" id="path48"></path>
                                        </g>
                                        <g id="g50" transform="translate(812.893512, 3.075299)">
                                            <path d="M154.494485,286.366231 C127.060623,294.670851 93.7431742,293.886208 65.3315728,278.496887 C58.4530949,285.930954 48.6757074,290.604451 37.7833547,290.604451 C24.6439182,290.604451 13.0883041,283.823299 6.34133497,273.559933 C2.40179112,267.895609 0.0975296237,261.028547 0.0975296237,253.548661 L0.0975296237,38.2069825 C0.0975296237,17.4797947 16.9992591,0.784643472 37.3831108,0.784643472 C58.3616106,0.784643472 75.2519045,17.4797947 75.2519045,38.2069825 L75.2519045,172.936567 C75.2519045,201.733555 100.890387,223.606208 132.932773,215.553589 C152.73913,209.213441 173.71763,220.725363 179.53832,240.307086 C185.364728,259.877354 174.295124,280.610269 154.494485,286.366231" id="path52"></path>
                                        </g>
                                    </g>
                                </g>
                            </g>
                        </g>
                    </g>
                </g>
                <rect id="Rectangle" x="0" y="0" width="3648" height="1590"></rect>
            </g>
        </g>
    </g>
</svg>