<?xml version="1.0" encoding="UTF-8"?>
<svg width="38px" height="38px" viewBox="0 0 38 38" version="1.1" xmlns="http://www.w3.org/2000/svg" xmlns:xlink="http://www.w3.org/1999/xlink">
    <!-- Generator: Sketch 44.1 (41455) - http://www.bohemiancoding.com/sketch -->
    <title>Group 26</title>
    <desc>Created with Sketch.</desc>
    <defs></defs>
    <g id="v7-draft" stroke="none" stroke-width="1" fill="none" fill-rule="evenodd">
        <g id="top_desktop_Signout_v6_02-Copy" transform="translate(-921.000000, -2564.000000)">
            <g id="Group-26" transform="translate(921.000000, 2564.000000)">
                <ellipse id="Oval-2-Copy" fill="#F7455B" cx="18.6532663" cy="18.6779661" rx="18.6532663" ry="18.6779661"></ellipse>
                <g id="icons8-twitter_filled" transform="translate(8.000000, 10.000000)" fill-rule="nonzero" fill="#FFFFFF">
                    <path d="M23.5644655,2.4696478 C22.7125433,2.84113951 21.7987805,3.09137415 20.8379451,3.20536488 C21.8186248,2.62723659 22.5717869,1.71122341 22.9252931,0.622180488 C22.0087613,1.15671073 20.9916233,1.54546 19.9112604,1.75436732 C19.0464162,0.846074634 17.8128364,0.279754146 16.4481917,0.279754146 C13.8268924,0.279754146 11.7021632,2.3706439 11.7021632,4.94928683 C11.7021632,5.31487463 11.7446208,5.67092537 11.8263057,6.01335171 C7.8823578,5.81852293 4.38513839,3.9592478 2.04396737,1.13400341 C1.63554309,1.82521415 1.40202594,2.62769073 1.40202594,3.48284829 C1.40202594,5.10278829 2.23825734,6.53153268 3.51291028,7.37034098 C2.73390443,7.34581707 2.00335569,7.13554732 1.36372174,6.78540049 C1.36372174,6.80538293 1.36372174,6.82445707 1.36372174,6.84489366 C1.36372174,9.10835902 2.99926483,10.9930663 5.16875921,11.4245054 C4.77187234,11.5316839 4.35237215,11.587998 3.91948857,11.587998 C3.61305499,11.587998 3.31538984,11.5589327 3.02510863,11.5035268 C3.63105335,13.356898 5.38243202,14.7098 7.45870414,14.7474941 C5.83562145,15.9995756 3.7893466,16.7452839 1.56539565,16.7452839 C1.18096918,16.7452839 0.804388152,16.7234849 0.433806577,16.6798868 C2.53269201,18.00554 5.02846432,18.7775888 7.70791217,18.7775888 C16.4371158,18.7775888 21.2112956,11.6620239 21.2112956,5.4929 C21.2112956,5.28944244 21.2062191,5.08689317 21.1974507,4.88797707 C22.1241354,4.22946488 22.9289851,3.40609756 23.5644655,2.4696478 Z" id="Shape"></path>
                </g>
            </g>
        </g>
    </g>
</svg>