<?xml version="1.0" encoding="UTF-8"?>
<svg width="101px" height="126px" viewBox="0 0 101 126" version="1.1" xmlns="http://www.w3.org/2000/svg" xmlns:xlink="http://www.w3.org/1999/xlink">
    <!-- Generator: Sketch 44.1 (41455) - http://www.bohemiancoding.com/sketch -->
    <title>Group 17</title>
    <desc>Created with Sketch.</desc>
    <defs></defs>
    <g id="v7-draft" stroke="none" stroke-width="1" fill="none" fill-rule="evenodd">
        <g id="top_desktop_Signout_v6_02" transform="translate(-681.000000, -2574.000000)" stroke="#FFFFFF" fill-rule="nonzero">
            <g id="Group-17" transform="translate(642.000000, 2548.000000)">
                <g id="Group-8" transform="translate(39.000000, 26.000000)">
                    <ellipse id="Oval" fill="#000000" cx="34.7889344" cy="15.8747826" rx="2.60348361" ry="2.61130435"></ellipse>
                    <ellipse id="Oval" fill="#000000" cx="34.7889344" cy="22.0921739" rx="2.60348361" ry="2.61130435"></ellipse>
                    <path d="M34.7889344,31.0452174 C33.3012295,31.0452174 32.1854508,29.926087 32.1854508,28.433913 C32.1854508,26.9417391 33.3012295,25.8226087 34.7889344,25.8226087 C36.2766393,25.8226087 37.392418,26.9417391 37.392418,28.433913 C37.392418,29.8017391 36.2766393,31.0452174 34.7889344,31.0452174 Z" id="Shape" fill="#000000"></path>
                    <ellipse id="Oval" fill="#000000" cx="34.7889344" cy="34.6513043" rx="2.60348361" ry="2.61130435"></ellipse>
                    <ellipse id="Oval" fill="#000000" cx="34.7889344" cy="47.2104348" rx="2.60348361" ry="2.61130435"></ellipse>
                    <ellipse id="Oval" fill="#000000" cx="34.7889344" cy="59.7695652" rx="2.60348361" ry="2.61130435"></ellipse>
                    <ellipse id="Oval" fill="#000000" cx="34.7889344" cy="65.9869565" rx="2.60348361" ry="2.61130435"></ellipse>
                    <ellipse id="Oval" fill="#000000" cx="34.7889344" cy="78.546087" rx="2.60348361" ry="2.61130435"></ellipse>
                    <ellipse id="Oval" fill="#000000" cx="34.7889344" cy="84.8878261" rx="2.60348361" ry="2.61130435"></ellipse>
                    <ellipse id="Oval" fill="#000000" cx="28.5901639" cy="3.31565217" rx="2.60348361" ry="2.61130435"></ellipse>
                    <ellipse id="Oval" fill="#000000" cx="28.5901639" cy="9.53304348" rx="2.60348361" ry="2.61130435"></ellipse>
                    <ellipse id="Oval" fill="#000000" cx="28.5901639" cy="22.0921739" rx="2.60348361" ry="2.61130435"></ellipse>
                    <ellipse id="Oval" fill="#000000" cx="28.5901639" cy="53.4278261" rx="2.60348361" ry="2.61130435"></ellipse>
                    <ellipse id="Oval" fill="#000000" cx="28.5901639" cy="59.7695652" rx="2.60348361" ry="2.61130435"></ellipse>
                    <ellipse id="Oval" fill="#000000" cx="28.5901639" cy="65.9869565" rx="2.60348361" ry="2.61130435"></ellipse>
                    <ellipse id="Oval" fill="#000000" cx="28.5901639" cy="72.3286957" rx="2.60348361" ry="2.61130435"></ellipse>
                    <ellipse id="Oval" fill="#000000" cx="28.5901639" cy="78.546087" rx="2.60348361" ry="2.61130435"></ellipse>
                    <ellipse id="Oval" fill="#000000" cx="28.5901639" cy="84.8878261" rx="2.60348361" ry="2.61130435"></ellipse>
                    <ellipse id="Oval" fill="#000000" cx="22.267418" cy="53.4278261" rx="2.60348361" ry="2.61130435"></ellipse>
                    <ellipse id="Oval" fill="#000000" cx="22.267418" cy="59.7695652" rx="2.60348361" ry="2.61130435"></ellipse>
                    <ellipse id="Oval" fill="#000000" cx="22.267418" cy="65.9869565" rx="2.60348361" ry="2.61130435"></ellipse>
                    <ellipse id="Oval" fill="#000000" cx="22.267418" cy="72.3286957" rx="2.60348361" ry="2.61130435"></ellipse>
                    <ellipse id="Oval" fill="#000000" cx="22.267418" cy="78.546087" rx="2.60348361" ry="2.61130435"></ellipse>
                    <ellipse id="Oval" fill="#000000" cx="22.267418" cy="84.8878261" rx="2.60348361" ry="2.61130435"></ellipse>
                    <ellipse id="Oval" fill="#000000" cx="16.0686475" cy="53.4278261" rx="2.60348361" ry="2.61130435"></ellipse>
                    <ellipse id="Oval" fill="#000000" cx="16.0686475" cy="59.7695652" rx="2.60348361" ry="2.61130435"></ellipse>
                    <ellipse id="Oval" fill="#000000" cx="16.0686475" cy="65.9869565" rx="2.60348361" ry="2.61130435"></ellipse>
                    <ellipse id="Oval" fill="#000000" cx="16.0686475" cy="72.3286957" rx="2.60348361" ry="2.61130435"></ellipse>
                    <ellipse id="Oval" fill="#000000" cx="16.0686475" cy="78.546087" rx="2.60348361" ry="2.61130435"></ellipse>
                    <ellipse id="Oval" fill="#000000" cx="16.0686475" cy="84.8878261" rx="2.60348361" ry="2.61130435"></ellipse>
                    <ellipse id="Oval" fill="#000000" cx="9.74590164" cy="65.9869565" rx="2.60348361" ry="2.61130435"></ellipse>
                    <ellipse id="Oval" fill="#000000" cx="9.74590164" cy="72.3286957" rx="2.60348361" ry="2.61130435"></ellipse>
                    <ellipse id="Oval" fill="#000000" cx="9.74590164" cy="78.546087" rx="2.60348361" ry="2.61130435"></ellipse>
                    <ellipse id="Oval" fill="#000000" cx="9.74590164" cy="84.8878261" rx="2.60348361" ry="2.61130435"></ellipse>
                    <ellipse id="Oval" fill="#000000" cx="3.54713115" cy="65.9869565" rx="2.60348361" ry="2.61130435"></ellipse>
                    <ellipse id="Oval" fill="#000000" cx="3.54713115" cy="72.3286957" rx="2.60348361" ry="2.61130435"></ellipse>
                    <ellipse id="Oval" fill="#000000" cx="3.54713115" cy="78.546087" rx="2.60348361" ry="2.61130435"></ellipse>
                    <ellipse id="Oval" fill="#000000" cx="97.272541" cy="84.8878261" rx="2.60348361" ry="2.61130435"></ellipse>
                    <ellipse id="Oval" fill="#000000" cx="91.0737705" cy="84.8878261" rx="2.60348361" ry="2.61130435"></ellipse>
                    <ellipse id="Oval" fill="#000000" cx="84.7510246" cy="72.3286957" rx="2.60348361" ry="2.61130435"></ellipse>
                    <ellipse id="Oval" fill="#000000" cx="84.7510246" cy="78.546087" rx="2.60348361" ry="2.61130435"></ellipse>
                    <ellipse id="Oval" fill="#000000" cx="84.7510246" cy="84.8878261" rx="2.60348361" ry="2.61130435"></ellipse>
                    <ellipse id="Oval" fill="#000000" cx="78.5522541" cy="65.9869565" rx="2.60348361" ry="2.61130435"></ellipse>
                    <ellipse id="Oval" fill="#000000" cx="78.5522541" cy="72.3286957" rx="2.60348361" ry="2.61130435"></ellipse>
                    <ellipse id="Oval" fill="#000000" cx="78.5522541" cy="78.546087" rx="2.60348361" ry="2.61130435"></ellipse>
                    <ellipse id="Oval" fill="#000000" cx="78.5522541" cy="84.8878261" rx="2.60348361" ry="2.61130435"></ellipse>
                    <ellipse id="Oval" fill="#000000" cx="72.2295082" cy="53.4278261" rx="2.60348361" ry="2.61130435"></ellipse>
                    <ellipse id="Oval" fill="#000000" cx="72.2295082" cy="59.7695652" rx="2.60348361" ry="2.61130435"></ellipse>
                    <ellipse id="Oval" fill="#000000" cx="72.2295082" cy="65.9869565" rx="2.60348361" ry="2.61130435"></ellipse>
                    <ellipse id="Oval" fill="#000000" cx="72.2295082" cy="72.3286957" rx="2.60348361" ry="2.61130435"></ellipse>
                    <ellipse id="Oval" fill="#000000" cx="72.2295082" cy="78.546087" rx="2.60348361" ry="2.61130435"></ellipse>
                    <ellipse id="Oval" fill="#000000" cx="72.2295082" cy="84.8878261" rx="2.60348361" ry="2.61130435"></ellipse>
                    <path d="M66.0307377,18.486087 C64.5430328,18.486087 63.4272541,17.3669565 63.4272541,15.8747826 C63.4272541,14.3826087 64.5430328,13.2634783 66.0307377,13.2634783 C67.5184426,13.2634783 68.6342213,14.3826087 68.6342213,15.8747826 C68.6342213,17.3669565 67.5184426,18.486087 66.0307377,18.486087 Z" id="Shape" fill="#000000"></path>
                    <path d="M66.0307377,24.7034783 C64.5430328,24.7034783 63.4272541,23.5843478 63.4272541,22.0921739 C63.4272541,20.6 64.5430328,19.4808696 66.0307377,19.4808696 C67.5184426,19.4808696 68.6342213,20.6 68.6342213,22.0921739 C68.6342213,23.5843478 67.5184426,24.7034783 66.0307377,24.7034783 Z" id="Shape" fill="#000000"></path>
                    <path d="M66.0307377,49.8217391 C64.5430328,49.8217391 63.4272541,48.7026087 63.4272541,47.2104348 C63.4272541,45.7182609 64.5430328,44.5991304 66.0307377,44.5991304 C67.5184426,44.5991304 68.6342213,45.7182609 68.6342213,47.2104348 C68.6342213,48.5782609 67.5184426,49.8217391 66.0307377,49.8217391 Z" id="Shape" fill="#000000"></path>
                    <path d="M66.0307377,56.0391304 C64.5430328,56.0391304 63.4272541,54.92 63.4272541,53.4278261 C63.4272541,51.9356522 64.5430328,50.8165217 66.0307377,50.8165217 C67.5184426,50.8165217 68.6342213,51.9356522 68.6342213,53.4278261 C68.6342213,54.92 67.5184426,56.0391304 66.0307377,56.0391304 Z" id="Shape" fill="#000000"></path>
                    <path d="M66.0307377,62.3808696 C64.5430328,62.3808696 63.4272541,61.2617391 63.4272541,59.7695652 C63.4272541,58.2773913 64.5430328,57.1582609 66.0307377,57.1582609 C67.5184426,57.1582609 68.6342213,58.2773913 68.6342213,59.7695652 C68.6342213,61.2617391 67.5184426,62.3808696 66.0307377,62.3808696 Z" id="Shape" fill="#000000"></path>
                    <path d="M66.0307377,68.5982609 C64.5430328,68.5982609 63.4272541,67.4791304 63.4272541,65.9869565 C63.4272541,64.4947826 64.5430328,63.3756522 66.0307377,63.3756522 C67.5184426,63.3756522 68.6342213,64.4947826 68.6342213,65.9869565 C68.6342213,67.4791304 67.5184426,68.5982609 66.0307377,68.5982609 Z" id="Shape" fill="#000000"></path>
                    <path d="M66.0307377,74.94 C64.5430328,74.94 63.4272541,73.8208696 63.4272541,72.3286957 C63.4272541,70.8365217 64.5430328,69.7173913 66.0307377,69.7173913 C67.5184426,69.7173913 68.6342213,70.8365217 68.6342213,72.3286957 C68.6342213,73.8208696 67.5184426,74.94 66.0307377,74.94 Z" id="Shape" fill="#000000"></path>
                    <path d="M66.0307377,81.1573913 C64.5430328,81.1573913 63.4272541,80.0382609 63.4272541,78.546087 C63.4272541,77.053913 64.5430328,75.9347826 66.0307377,75.9347826 C67.5184426,75.9347826 68.6342213,77.053913 68.6342213,78.546087 C68.6342213,80.0382609 67.5184426,81.1573913 66.0307377,81.1573913 Z" id="Shape" fill="#000000"></path>
                    <path d="M66.0307377,87.3747826 C64.5430328,87.3747826 63.4272541,86.2556522 63.4272541,84.7634783 C63.4272541,83.2713043 64.5430328,82.1521739 66.0307377,82.1521739 C67.5184426,82.1521739 68.6342213,83.2713043 68.6342213,84.7634783 C68.6342213,86.2556522 67.5184426,87.3747826 66.0307377,87.3747826 Z" id="Shape" fill="#000000"></path>
                    <ellipse id="Oval" fill="#000000" cx="59.8319672" cy="3.31565217" rx="2.60348361" ry="2.61130435"></ellipse>
                    <ellipse id="Oval" fill="#000000" cx="59.8319672" cy="15.8747826" rx="2.60348361" ry="2.61130435"></ellipse>
                    <ellipse id="Oval" fill="#000000" cx="59.8319672" cy="22.0921739" rx="2.60348361" ry="2.61130435"></ellipse>
                    <path d="M59.8319672,31.0452174 C58.3442623,31.0452174 57.2284836,29.926087 57.2284836,28.433913 C57.2284836,26.9417391 58.3442623,25.8226087 59.8319672,25.8226087 C61.3196721,25.8226087 62.4354508,26.9417391 62.4354508,28.433913 C62.3114754,29.8017391 61.1956967,31.0452174 59.8319672,31.0452174 Z" id="Shape" fill="#000000"></path>
                    <ellipse id="Oval" fill="#000000" cx="59.8319672" cy="34.6513043" rx="2.60348361" ry="2.61130435"></ellipse>
                    <ellipse id="Oval" fill="#000000" cx="59.8319672" cy="40.8686957" rx="2.60348361" ry="2.61130435"></ellipse>
                    <ellipse id="Oval" fill="#000000" cx="59.8319672" cy="47.2104348" rx="2.60348361" ry="2.61130435"></ellipse>
                    <ellipse id="Oval" fill="#000000" cx="59.8319672" cy="53.4278261" rx="2.60348361" ry="2.61130435"></ellipse>
                    <ellipse id="Oval" fill="#000000" cx="59.8319672" cy="59.7695652" rx="2.60348361" ry="2.61130435"></ellipse>
                    <ellipse id="Oval" fill="#000000" cx="59.8319672" cy="65.9869565" rx="2.60348361" ry="2.61130435"></ellipse>
                    <ellipse id="Oval" fill="#000000" cx="59.8319672" cy="72.3286957" rx="2.60348361" ry="2.61130435"></ellipse>
                    <ellipse id="Oval" fill="#000000" cx="59.8319672" cy="78.546087" rx="2.60348361" ry="2.61130435"></ellipse>
                    <ellipse id="Oval" fill="#000000" cx="59.8319672" cy="84.8878261" rx="2.60348361" ry="2.61130435"></ellipse>
                    <path d="M53.5092213,5.92695652 C52.0215164,5.92695652 50.9057377,4.80782609 50.9057377,3.31565217 C50.9057377,1.82347826 52.0215164,0.704347826 53.5092213,0.704347826 C54.9969262,0.704347826 56.1127049,1.82347826 56.1127049,3.31565217 C56.1127049,4.68347826 54.9969262,5.92695652 53.5092213,5.92695652 Z" id="Shape" fill="#000000"></path>
                    <path d="M53.5092213,12.1443478 C52.0215164,12.1443478 50.9057377,11.0252174 50.9057377,9.53304348 C50.9057377,8.04086957 52.1454918,6.92173913 53.5092213,6.92173913 C54.9969262,6.92173913 56.1127049,8.04086957 56.1127049,9.53304348 C56.1127049,11.0252174 54.9969262,12.1443478 53.5092213,12.1443478 Z" id="Shape" fill="#000000"></path>
                    <path d="M53.5092213,18.486087 C52.0215164,18.486087 50.9057377,17.3669565 50.9057377,15.8747826 C50.9057377,14.3826087 52.0215164,13.2634783 53.5092213,13.2634783 C54.9969262,13.2634783 56.1127049,14.3826087 56.1127049,15.8747826 C56.1127049,17.2426087 54.9969262,18.486087 53.5092213,18.486087 Z" id="Shape" fill="#000000"></path>
                    <path d="M53.5092213,24.7034783 C52.0215164,24.7034783 50.9057377,23.5843478 50.9057377,22.0921739 C50.9057377,20.6 52.0215164,19.4808696 53.5092213,19.4808696 C54.9969262,19.4808696 56.1127049,20.6 56.1127049,22.0921739 C56.1127049,23.5843478 54.9969262,24.7034783 53.5092213,24.7034783 Z" id="Shape" fill="#000000"></path>
                    <path d="M53.5092213,31.0452174 C52.0215164,31.0452174 50.9057377,29.926087 50.9057377,28.433913 C50.9057377,26.9417391 52.0215164,25.8226087 53.5092213,25.8226087 C54.9969262,25.8226087 56.1127049,26.9417391 56.1127049,28.433913 C56.1127049,29.8017391 54.9969262,31.0452174 53.5092213,31.0452174 Z" id="Shape" fill="#000000"></path>
                    <path d="M53.5092213,37.2626087 C52.0215164,37.2626087 50.9057377,36.1434783 50.9057377,34.6513043 C50.9057377,33.1591304 52.0215164,32.04 53.5092213,32.04 C54.9969262,32.04 56.1127049,33.1591304 56.1127049,34.6513043 C56.1127049,36.1434783 54.9969262,37.2626087 53.5092213,37.2626087 Z" id="Shape" fill="#000000"></path>
                    <path d="M53.5092213,43.48 C52.0215164,43.48 50.9057377,42.3608696 50.9057377,40.8686957 C50.9057377,39.3765217 52.0215164,38.2573913 53.5092213,38.2573913 C54.9969262,38.2573913 56.1127049,39.3765217 56.1127049,40.8686957 C56.1127049,42.3608696 54.9969262,43.48 53.5092213,43.48 Z" id="Shape" fill="#000000"></path>
                    <path d="M53.5092213,49.8217391 C52.0215164,49.8217391 50.9057377,48.7026087 50.9057377,47.2104348 C50.9057377,45.7182609 52.0215164,44.5991304 53.5092213,44.5991304 C54.9969262,44.5991304 56.1127049,45.7182609 56.1127049,47.2104348 C56.1127049,48.5782609 54.9969262,49.8217391 53.5092213,49.8217391 Z" id="Shape" fill="#000000"></path>
                    <path d="M53.5092213,56.0391304 C52.0215164,56.0391304 50.9057377,54.92 50.9057377,53.4278261 C50.9057377,51.9356522 52.0215164,50.8165217 53.5092213,50.8165217 C54.9969262,50.8165217 56.1127049,51.9356522 56.1127049,53.4278261 C56.1127049,54.92 54.9969262,56.0391304 53.5092213,56.0391304 Z" id="Shape" fill="#000000"></path>
                    <path d="M53.5092213,68.5982609 C52.0215164,68.5982609 50.9057377,67.4791304 50.9057377,65.9869565 C50.9057377,64.4947826 52.0215164,63.3756522 53.5092213,63.3756522 C54.9969262,63.3756522 56.1127049,64.4947826 56.1127049,65.9869565 C56.1127049,67.4791304 54.9969262,68.5982609 53.5092213,68.5982609 Z" id="Shape" fill="#000000"></path>
                    <path d="M53.5092213,81.1573913 C52.0215164,81.1573913 50.9057377,80.0382609 50.9057377,78.546087 C50.9057377,77.053913 52.0215164,75.9347826 53.5092213,75.9347826 C54.9969262,75.9347826 56.1127049,77.053913 56.1127049,78.546087 C56.1127049,80.0382609 54.9969262,81.1573913 53.5092213,81.1573913 Z" id="Shape" fill="#000000"></path>
                    <path d="M53.5092213,87.3747826 C52.0215164,87.3747826 50.9057377,86.2556522 50.9057377,84.7634783 C50.9057377,83.2713043 52.0215164,82.1521739 53.5092213,82.1521739 C54.9969262,82.1521739 56.1127049,83.2713043 56.1127049,84.7634783 C56.1127049,86.2556522 54.9969262,87.3747826 53.5092213,87.3747826 Z" id="Shape" fill="#000000"></path>
                    <ellipse id="Oval" fill="#000000" cx="47.3104508" cy="3.31565217" rx="2.60348361" ry="2.61130435"></ellipse>
                    <ellipse id="Oval" fill="#000000" cx="47.3104508" cy="9.53304348" rx="2.60348361" ry="2.61130435"></ellipse>
                    <ellipse id="Oval" fill="#000000" cx="47.3104508" cy="15.8747826" rx="2.60348361" ry="2.61130435"></ellipse>
                    <ellipse id="Oval" fill="#000000" cx="47.3104508" cy="22.0921739" rx="2.60348361" ry="2.61130435"></ellipse>
                    <path d="M47.3104508,31.0452174 C45.8227459,31.0452174 44.7069672,29.926087 44.7069672,28.433913 C44.7069672,26.9417391 45.8227459,25.8226087 47.3104508,25.8226087 C48.7981557,25.8226087 49.9139344,26.9417391 49.9139344,28.433913 C49.9139344,29.8017391 48.6741803,31.0452174 47.3104508,31.0452174 Z" id="Shape" fill="#000000"></path>
                    <ellipse id="Oval" fill="#000000" cx="47.3104508" cy="34.6513043" rx="2.60348361" ry="2.61130435"></ellipse>
                    <ellipse id="Oval" fill="#000000" cx="47.3104508" cy="40.8686957" rx="2.60348361" ry="2.61130435"></ellipse>
                    <ellipse id="Oval" fill="#000000" cx="47.3104508" cy="47.2104348" rx="2.60348361" ry="2.61130435"></ellipse>
                    <ellipse id="Oval" fill="#000000" cx="47.3104508" cy="53.4278261" rx="2.60348361" ry="2.61130435"></ellipse>
                    <ellipse id="Oval" fill="#000000" cx="47.3104508" cy="59.7695652" rx="2.60348361" ry="2.61130435"></ellipse>
                    <ellipse id="Oval" fill="#000000" cx="47.3104508" cy="78.546087" rx="2.60348361" ry="2.61130435"></ellipse>
                    <ellipse id="Oval" fill="#000000" cx="47.3104508" cy="84.8878261" rx="2.60348361" ry="2.61130435"></ellipse>
                    <ellipse id="Oval" fill="#000000" cx="97.272541" cy="91.1052174" rx="2.60348361" ry="2.61130435"></ellipse>
                    <ellipse id="Oval" fill="#000000" cx="91.0737705" cy="91.1052174" rx="2.60348361" ry="2.61130435"></ellipse>
                    <ellipse id="Oval" fill="#000000" cx="91.0737705" cy="97.3226087" rx="2.60348361" ry="2.61130435"></ellipse>
                    <ellipse id="Oval" fill="#000000" cx="91.0737705" cy="109.881739" rx="2.60348361" ry="2.61130435"></ellipse>
                    <ellipse id="Oval" fill="#000000" cx="84.7510246" cy="91.1052174" rx="2.60348361" ry="2.61130435"></ellipse>
                    <ellipse id="Oval" fill="#000000" cx="84.7510246" cy="97.3226087" rx="2.60348361" ry="2.61130435"></ellipse>
                    <ellipse id="Oval" fill="#000000" cx="84.7510246" cy="103.664348" rx="2.60348361" ry="2.61130435"></ellipse>
                    <ellipse id="Oval" fill="#000000" cx="84.7510246" cy="109.881739" rx="2.60348361" ry="2.61130435"></ellipse>
                    <ellipse id="Oval" fill="#000000" cx="78.5522541" cy="91.1052174" rx="2.60348361" ry="2.61130435"></ellipse>
                    <ellipse id="Oval" fill="#000000" cx="78.5522541" cy="97.3226087" rx="2.60348361" ry="2.61130435"></ellipse>
                    <ellipse id="Oval" fill="#F7455B" cx="79.0481557" cy="104.037391" rx="2.60348361" ry="2.61130435"></ellipse>
                    <ellipse id="Oval" fill="#000000" cx="78.5522541" cy="109.881739" rx="2.60348361" ry="2.61130435"></ellipse>
                    <ellipse id="Oval" fill="#000000" cx="72.2295082" cy="91.1052174" rx="2.60348361" ry="2.61130435"></ellipse>
                    <ellipse id="Oval" fill="#000000" cx="72.2295082" cy="97.3226087" rx="2.60348361" ry="2.61130435"></ellipse>
                    <ellipse id="Oval" fill="#000000" cx="72.2295082" cy="103.664348" rx="2.60348361" ry="2.61130435"></ellipse>
                    <ellipse id="Oval" fill="#000000" cx="72.2295082" cy="109.881739" rx="2.60348361" ry="2.61130435"></ellipse>
                    <path d="M66.0307377,93.7165217 C64.5430328,93.7165217 63.4272541,92.5973913 63.4272541,91.1052174 C63.4272541,89.6130435 64.5430328,88.493913 66.0307377,88.493913 C67.5184426,88.493913 68.6342213,89.6130435 68.6342213,91.1052174 C68.6342213,92.4730435 67.5184426,93.7165217 66.0307377,93.7165217 Z" id="Shape" fill="#000000"></path>
                    <path d="M66.0307377,99.933913 C64.5430328,99.933913 63.4272541,98.8147826 63.4272541,97.3226087 C63.4272541,95.8304348 64.5430328,94.7113043 66.0307377,94.7113043 C67.5184426,94.7113043 68.6342213,95.8304348 68.6342213,97.3226087 C68.6342213,98.8147826 67.5184426,99.933913 66.0307377,99.933913 Z" id="Shape" fill="#000000"></path>
                    <path d="M66.0307377,106.275652 C64.5430328,106.275652 63.4272541,105.156522 63.4272541,103.664348 C63.4272541,102.172174 64.5430328,101.053043 66.0307377,101.053043 C67.5184426,101.053043 68.6342213,102.172174 68.6342213,103.664348 C68.6342213,105.032174 67.5184426,106.275652 66.0307377,106.275652 Z" id="Shape" fill="#000000"></path>
                    <path d="M66.0307377,112.493043 C64.5430328,112.493043 63.4272541,111.373913 63.4272541,109.881739 C63.4272541,108.389565 64.5430328,107.270435 66.0307377,107.270435 C67.5184426,107.270435 68.6342213,108.389565 68.6342213,109.881739 C68.6342213,111.373913 67.5184426,112.493043 66.0307377,112.493043 Z" id="Shape" fill="#000000"></path>
                    <path d="M66.0307377,118.834783 C64.5430328,118.834783 63.4272541,117.715652 63.4272541,116.223478 C63.4272541,114.731304 64.5430328,113.612174 66.0307377,113.612174 C67.5184426,113.612174 68.6342213,114.731304 68.6342213,116.223478 C68.6342213,117.715652 67.5184426,118.834783 66.0307377,118.834783 Z" id="Shape" fill="#000000"></path>
                    <ellipse id="Oval" fill="#000000" cx="59.8319672" cy="91.1052174" rx="2.60348361" ry="2.61130435"></ellipse>
                    <ellipse id="Oval" fill="#000000" cx="59.8319672" cy="97.3226087" rx="2.60348361" ry="2.61130435"></ellipse>
                    <ellipse id="Oval" fill="#000000" cx="59.8319672" cy="103.664348" rx="2.60348361" ry="2.61130435"></ellipse>
                    <ellipse id="Oval" fill="#000000" cx="59.8319672" cy="109.881739" rx="2.60348361" ry="2.61130435"></ellipse>
                    <path d="M53.5092213,93.7165217 C52.0215164,93.7165217 50.9057377,92.5973913 50.9057377,91.1052174 C50.9057377,89.6130435 52.0215164,88.493913 53.5092213,88.493913 C54.9969262,88.493913 56.1127049,89.6130435 56.1127049,91.1052174 C56.1127049,92.4730435 54.9969262,93.7165217 53.5092213,93.7165217 Z" id="Shape" fill="#000000"></path>
                    <path d="M53.5092213,99.933913 C52.0215164,99.933913 50.9057377,98.8147826 50.9057377,97.3226087 C50.9057377,95.8304348 52.0215164,94.7113043 53.5092213,94.7113043 C54.9969262,94.7113043 56.1127049,95.8304348 56.1127049,97.3226087 C56.1127049,98.8147826 54.9969262,99.933913 53.5092213,99.933913 Z" id="Shape" fill="#000000"></path>
                    <path d="M53.5092213,106.275652 C52.0215164,106.275652 50.9057377,105.156522 50.9057377,103.664348 C50.9057377,102.172174 52.0215164,101.053043 53.5092213,101.053043 C54.9969262,101.053043 56.1127049,102.172174 56.1127049,103.664348 C56.1127049,105.032174 54.9969262,106.275652 53.5092213,106.275652 Z" id="Shape" fill="#000000"></path>
                    <path d="M53.5092213,112.493043 C52.0215164,112.493043 50.9057377,111.373913 50.9057377,109.881739 C50.9057377,108.389565 52.0215164,107.270435 53.5092213,107.270435 C54.9969262,107.270435 56.1127049,108.389565 56.1127049,109.881739 C56.1127049,111.373913 54.9969262,112.493043 53.5092213,112.493043 Z" id="Shape" fill="#000000"></path>
                    <path d="M53.5092213,118.834783 C52.0215164,118.834783 50.9057377,117.715652 50.9057377,116.223478 C50.9057377,114.731304 52.0215164,113.612174 53.5092213,113.612174 C54.9969262,113.612174 56.1127049,114.731304 56.1127049,116.223478 C56.1127049,117.715652 54.9969262,118.834783 53.5092213,118.834783 Z" id="Shape" fill="#000000"></path>
                    <ellipse id="Oval" fill="#000000" cx="47.3104508" cy="97.3226087" rx="2.60348361" ry="2.61130435"></ellipse>
                    <ellipse id="Oval" fill="#000000" cx="47.3104508" cy="109.881739" rx="2.60348361" ry="2.61130435"></ellipse>
                    <ellipse id="Oval" fill="#000000" cx="47.3104508" cy="116.223478" rx="2.60348361" ry="2.61130435"></ellipse>
                    <ellipse id="Oval" fill="#000000" cx="40.9877049" cy="3.31565217" rx="2.60348361" ry="2.61130435"></ellipse>
                    <ellipse id="Oval" fill="#000000" cx="40.9877049" cy="9.53304348" rx="2.60348361" ry="2.61130435"></ellipse>
                    <ellipse id="Oval" fill="#000000" cx="40.9877049" cy="15.8747826" rx="2.60348361" ry="2.61130435"></ellipse>
                    <ellipse id="Oval" fill="#000000" cx="40.9877049" cy="22.0921739" rx="2.60348361" ry="2.61130435"></ellipse>
                    <path d="M40.9877049,31.0452174 C39.5,31.0452174 38.3842213,29.926087 38.3842213,28.433913 C38.3842213,26.9417391 39.5,25.8226087 40.9877049,25.8226087 C42.4754098,25.8226087 43.5911885,26.9417391 43.5911885,28.433913 C43.5911885,29.8017391 42.4754098,31.0452174 40.9877049,31.0452174 Z" id="Shape" fill="#000000"></path>
                    <ellipse id="Oval" fill="#000000" cx="40.9877049" cy="34.6513043" rx="2.60348361" ry="2.61130435"></ellipse>
                    <ellipse id="Oval" fill="#000000" cx="40.9877049" cy="40.8686957" rx="2.60348361" ry="2.61130435"></ellipse>
                    <ellipse id="Oval" fill="#000000" cx="40.9877049" cy="59.7695652" rx="2.60348361" ry="2.61130435"></ellipse>
                    <ellipse id="Oval" fill="#000000" cx="40.9877049" cy="97.3226087" rx="2.60348361" ry="2.61130435"></ellipse>
                    <ellipse id="Oval" fill="#000000" cx="40.9877049" cy="103.664348" rx="2.60348361" ry="2.61130435"></ellipse>
                    <ellipse id="Oval" fill="#000000" cx="40.9877049" cy="116.223478" rx="2.60348361" ry="2.61130435"></ellipse>
                    <ellipse id="Oval" fill="#000000" cx="40.9877049" cy="122.44087" rx="2.60348361" ry="2.61130435"></ellipse>
                    <ellipse id="Oval" fill="#000000" cx="28.5901639" cy="91.1052174" rx="2.60348361" ry="2.61130435"></ellipse>
                    <ellipse id="Oval" fill="#000000" cx="22.267418" cy="91.1052174" rx="2.60348361" ry="2.61130435"></ellipse>
                    <ellipse id="Oval" fill="#000000" cx="16.0686475" cy="91.1052174" rx="2.60348361" ry="2.61130435"></ellipse>
                    <ellipse id="Oval" fill="#000000" cx="16.0686475" cy="97.3226087" rx="2.60348361" ry="2.61130435"></ellipse>
                    <ellipse id="Oval" fill="#000000" cx="9.74590164" cy="91.1052174" rx="2.60348361" ry="2.61130435"></ellipse>
                    <ellipse id="Oval" fill="#000000" cx="9.74590164" cy="97.3226087" rx="2.60348361" ry="2.61130435"></ellipse>
                    <ellipse id="Oval" fill="#000000" cx="9.74590164" cy="103.664348" rx="2.60348361" ry="2.61130435"></ellipse>
                    <ellipse id="Oval" fill="#000000" cx="3.54713115" cy="91.1052174" rx="2.60348361" ry="2.61130435"></ellipse>
                    <ellipse id="Oval" fill="#000000" cx="3.54713115" cy="97.3226087" rx="2.60348361" ry="2.61130435"></ellipse>
                    <ellipse id="Oval" fill="#000000" cx="3.54713115" cy="103.664348" rx="2.60348361" ry="2.61130435"></ellipse>
                </g>
            </g>
        </g>
    </g>
</svg>