<?xml version="1.0" encoding="UTF-8"?>
<svg width="169px" height="92px" viewBox="0 0 169 92" version="1.1" xmlns="http://www.w3.org/2000/svg" xmlns:xlink="http://www.w3.org/1999/xlink">
    <!-- Generator: Sketch 44.1 (41455) - http://www.bohemiancoding.com/sketch -->
    <title>Group 12</title>
    <desc>Created with Sketch.</desc>
    <defs></defs>
    <g id="v7-draft" stroke="none" stroke-width="1" fill="none" fill-rule="evenodd">
        <g id="top_desktop_Signout_v6_02" transform="translate(-225.000000, -2588.000000)" stroke="#FFFFFF" fill-rule="nonzero">
            <g id="Group-12" transform="translate(221.000000, 2545.000000)">
                <g id="noun_26942_cc" transform="translate(5.000000, 43.626087)">
                    <g id="Group" fill="#000000">
                        <ellipse id="Oval" cx="2.34313525" cy="3.19389694" rx="2.34313525" ry="2.35339775"></ellipse>
                        <ellipse id="Oval" cx="7.86623975" cy="3.19389694" rx="2.34313525" ry="2.35339775"></ellipse>
                        <ellipse id="Oval" cx="13.5567111" cy="3.19389694" rx="2.34313525" ry="2.35339775"></ellipse>
                        <ellipse id="Oval" cx="19.0798156" cy="3.19389694" rx="2.34313525" ry="2.35339775"></ellipse>
                        <ellipse id="Oval" cx="24.7702869" cy="3.19389694" rx="2.34313525" ry="2.35339775"></ellipse>
                        <ellipse id="Oval" cx="30.2933914" cy="3.19389694" rx="2.34313525" ry="2.35339775"></ellipse>
                        <ellipse id="Oval" cx="35.9838627" cy="3.19389694" rx="2.34313525" ry="2.35339775"></ellipse>
                        <ellipse id="Oval" cx="41.674334" cy="3.19389694" rx="2.34313525" ry="2.35339775"></ellipse>
                        <ellipse id="Oval" cx="47.1974385" cy="3.19389694" rx="2.34313525" ry="2.35339775"></ellipse>
                        <ellipse id="Oval" cx="52.8879098" cy="3.19389694" rx="2.34313525" ry="2.35339775"></ellipse>
                        <ellipse id="Oval" cx="58.4110143" cy="3.19389694" rx="2.34313525" ry="2.35339775"></ellipse>
                        <ellipse id="Oval" cx="64.1014857" cy="3.19389694" rx="2.34313525" ry="2.35339775"></ellipse>
                        <ellipse id="Oval" cx="69.6245902" cy="3.19389694" rx="2.34313525" ry="2.35339775"></ellipse>
                        <ellipse id="Oval" cx="75.3150615" cy="3.19389694" rx="2.34313525" ry="2.35339775"></ellipse>
                        <ellipse id="Oval" cx="80.838166" cy="3.19389694" rx="2.34313525" ry="2.35339775"></ellipse>
                        <ellipse id="Oval" cx="86.5286373" cy="3.19389694" rx="2.34313525" ry="2.35339775"></ellipse>
                        <ellipse id="Oval" cx="92.0517418" cy="3.19389694" rx="2.34313525" ry="2.35339775"></ellipse>
                        <ellipse id="Oval" cx="97.7422131" cy="3.19389694" rx="2.34313525" ry="2.35339775"></ellipse>
                    </g>
                    <g id="Group" transform="translate(5.021004, 6.286473)" fill="#000000">
                        <ellipse id="Oval" cx="2.84523566" cy="2.4547182" rx="2.34313525" ry="2.35339775"></ellipse>
                        <ellipse id="Oval" cx="8.53570697" cy="2.4547182" rx="2.34313525" ry="2.35339775"></ellipse>
                        <ellipse id="Oval" cx="14.0588115" cy="2.4547182" rx="2.34313525" ry="2.35339775"></ellipse>
                        <ellipse id="Oval" cx="19.7492828" cy="2.4547182" rx="2.34313525" ry="2.35339775"></ellipse>
                        <ellipse id="Oval" cx="25.2723873" cy="2.4547182" rx="2.34313525" ry="2.35339775"></ellipse>
                        <ellipse id="Oval" cx="30.9628586" cy="2.4547182" rx="2.34313525" ry="2.35339775"></ellipse>
                        <ellipse id="Oval" cx="36.6533299" cy="2.4547182" rx="2.34313525" ry="2.35339775"></ellipse>
                        <ellipse id="Oval" cx="42.1764344" cy="2.4547182" rx="2.34313525" ry="2.35339775"></ellipse>
                        <ellipse id="Oval" cx="47.8669057" cy="2.4547182" rx="2.34313525" ry="2.35339775"></ellipse>
                        <ellipse id="Oval" cx="53.3900102" cy="2.4547182" rx="2.34313525" ry="2.35339775"></ellipse>
                        <ellipse id="Oval" cx="59.0804816" cy="2.4547182" rx="2.34313525" ry="2.35339775"></ellipse>
                        <ellipse id="Oval" cx="64.6035861" cy="2.4547182" rx="2.34313525" ry="2.35339775"></ellipse>
                        <ellipse id="Oval" cx="70.2940574" cy="2.4547182" rx="2.34313525" ry="2.35339775"></ellipse>
                        <ellipse id="Oval" cx="75.8171619" cy="2.4547182" rx="2.34313525" ry="2.35339775"></ellipse>
                        <ellipse id="Oval" cx="81.5076332" cy="2.4547182" rx="2.34313525" ry="2.35339775"></ellipse>
                        <ellipse id="Oval" cx="87.0307377" cy="2.4547182" rx="2.34313525" ry="2.35339775"></ellipse>
                        <ellipse id="Oval" cx="92.721209" cy="2.4547182" rx="2.34313525" ry="2.35339775"></ellipse>
                        <ellipse id="Oval" cx="98.2443135" cy="2.4547182" rx="2.34313525" ry="2.35339775"></ellipse>
                    </g>
                    <g id="Group" transform="translate(5.021004, 11.766989)" fill="#000000">
                        <ellipse id="Oval" cx="2.84523566" cy="2.68959742" rx="2.34313525" ry="2.35339775"></ellipse>
                        <ellipse id="Oval" cx="8.53570697" cy="2.68959742" rx="2.34313525" ry="2.35339775"></ellipse>
                        <ellipse id="Oval" cx="14.0588115" cy="2.68959742" rx="2.34313525" ry="2.35339775"></ellipse>
                        <ellipse id="Oval" cx="19.7492828" cy="2.68959742" rx="2.34313525" ry="2.35339775"></ellipse>
                        <ellipse id="Oval" cx="25.2723873" cy="2.68959742" rx="2.34313525" ry="2.35339775"></ellipse>
                        <ellipse id="Oval" cx="30.9628586" cy="2.68959742" rx="2.34313525" ry="2.35339775"></ellipse>
                        <ellipse id="Oval" cx="36.6533299" cy="2.68959742" rx="2.34313525" ry="2.35339775"></ellipse>
                        <ellipse id="Oval" cx="42.1764344" cy="2.68959742" rx="2.34313525" ry="2.35339775"></ellipse>
                        <ellipse id="Oval" cx="47.8669057" cy="2.68959742" rx="2.34313525" ry="2.35339775"></ellipse>
                        <ellipse id="Oval" cx="53.3900102" cy="2.68959742" rx="2.34313525" ry="2.35339775"></ellipse>
                        <ellipse id="Oval" cx="59.0804816" cy="2.68959742" rx="2.34313525" ry="2.35339775"></ellipse>
                        <ellipse id="Oval" cx="64.6035861" cy="2.68959742" rx="2.34313525" ry="2.35339775"></ellipse>
                        <ellipse id="Oval" cx="70.2940574" cy="2.68959742" rx="2.34313525" ry="2.35339775"></ellipse>
                        <ellipse id="Oval" cx="75.8171619" cy="2.68959742" rx="2.34313525" ry="2.35339775"></ellipse>
                        <ellipse id="Oval" cx="81.5076332" cy="2.68959742" rx="2.34313525" ry="2.35339775"></ellipse>
                        <ellipse id="Oval" cx="87.0307377" cy="2.68959742" rx="2.34313525" ry="2.35339775"></ellipse>
                        <ellipse id="Oval" cx="92.721209" cy="2.68959742" rx="2.34313525" ry="2.35339775"></ellipse>
                        <ellipse id="Oval" cx="98.2443135" cy="2.68959742" rx="2.34313525" ry="2.35339775"></ellipse>
                    </g>
                    <g id="Group" transform="translate(5.021004, 16.809984)">
                        <ellipse id="Oval" fill="#000000" cx="2.84523566" cy="3.19389694" rx="2.34313525" ry="2.35339775"></ellipse>
                        <ellipse id="Oval" fill="#F7455B" cx="8.53570697" cy="3.19389694" rx="2.34313525" ry="2.35339775"></ellipse>
                        <ellipse id="Oval" fill="#000000" cx="14.0588115" cy="3.19389694" rx="2.34313525" ry="2.35339775"></ellipse>
                        <ellipse id="Oval" fill="#000000" cx="19.7492828" cy="3.19389694" rx="2.34313525" ry="2.35339775"></ellipse>
                        <ellipse id="Oval" fill="#000000" cx="25.2723873" cy="3.19389694" rx="2.34313525" ry="2.35339775"></ellipse>
                        <ellipse id="Oval" fill="#000000" cx="30.9628586" cy="3.19389694" rx="2.34313525" ry="2.35339775"></ellipse>
                        <ellipse id="Oval" fill="#000000" cx="36.6533299" cy="3.19389694" rx="2.34313525" ry="2.35339775"></ellipse>
                        <ellipse id="Oval" fill="#000000" cx="42.1764344" cy="3.19389694" rx="2.34313525" ry="2.35339775"></ellipse>
                        <ellipse id="Oval" fill="#000000" cx="47.8669057" cy="3.19389694" rx="2.34313525" ry="2.35339775"></ellipse>
                        <ellipse id="Oval" fill="#000000" cx="53.3900102" cy="3.19389694" rx="2.34313525" ry="2.35339775"></ellipse>
                        <ellipse id="Oval" fill="#000000" cx="59.0804816" cy="3.19389694" rx="2.34313525" ry="2.35339775"></ellipse>
                        <ellipse id="Oval" fill="#000000" cx="64.6035861" cy="3.19389694" rx="2.34313525" ry="2.35339775"></ellipse>
                        <ellipse id="Oval" fill="#000000" cx="70.2940574" cy="3.19389694" rx="2.34313525" ry="2.35339775"></ellipse>
                        <ellipse id="Oval" fill="#000000" cx="75.8171619" cy="3.19389694" rx="2.34313525" ry="2.35339775"></ellipse>
                        <ellipse id="Oval" fill="#000000" cx="81.5076332" cy="3.19389694" rx="2.34313525" ry="2.35339775"></ellipse>
                        <ellipse id="Oval" fill="#000000" cx="87.0307377" cy="3.19389694" rx="2.34313525" ry="2.35339775"></ellipse>
                        <ellipse id="Oval" fill="#000000" cx="92.721209" cy="3.19389694" rx="2.34313525" ry="2.35339775"></ellipse>
                        <ellipse id="Oval" fill="#000000" cx="98.2443135" cy="3.19389694" rx="2.34313525" ry="2.35339775"></ellipse>
                    </g>
                    <g id="Group" transform="translate(5.021004, 23.096457)" fill="#000000">
                        <ellipse id="Oval" cx="2.84523566" cy="2.62281804" rx="2.34313525" ry="2.35339775"></ellipse>
                        <ellipse id="Oval" cx="8.53570697" cy="2.62281804" rx="2.34313525" ry="2.35339775"></ellipse>
                        <ellipse id="Oval" cx="14.0588115" cy="2.62281804" rx="2.34313525" ry="2.35339775"></ellipse>
                        <ellipse id="Oval" cx="19.7492828" cy="2.62281804" rx="2.34313525" ry="2.35339775"></ellipse>
                        <ellipse id="Oval" cx="25.2723873" cy="2.62281804" rx="2.34313525" ry="2.35339775"></ellipse>
                        <ellipse id="Oval" cx="30.9628586" cy="2.62281804" rx="2.34313525" ry="2.35339775"></ellipse>
                        <ellipse id="Oval" cx="36.6533299" cy="2.62281804" rx="2.34313525" ry="2.35339775"></ellipse>
                        <ellipse id="Oval" cx="42.1764344" cy="2.62281804" rx="2.34313525" ry="2.35339775"></ellipse>
                        <ellipse id="Oval" cx="47.8669057" cy="2.62281804" rx="2.34313525" ry="2.35339775"></ellipse>
                        <ellipse id="Oval" cx="53.3900102" cy="2.62281804" rx="2.34313525" ry="2.35339775"></ellipse>
                        <ellipse id="Oval" cx="59.0804816" cy="2.62281804" rx="2.34313525" ry="2.35339775"></ellipse>
                        <ellipse id="Oval" cx="64.6035861" cy="2.62281804" rx="2.34313525" ry="2.35339775"></ellipse>
                        <ellipse id="Oval" cx="70.2940574" cy="2.62281804" rx="2.34313525" ry="2.35339775"></ellipse>
                        <ellipse id="Oval" cx="75.8171619" cy="2.62281804" rx="2.34313525" ry="2.35339775"></ellipse>
                        <ellipse id="Oval" cx="81.5076332" cy="2.62281804" rx="2.34313525" ry="2.35339775"></ellipse>
                        <ellipse id="Oval" cx="87.0307377" cy="2.62281804" rx="2.34313525" ry="2.35339775"></ellipse>
                        <ellipse id="Oval" cx="92.721209" cy="2.62281804" rx="2.34313525" ry="2.35339775"></ellipse>
                        <ellipse id="Oval" cx="98.2443135" cy="2.62281804" rx="2.34313525" ry="2.35339775"></ellipse>
                    </g>
                    <g id="Group" transform="translate(5.021004, 28.576973)" fill="#000000">
                        <ellipse id="Oval" cx="2.84523566" cy="2.68959742" rx="2.34313525" ry="2.35339775"></ellipse>
                        <ellipse id="Oval" cx="8.53570697" cy="2.68959742" rx="2.34313525" ry="2.35339775"></ellipse>
                        <ellipse id="Oval" cx="14.0588115" cy="2.68959742" rx="2.34313525" ry="2.35339775"></ellipse>
                        <ellipse id="Oval" cx="19.7492828" cy="2.68959742" rx="2.34313525" ry="2.35339775"></ellipse>
                        <ellipse id="Oval" cx="25.2723873" cy="2.68959742" rx="2.34313525" ry="2.35339775"></ellipse>
                        <ellipse id="Oval" cx="30.9628586" cy="2.68959742" rx="2.34313525" ry="2.35339775"></ellipse>
                        <ellipse id="Oval" cx="36.6533299" cy="2.68959742" rx="2.34313525" ry="2.35339775"></ellipse>
                        <ellipse id="Oval" cx="42.1764344" cy="2.68959742" rx="2.34313525" ry="2.35339775"></ellipse>
                        <ellipse id="Oval" cx="47.8669057" cy="2.68959742" rx="2.34313525" ry="2.35339775"></ellipse>
                        <ellipse id="Oval" cx="53.3900102" cy="2.68959742" rx="2.34313525" ry="2.35339775"></ellipse>
                        <ellipse id="Oval" cx="59.0804816" cy="2.68959742" rx="2.34313525" ry="2.35339775"></ellipse>
                        <ellipse id="Oval" cx="64.6035861" cy="2.68959742" rx="2.34313525" ry="2.35339775"></ellipse>
                        <ellipse id="Oval" cx="70.2940574" cy="2.68959742" rx="2.34313525" ry="2.35339775"></ellipse>
                        <ellipse id="Oval" cx="75.8171619" cy="2.68959742" rx="2.34313525" ry="2.35339775"></ellipse>
                        <ellipse id="Oval" cx="81.5076332" cy="2.68959742" rx="2.34313525" ry="2.35339775"></ellipse>
                        <ellipse id="Oval" cx="87.0307377" cy="2.68959742" rx="2.34313525" ry="2.35339775"></ellipse>
                        <ellipse id="Oval" cx="92.721209" cy="2.68959742" rx="2.34313525" ry="2.35339775"></ellipse>
                        <ellipse id="Oval" cx="98.2443135" cy="2.68959742" rx="2.34313525" ry="2.35339775"></ellipse>
                    </g>
                    <g id="Group" transform="translate(5.021004, 34.619968)">
                        <ellipse id="Oval" fill="#000000" cx="2.84523566" cy="2.36199678" rx="2.34313525" ry="2.35339775"></ellipse>
                        <ellipse id="Oval" fill="#F7455B" cx="8.53570697" cy="2.36199678" rx="2.34313525" ry="2.35339775"></ellipse>
                        <ellipse id="Oval" fill="#000000" cx="14.0588115" cy="2.36199678" rx="2.34313525" ry="2.35339775"></ellipse>
                        <ellipse id="Oval" fill="#000000" cx="19.7492828" cy="2.36199678" rx="2.34313525" ry="2.35339775"></ellipse>
                        <ellipse id="Oval" fill="#000000" cx="25.2723873" cy="2.36199678" rx="2.34313525" ry="2.35339775"></ellipse>
                        <ellipse id="Oval" fill="#000000" cx="30.9628586" cy="2.36199678" rx="2.34313525" ry="2.35339775"></ellipse>
                        <ellipse id="Oval" fill="#000000" cx="36.6533299" cy="2.36199678" rx="2.34313525" ry="2.35339775"></ellipse>
                        <ellipse id="Oval" fill="#000000" cx="42.1764344" cy="2.36199678" rx="2.34313525" ry="2.35339775"></ellipse>
                        <ellipse id="Oval" fill="#000000" cx="47.8669057" cy="2.36199678" rx="2.34313525" ry="2.35339775"></ellipse>
                        <ellipse id="Oval" fill="#000000" cx="53.3900102" cy="2.36199678" rx="2.34313525" ry="2.35339775"></ellipse>
                        <ellipse id="Oval" fill="#000000" cx="59.0804816" cy="2.36199678" rx="2.34313525" ry="2.35339775"></ellipse>
                        <ellipse id="Oval" fill="#000000" cx="64.6035861" cy="2.36199678" rx="2.34313525" ry="2.35339775"></ellipse>
                        <ellipse id="Oval" fill="#000000" cx="70.2940574" cy="2.36199678" rx="2.34313525" ry="2.35339775"></ellipse>
                        <ellipse id="Oval" fill="#000000" cx="75.8171619" cy="2.36199678" rx="2.34313525" ry="2.35339775"></ellipse>
                        <ellipse id="Oval" fill="#000000" cx="81.5076332" cy="2.36199678" rx="2.34313525" ry="2.35339775"></ellipse>
                        <ellipse id="Oval" fill="#000000" cx="87.0307377" cy="2.36199678" rx="2.34313525" ry="2.35339775"></ellipse>
                        <ellipse id="Oval" fill="#000000" cx="92.721209" cy="2.36199678" rx="2.34313525" ry="2.35339775"></ellipse>
                        <ellipse id="Oval" fill="#000000" cx="98.2443135" cy="2.36199678" rx="2.34313525" ry="2.35339775"></ellipse>
                    </g>
                    <g id="Group" transform="translate(5.021004, 39.906441)" fill="#000000">
                        <ellipse id="Oval" cx="2.84523566" cy="2.62281804" rx="2.34313525" ry="2.35339775"></ellipse>
                        <ellipse id="Oval" cx="8.53570697" cy="2.62281804" rx="2.34313525" ry="2.35339775"></ellipse>
                        <ellipse id="Oval" cx="14.0588115" cy="2.62281804" rx="2.34313525" ry="2.35339775"></ellipse>
                        <ellipse id="Oval" cx="19.7492828" cy="2.62281804" rx="2.34313525" ry="2.35339775"></ellipse>
                        <ellipse id="Oval" cx="25.2723873" cy="2.62281804" rx="2.34313525" ry="2.35339775"></ellipse>
                        <ellipse id="Oval" cx="30.9628586" cy="2.62281804" rx="2.34313525" ry="2.35339775"></ellipse>
                        <ellipse id="Oval" cx="36.6533299" cy="2.62281804" rx="2.34313525" ry="2.35339775"></ellipse>
                        <ellipse id="Oval" cx="42.1764344" cy="2.62281804" rx="2.34313525" ry="2.35339775"></ellipse>
                        <ellipse id="Oval" cx="47.8669057" cy="2.62281804" rx="2.34313525" ry="2.35339775"></ellipse>
                        <ellipse id="Oval" cx="53.3900102" cy="2.62281804" rx="2.34313525" ry="2.35339775"></ellipse>
                        <ellipse id="Oval" cx="59.0804816" cy="2.62281804" rx="2.34313525" ry="2.35339775"></ellipse>
                        <ellipse id="Oval" cx="64.6035861" cy="2.62281804" rx="2.34313525" ry="2.35339775"></ellipse>
                        <ellipse id="Oval" cx="70.2940574" cy="2.62281804" rx="2.34313525" ry="2.35339775"></ellipse>
                        <ellipse id="Oval" cx="75.8171619" cy="2.62281804" rx="2.34313525" ry="2.35339775"></ellipse>
                        <ellipse id="Oval" cx="81.5076332" cy="2.62281804" rx="2.34313525" ry="2.35339775"></ellipse>
                        <ellipse id="Oval" cx="87.0307377" cy="2.62281804" rx="2.34313525" ry="2.35339775"></ellipse>
                        <ellipse id="Oval" cx="92.721209" cy="2.62281804" rx="2.34313525" ry="2.35339775"></ellipse>
                        <ellipse id="Oval" cx="98.2443135" cy="2.62281804" rx="2.34313525" ry="2.35339775"></ellipse>
                    </g>
                    <g id="Group" transform="translate(106.441086, 6.286473)" fill="#000000">
                        <ellipse id="Oval" cx="2.51470287" cy="2.4547182" rx="2.34313525" ry="2.35339775"></ellipse>
                        <ellipse id="Oval" cx="8.03780738" cy="2.4547182" rx="2.34313525" ry="2.35339775"></ellipse>
                        <ellipse id="Oval" cx="53.0594775" cy="2.4547182" rx="2.34313525" ry="2.35339775"></ellipse>
                        <ellipse id="Oval" cx="58.582582" cy="2.4547182" rx="2.34313525" ry="2.35339775"></ellipse>
                    </g>
                    <g id="Group" transform="translate(106.441086, 11.766989)" fill="#000000">
                        <ellipse id="Oval" cx="2.51470287" cy="2.68959742" rx="2.34313525" ry="2.35339775"></ellipse>
                        <ellipse id="Oval" cx="13.7282787" cy="2.68959742" rx="2.34313525" ry="2.35339775"></ellipse>
                        <ellipse id="Oval" cx="53.0594775" cy="2.68959742" rx="2.34313525" ry="2.35339775"></ellipse>
                        <ellipse id="Oval" cx="58.582582" cy="2.68959742" rx="2.34313525" ry="2.35339775"></ellipse>
                    </g>
                    <g id="Group" transform="translate(112.135758, 16.809984)" fill="#000000">
                        <ellipse id="Oval" cx="2.34313525" cy="3.19389694" rx="2.34313525" ry="2.35339775"></ellipse>
                        <ellipse id="Oval" cx="8.03360656" cy="3.19389694" rx="2.34313525" ry="2.35339775"></ellipse>
                        <ellipse id="Oval" cx="30.4607582" cy="3.19389694" rx="2.34313525" ry="2.35339775"></ellipse>
                        <ellipse id="Oval" cx="36.1512295" cy="3.19389694" rx="2.34313525" ry="2.35339775"></ellipse>
                        <ellipse id="Oval" cx="41.674334" cy="3.19389694" rx="2.34313525" ry="2.35339775"></ellipse>
                        <ellipse id="Oval" cx="47.3648053" cy="3.19389694" rx="2.34313525" ry="2.35339775"></ellipse>
                        <ellipse id="Oval" cx="52.8879098" cy="3.19389694" rx="2.34313525" ry="2.35339775"></ellipse>
                    </g>
                    <g id="Group" transform="translate(112.135758, 23.096457)" fill="#000000">
                        <ellipse id="Oval" cx="2.34313525" cy="2.62281804" rx="2.34313525" ry="2.35339775"></ellipse>
                        <ellipse id="Oval" cx="8.03360656" cy="2.62281804" rx="2.34313525" ry="2.35339775"></ellipse>
                        <ellipse id="Oval" cx="19.2471824" cy="2.62281804" rx="2.34313525" ry="2.35339775"></ellipse>
                        <ellipse id="Oval" cx="24.7702869" cy="2.62281804" rx="2.34313525" ry="2.35339775"></ellipse>
                        <ellipse id="Oval" cx="30.4607582" cy="2.62281804" rx="2.34313525" ry="2.35339775"></ellipse>
                        <ellipse id="Oval" cx="36.1512295" cy="2.62281804" rx="2.34313525" ry="2.35339775"></ellipse>
                        <ellipse id="Oval" cx="41.674334" cy="2.62281804" rx="2.34313525" ry="2.35339775"></ellipse>
                    </g>
                    <g id="Group" transform="translate(106.441086, 28.576973)" fill="#000000">
                        <ellipse id="Oval" cx="2.51470287" cy="2.68959742" rx="2.34313525" ry="2.35339775"></ellipse>
                        <ellipse id="Oval" cx="8.03780738" cy="2.68959742" rx="2.34313525" ry="2.35339775"></ellipse>
                        <ellipse id="Oval" cx="13.7282787" cy="2.68959742" rx="2.34313525" ry="2.35339775"></ellipse>
                        <ellipse id="Oval" cx="19.2513832" cy="2.68959742" rx="2.34313525" ry="2.35339775"></ellipse>
                        <ellipse id="Oval" cx="24.9418545" cy="2.68959742" rx="2.34313525" ry="2.35339775"></ellipse>
                        <ellipse id="Oval" cx="30.464959" cy="2.68959742" rx="2.34313525" ry="2.35339775"></ellipse>
                        <ellipse id="Oval" cx="36.1554303" cy="2.68959742" rx="2.34313525" ry="2.35339775"></ellipse>
                        <ellipse id="Oval" cx="41.8459016" cy="2.68959742" rx="2.34313525" ry="2.35339775"></ellipse>
                        <ellipse id="Oval" cx="47.3690061" cy="2.68959742" rx="2.34313525" ry="2.35339775"></ellipse>
                    </g>
                    <g id="Group" transform="translate(106.441086, 34.619968)" fill="#000000">
                        <ellipse id="Oval" cx="2.51470287" cy="2.36199678" rx="2.34313525" ry="2.35339775"></ellipse>
                        <ellipse id="Oval" cx="8.03780738" cy="2.36199678" rx="2.34313525" ry="2.35339775"></ellipse>
                        <ellipse id="Oval" cx="13.7282787" cy="2.36199678" rx="2.34313525" ry="2.35339775"></ellipse>
                        <ellipse id="Oval" cx="19.2513832" cy="2.36199678" rx="2.34313525" ry="2.35339775"></ellipse>
                        <ellipse id="Oval" cx="24.9418545" cy="2.36199678" rx="2.34313525" ry="2.35339775"></ellipse>
                        <ellipse id="Oval" cx="30.464959" cy="2.36199678" rx="2.34313525" ry="2.35339775"></ellipse>
                        <ellipse id="Oval" cx="36.1554303" cy="2.36199678" rx="2.34313525" ry="2.35339775"></ellipse>
                    </g>
                    <g id="Group" transform="translate(106.441086, 39.906441)" fill="#000000">
                        <ellipse id="Oval" cx="2.51470287" cy="2.62281804" rx="2.34313525" ry="2.35339775"></ellipse>
                        <ellipse id="Oval" cx="8.03780738" cy="2.62281804" rx="2.34313525" ry="2.35339775"></ellipse>
                        <ellipse id="Oval" cx="13.7282787" cy="2.62281804" rx="2.34313525" ry="2.35339775"></ellipse>
                        <ellipse id="Oval" cx="19.2513832" cy="2.62281804" rx="2.34313525" ry="2.35339775"></ellipse>
                        <ellipse id="Oval" cx="24.9418545" cy="2.62281804" rx="2.34313525" ry="2.35339775"></ellipse>
                        <ellipse id="Oval" cx="30.464959" cy="2.62281804" rx="2.34313525" ry="2.35339775"></ellipse>
                        <ellipse id="Oval" cx="36.1554303" cy="2.62281804" rx="2.34313525" ry="2.35339775"></ellipse>
                    </g>
                    <g id="Group" transform="translate(11.042008, 45.386957)" fill="#000000">
                        <ellipse id="Oval" cx="2.51470287" cy="2.85769726" rx="2.34313525" ry="2.35339775"></ellipse>
                        <ellipse id="Oval" cx="8.03780738" cy="2.85769726" rx="2.34313525" ry="2.35339775"></ellipse>
                        <ellipse id="Oval" cx="13.7282787" cy="2.85769726" rx="2.34313525" ry="2.35339775"></ellipse>
                        <ellipse id="Oval" cx="19.2513832" cy="2.85769726" rx="2.34313525" ry="2.35339775"></ellipse>
                        <ellipse id="Oval" cx="24.9418545" cy="2.85769726" rx="2.34313525" ry="2.35339775"></ellipse>
                        <ellipse id="Oval" cx="30.6323258" cy="2.85769726" rx="2.34313525" ry="2.35339775"></ellipse>
                        <ellipse id="Oval" cx="36.1554303" cy="2.85769726" rx="2.34313525" ry="2.35339775"></ellipse>
                        <ellipse id="Oval" cx="41.8459016" cy="2.85769726" rx="2.34313525" ry="2.35339775"></ellipse>
                        <ellipse id="Oval" cx="47.3690061" cy="2.85769726" rx="2.34313525" ry="2.35339775"></ellipse>
                        <ellipse id="Oval" cx="53.0594775" cy="2.85769726" rx="2.34313525" ry="2.35339775"></ellipse>
                        <ellipse id="Oval" cx="58.582582" cy="2.85769726" rx="2.34313525" ry="2.35339775"></ellipse>
                        <ellipse id="Oval" cx="64.2730533" cy="2.85769726" rx="2.34313525" ry="2.35339775"></ellipse>
                        <ellipse id="Oval" cx="69.7961578" cy="2.85769726" rx="2.34313525" ry="2.35339775"></ellipse>
                        <ellipse id="Oval" cx="75.4866291" cy="2.85769726" rx="2.34313525" ry="2.35339775"></ellipse>
                        <ellipse id="Oval" cx="81.0097336" cy="2.85769726" rx="2.34313525" ry="2.35339775"></ellipse>
                        <ellipse id="Oval" cx="86.7002049" cy="2.85769726" rx="2.34313525" ry="2.35339775"></ellipse>
                        <ellipse id="Oval" cx="92.2233094" cy="2.85769726" rx="2.34313525" ry="2.35339775"></ellipse>
                    </g>
                    <g id="Group" transform="translate(11.042008, 51.429952)" fill="#000000">
                        <path d="M4.85783811,2.36199678 C4.85783811,3.70679549 3.8536373,4.71539452 2.51470287,4.71539452 C1.17576844,4.71539452 0.171567623,3.70679549 0.171567623,2.36199678 C0.171567623,1.01719807 1.17576844,0.00859903382 2.51470287,0.00859903382 C3.8536373,0.00859903382 4.85783811,1.18529791 4.85783811,2.36199678 Z" id="Shape"></path>
                        <path d="M10.3809426,2.36199678 C10.3809426,3.70679549 9.3767418,4.71539452 8.03780738,4.71539452 C6.69887295,4.71539452 5.69467213,3.70679549 5.69467213,2.36199678 C5.69467213,1.01719807 6.69887295,0.00859903382 8.03780738,0.00859903382 C9.3767418,0.00859903382 10.3809426,1.18529791 10.3809426,2.36199678 Z" id="Shape"></path>
                        <path d="M16.0714139,2.36199678 C16.0714139,3.70679549 15.0672131,4.71539452 13.7282787,4.71539452 C12.3893443,4.71539452 11.3851434,3.70679549 11.3851434,2.36199678 C11.3851434,1.01719807 12.3893443,0.00859903382 13.7282787,0.00859903382 C15.0672131,0.00859903382 16.0714139,1.18529791 16.0714139,2.36199678 Z" id="Shape"></path>
                        <path d="M21.5945184,2.36199678 C21.5945184,3.70679549 20.5903176,4.71539452 19.2513832,4.71539452 C17.9124488,4.71539452 16.908248,3.70679549 16.908248,2.36199678 C16.908248,1.01719807 17.9124488,0.00859903382 19.2513832,0.00859903382 C20.5903176,0.00859903382 21.5945184,1.18529791 21.5945184,2.36199678 Z" id="Shape"></path>
                        <path d="M27.2849898,2.36199678 C27.2849898,3.70679549 26.2807889,4.71539452 24.9418545,4.71539452 C23.6029201,4.71539452 22.5987193,3.70679549 22.5987193,2.36199678 C22.5987193,1.01719807 23.6029201,0.00859903382 24.9418545,0.00859903382 C26.2807889,0.00859903382 27.2849898,1.18529791 27.2849898,2.36199678 Z" id="Shape"></path>
                        <path d="M32.8080943,2.36199678 C32.8080943,3.70679549 31.8038934,4.71539452 30.464959,4.71539452 C29.1260246,4.71539452 28.1218238,3.70679549 28.1218238,2.36199678 C28.1218238,1.01719807 29.1260246,0.00859903382 30.464959,0.00859903382 C31.8038934,0.00859903382 32.8080943,1.18529791 32.8080943,2.36199678 Z" id="Shape"></path>
                        <path d="M38.4985656,2.36199678 C38.4985656,3.70679549 37.4943648,4.71539452 36.1554303,4.71539452 C34.8164959,4.71539452 33.8122951,3.70679549 33.8122951,2.36199678 C33.8122951,1.01719807 34.8164959,0.00859903382 36.1554303,0.00859903382 C37.4943648,0.00859903382 38.4985656,1.18529791 38.4985656,2.36199678 Z" id="Shape"></path>
                        <path d="M44.0216701,2.36199678 C44.0216701,3.70679549 43.0174693,4.71539452 41.6785348,4.71539452 C40.3396004,4.71539452 39.3353996,3.70679549 39.3353996,2.36199678 C39.3353996,1.01719807 40.3396004,0.00859903382 41.6785348,0.00859903382 C43.0174693,0.00859903382 44.0216701,1.18529791 44.0216701,2.36199678 Z" id="Shape"></path>
                        <path d="M49.7121414,2.36199678 C49.7121414,3.70679549 48.7079406,4.71539452 47.3690061,4.71539452 C46.0300717,4.71539452 45.0258709,3.70679549 45.0258709,2.36199678 C45.0258709,1.01719807 46.0300717,0.00859903382 47.3690061,0.00859903382 C48.7079406,0.00859903382 49.7121414,1.18529791 49.7121414,2.36199678 Z" id="Shape"></path>
                        <path d="M55.4026127,2.36199678 C55.4026127,3.70679549 54.3984119,4.71539452 53.0594775,4.71539452 C51.720543,4.71539452 50.7163422,3.70679549 50.7163422,2.36199678 C50.7163422,1.01719807 51.720543,0.00859903382 53.0594775,0.00859903382 C54.2310451,0.00859903382 55.4026127,1.18529791 55.4026127,2.36199678 Z" id="Shape"></path>
                        <path d="M60.9257172,2.36199678 C60.9257172,3.70679549 59.9215164,4.71539452 58.582582,4.71539452 C57.2436475,4.71539452 56.2394467,3.70679549 56.2394467,2.36199678 C56.2394467,1.01719807 57.2436475,0.00859903382 58.582582,0.00859903382 C59.9215164,0.00859903382 60.9257172,1.18529791 60.9257172,2.36199678 Z" id="Shape"></path>
                        <path d="M66.6161885,2.36199678 C66.6161885,3.70679549 65.6119877,4.71539452 64.2730533,4.71539452 C62.9341189,4.71539452 61.929918,3.70679549 61.929918,2.36199678 C61.929918,1.01719807 62.9341189,0.00859903382 64.2730533,0.00859903382 C65.4446209,0.00859903382 66.6161885,1.18529791 66.6161885,2.36199678 Z" id="Shape"></path>
                        <path d="M72.139293,2.36199678 C72.139293,3.70679549 71.1350922,4.71539452 69.7961578,4.71539452 C68.4572234,4.71539452 67.4530225,3.70679549 67.4530225,2.36199678 C67.4530225,1.01719807 68.4572234,0.00859903382 69.7961578,0.00859903382 C71.1350922,0.00859903382 72.139293,1.18529791 72.139293,2.36199678 Z" id="Shape"></path>
                        <path d="M77.8297643,2.36199678 C77.8297643,3.70679549 76.8255635,4.71539452 75.4866291,4.71539452 C74.1476947,4.71539452 73.1434939,3.70679549 73.1434939,2.36199678 C73.1434939,1.01719807 74.1476947,0.00859903382 75.4866291,0.00859903382 C76.6581967,0.00859903382 77.8297643,1.18529791 77.8297643,2.36199678 Z" id="Shape"></path>
                        <path d="M83.3528689,2.36199678 C83.3528689,3.70679549 82.348668,4.71539452 81.0097336,4.71539452 C79.6707992,4.71539452 78.6665984,3.70679549 78.6665984,2.36199678 C78.6665984,1.01719807 79.6707992,0.00859903382 81.0097336,0.00859903382 C82.348668,0.00859903382 83.3528689,1.18529791 83.3528689,2.36199678 Z" id="Shape"></path>
                        <path d="M89.0433402,2.36199678 C89.0433402,3.70679549 88.0391393,4.71539452 86.7002049,4.71539452 C85.3612705,4.71539452 84.3570697,3.70679549 84.3570697,2.36199678 C84.3570697,1.01719807 85.3612705,0.00859903382 86.7002049,0.00859903382 C87.8717725,0.00859903382 89.0433402,1.18529791 89.0433402,2.36199678 Z" id="Shape"></path>
                        <path d="M94.5664447,2.36199678 C94.5664447,3.70679549 93.5622439,4.71539452 92.2233094,4.71539452 C90.884375,4.71539452 89.8801742,3.70679549 89.8801742,2.36199678 C89.8801742,1.01719807 90.884375,0.00859903382 92.2233094,0.00859903382 C93.5622439,0.00859903382 94.5664447,1.18529791 94.5664447,2.36199678 Z" id="Shape"></path>
                    </g>
                    <g id="Group" transform="translate(21.757684, 57.153945)" fill="#000000">
                        <ellipse id="Oval" cx="3.01260246" cy="2.35339775" rx="2.34313525" ry="2.35339775"></ellipse>
                        <ellipse id="Oval" cx="8.53570697" cy="2.35339775" rx="2.34313525" ry="2.35339775"></ellipse>
                        <ellipse id="Oval" cx="14.2261783" cy="2.35339775" rx="2.34313525" ry="2.35339775"></ellipse>
                        <ellipse id="Oval" cx="19.9166496" cy="2.35339775" rx="2.34313525" ry="2.35339775"></ellipse>
                        <ellipse id="Oval" cx="25.4397541" cy="2.35339775" rx="2.34313525" ry="2.35339775"></ellipse>
                        <ellipse id="Oval" cx="31.1302254" cy="2.35339775" rx="2.34313525" ry="2.35339775"></ellipse>
                        <ellipse id="Oval" cx="36.6533299" cy="2.35339775" rx="2.34313525" ry="2.35339775"></ellipse>
                        <ellipse id="Oval" cx="42.3438012" cy="2.35339775" rx="2.34313525" ry="2.35339775"></ellipse>
                        <ellipse id="Oval" cx="47.8669057" cy="2.35339775" rx="2.34313525" ry="2.35339775"></ellipse>
                        <ellipse id="Oval" cx="53.557377" cy="2.35339775" rx="2.34313525" ry="2.35339775"></ellipse>
                        <ellipse id="Oval" cx="59.0804816" cy="2.35339775" rx="2.34313525" ry="2.35339775"></ellipse>
                        <ellipse id="Oval" cx="64.7709529" cy="2.35339775" rx="2.34313525" ry="2.35339775"></ellipse>
                        <ellipse id="Oval" cx="70.2940574" cy="2.35339775" rx="2.34313525" ry="2.35339775"></ellipse>
                        <ellipse id="Oval" cx="75.9845287" cy="2.35339775" rx="2.34313525" ry="2.35339775"></ellipse>
                        <ellipse id="Oval" cx="81.5076332" cy="2.35339775" rx="2.34313525" ry="2.35339775"></ellipse>
                    </g>
                    <g id="Group" transform="translate(33.473361, 62.196940)" fill="#000000">
                        <ellipse id="Oval" cx="2.51050205" cy="2.85769726" rx="2.34313525" ry="2.35339775"></ellipse>
                        <ellipse id="Oval" cx="8.20097336" cy="2.85769726" rx="2.34313525" ry="2.35339775"></ellipse>
                        <ellipse id="Oval" cx="13.7240779" cy="2.85769726" rx="2.34313525" ry="2.35339775"></ellipse>
                        <ellipse id="Oval" cx="19.4145492" cy="2.85769726" rx="2.34313525" ry="2.35339775"></ellipse>
                        <ellipse id="Oval" cx="24.9376537" cy="2.85769726" rx="2.34313525" ry="2.35339775"></ellipse>
                        <ellipse id="Oval" cx="30.628125" cy="2.85769726" rx="2.34313525" ry="2.35339775"></ellipse>
                        <ellipse id="Oval" cx="36.1512295" cy="2.85769726" rx="2.34313525" ry="2.35339775"></ellipse>
                        <ellipse id="Oval" cx="41.8417008" cy="2.85769726" rx="2.34313525" ry="2.35339775"></ellipse>
                        <ellipse id="Oval" cx="47.3648053" cy="2.85769726" rx="2.34313525" ry="2.35339775"></ellipse>
                        <ellipse id="Oval" cx="53.0552766" cy="2.85769726" rx="2.34313525" ry="2.35339775"></ellipse>
                        <ellipse id="Oval" cx="58.5783811" cy="2.85769726" rx="2.34313525" ry="2.35339775"></ellipse>
                        <ellipse id="Oval" cx="64.2688525" cy="2.85769726" rx="2.34313525" ry="2.35339775"></ellipse>
                        <ellipse id="Oval" cx="69.791957" cy="2.85769726" rx="2.34313525" ry="2.35339775"></ellipse>
                    </g>
                    <g id="Group" transform="translate(61.491803, 68.239936)" fill="#000000">
                        <ellipse id="Oval" cx="2.60968238" cy="2.53009662" rx="2.34313525" ry="2.35339775"></ellipse>
                        <ellipse id="Oval" cx="8.13278689" cy="2.53009662" rx="2.34313525" ry="2.35339775"></ellipse>
                        <ellipse id="Oval" cx="13.8232582" cy="2.53009662" rx="2.34313525" ry="2.35339775"></ellipse>
                        <ellipse id="Oval" cx="19.3463627" cy="2.53009662" rx="2.34313525" ry="2.35339775"></ellipse>
                        <ellipse id="Oval" cx="25.036834" cy="2.53009662" rx="2.34313525" ry="2.35339775"></ellipse>
                        <ellipse id="Oval" cx="30.5599385" cy="2.53009662" rx="2.34313525" ry="2.35339775"></ellipse>
                        <ellipse id="Oval" cx="36.2504098" cy="2.53009662" rx="2.34313525" ry="2.35339775"></ellipse>
                        <ellipse id="Oval" cx="41.7735143" cy="2.53009662" rx="2.34313525" ry="2.35339775"></ellipse>
                    </g>
                    <g id="Group" transform="translate(72.967725, 73.963929)" fill="#000000">
                        <path d="M4.69047131,2.35339775 C4.69047131,3.69819646 3.68627049,4.70679549 2.34733607,4.70679549 C1.00840164,4.70679549 0.00420081967,3.69819646 0.00420081967,2.35339775 C0.00420081967,1.00859903 1.00840164,0 2.34733607,0 C3.51890369,0 4.69047131,1.17669887 4.69047131,2.35339775 Z" id="Shape"></path>
                        <path d="M10.2135758,2.35339775 C10.2135758,3.69819646 9.209375,4.70679549 7.87044057,4.70679549 C6.53150615,4.70679549 5.52730533,3.69819646 5.52730533,2.35339775 C5.52730533,1.00859903 6.53150615,0 7.87044057,0 C9.209375,0 10.2135758,1.17669887 10.2135758,2.35339775 Z" id="Shape"></path>
                        <path d="M15.9040471,2.35339775 C15.9040471,3.69819646 14.8998463,4.70679549 13.5609119,4.70679549 C12.2219775,4.70679549 11.2177766,3.69819646 11.2177766,2.35339775 C11.2177766,1.00859903 12.2219775,0 13.5609119,0 C14.7324795,0 15.9040471,1.17669887 15.9040471,2.35339775 Z" id="Shape"></path>
                    </g>
                    <g id="Group" transform="translate(72.967725, 79.006924)" fill="#000000">
                        <ellipse id="Oval" cx="2.34733607" cy="3.0257971" rx="2.34313525" ry="2.35339775"></ellipse>
                        <ellipse id="Oval" cx="7.87044057" cy="3.0257971" rx="2.34313525" ry="2.35339775"></ellipse>
                    </g>
                    <g id="Group" transform="translate(106.441086, 45.386957)" fill="#000000">
                        <ellipse id="Oval" cx="2.51470287" cy="2.85769726" rx="2.34313525" ry="2.35339775"></ellipse>
                        <ellipse id="Oval" cx="8.03780738" cy="2.85769726" rx="2.34313525" ry="2.35339775"></ellipse>
                        <ellipse id="Oval" cx="13.7282787" cy="2.85769726" rx="2.34313525" ry="2.35339775"></ellipse>
                        <ellipse id="Oval" cx="19.2513832" cy="2.85769726" rx="2.34313525" ry="2.35339775"></ellipse>
                        <ellipse id="Oval" cx="24.9418545" cy="2.85769726" rx="2.34313525" ry="2.35339775"></ellipse>
                        <ellipse id="Oval" cx="30.464959" cy="2.85769726" rx="2.34313525" ry="2.35339775"></ellipse>
                        <ellipse id="Oval" cx="36.1554303" cy="2.85769726" rx="2.34313525" ry="2.35339775"></ellipse>
                    </g>
                    <g id="Group" transform="translate(106.441086, 51.429952)" fill="#000000">
                        <path d="M4.85783811,2.36199678 C4.85783811,3.70679549 3.8536373,4.71539452 2.51470287,4.71539452 C1.17576844,4.71539452 0.171567623,3.70679549 0.171567623,2.36199678 C0.171567623,1.01719807 1.17576844,0.00859903382 2.51470287,0.00859903382 C3.8536373,0.00859903382 4.85783811,1.18529791 4.85783811,2.36199678 Z" id="Shape"></path>
                        <path d="M10.3809426,2.36199678 C10.3809426,3.70679549 9.3767418,4.71539452 8.03780738,4.71539452 C6.69887295,4.71539452 5.69467213,3.70679549 5.69467213,2.36199678 C5.69467213,1.01719807 6.69887295,0.00859903382 8.03780738,0.00859903382 C9.3767418,0.00859903382 10.3809426,1.18529791 10.3809426,2.36199678 Z" id="Shape"></path>
                        <path d="M16.0714139,2.36199678 C16.0714139,3.70679549 15.0672131,4.71539452 13.7282787,4.71539452 C12.3893443,4.71539452 11.3851434,3.70679549 11.3851434,2.36199678 C11.3851434,1.01719807 12.3893443,0.00859903382 13.7282787,0.00859903382 C15.0672131,0.00859903382 16.0714139,1.18529791 16.0714139,2.36199678 Z" id="Shape"></path>
                        <path d="M21.5945184,2.36199678 C21.5945184,3.70679549 20.5903176,4.71539452 19.2513832,4.71539452 C17.9124488,4.71539452 16.908248,3.70679549 16.908248,2.36199678 C16.908248,1.01719807 17.9124488,0.00859903382 19.2513832,0.00859903382 C20.5903176,0.00859903382 21.5945184,1.18529791 21.5945184,2.36199678 Z" id="Shape"></path>
                        <path d="M27.2849898,2.36199678 C27.2849898,3.70679549 26.2807889,4.71539452 24.9418545,4.71539452 C23.6029201,4.71539452 22.5987193,3.70679549 22.5987193,2.36199678 C22.5987193,1.01719807 23.6029201,0.00859903382 24.9418545,0.00859903382 C26.2807889,0.00859903382 27.2849898,1.18529791 27.2849898,2.36199678 Z" id="Shape"></path>
                        <path d="M32.8080943,2.36199678 C32.8080943,3.70679549 31.8038934,4.71539452 30.464959,4.71539452 C29.1260246,4.71539452 28.1218238,3.70679549 28.1218238,2.36199678 C28.1218238,1.01719807 29.1260246,0.00859903382 30.464959,0.00859903382 C31.8038934,0.00859903382 32.8080943,1.18529791 32.8080943,2.36199678 Z" id="Shape"></path>
                    </g>
                    <g id="Group" transform="translate(106.441086, 57.153945)" fill="#000000">
                        <ellipse id="Oval" cx="2.51470287" cy="2.35339775" rx="2.34313525" ry="2.35339775"></ellipse>
                        <ellipse id="Oval" cx="8.03780738" cy="2.35339775" rx="2.34313525" ry="2.35339775"></ellipse>
                        <ellipse id="Oval" cx="13.7282787" cy="2.35339775" rx="2.34313525" ry="2.35339775"></ellipse>
                        <ellipse id="Oval" cx="19.2513832" cy="2.35339775" rx="2.34313525" ry="2.35339775"></ellipse>
                        <ellipse id="Oval" cx="24.9418545" cy="2.35339775" rx="2.34313525" ry="2.35339775"></ellipse>
                    </g>
                    <g id="Group" transform="translate(106.441086, 62.196940)" fill="#000000">
                        <ellipse id="Oval" cx="2.51470287" cy="2.85769726" rx="2.34313525" ry="2.35339775"></ellipse>
                        <ellipse id="Oval" cx="8.03780738" cy="2.85769726" rx="2.34313525" ry="2.35339775"></ellipse>
                        <ellipse id="Oval" cx="13.7282787" cy="2.85769726" rx="2.34313525" ry="2.35339775"></ellipse>
                        <ellipse id="Oval" cx="19.2513832" cy="2.85769726" rx="2.34313525" ry="2.35339775"></ellipse>
                    </g>
                    <g id="Group" transform="translate(112.135758, 68.239936)" fill="#000000">
                        <ellipse id="Oval" cx="2.34313525" cy="2.53009662" rx="2.34313525" ry="2.35339775"></ellipse>
                        <ellipse id="Oval" cx="8.03360656" cy="2.53009662" rx="2.34313525" ry="2.35339775"></ellipse>
                        <ellipse id="Oval" cx="13.5567111" cy="2.53009662" rx="2.34313525" ry="2.35339775"></ellipse>
                    </g>
                    <g id="Group" transform="translate(117.156762, 73.963929)" fill="#000000">
                        <path d="M5.3557377,2.35339775 C5.3557377,3.69819646 4.35153689,4.70679549 3.01260246,4.70679549 C1.67366803,4.70679549 0.669467213,3.69819646 0.669467213,2.35339775 C0.669467213,1.00859903 1.67366803,0 3.01260246,0 C4.35153689,0 5.3557377,1.17669887 5.3557377,2.35339775 Z" id="Shape"></path>
                        <path d="M10.8788422,2.35339775 C10.8788422,3.69819646 9.87464139,4.70679549 8.53570697,4.70679549 C7.19677254,4.70679549 6.19257172,3.69819646 6.19257172,2.35339775 C6.19257172,1.00859903 7.19677254,0 8.53570697,0 C9.87464139,0 10.8788422,1.17669887 10.8788422,2.35339775 Z" id="Shape"></path>
                    </g>
                    <ellipse id="Oval" fill="#000000" cx="125.692469" cy="82.0327214" rx="2.34313525" ry="2.35339775"></ellipse>
                    <ellipse id="Oval" fill="#000000" cx="125.692469" cy="87.5800161" rx="2.34313525" ry="2.35339775"></ellipse>
                </g>
            </g>
        </g>
    </g>
</svg>